<svg xmlns="http://www.w3.org/2000/svg" viewBox="0 0 474.84 563.04"><g id="b41b9c6d-5b6b-406e-93b4-819a05724154" data-name="Layer 35"><path d="M332.72,360.62c.66,3.63,1.2,7.43,1.53,11.18a79.45,79.45,0,0,1,.31,11.34,39.63,39.63,0,0,1-1.95,11.27,17.69,17.69,0,0,1-6.92,9.33,15.67,15.67,0,0,1-5.57,2.19,22.76,22.76,0,0,1-3,.35c-.51,0-1,.05-1.55,0A8.3,8.3,0,0,1,314,406a17.36,17.36,0,0,1-5.38-2.88,39.75,39.75,0,0,1-4.38-3.89,85.83,85.83,0,0,1-13.64-18.66l-.17-.33-.08-.16a1.14,1.14,0,0,0,.1.19,1.18,1.18,0,0,0,.48.42,1,1,0,0,0,.46.08,1.41,1.41,0,0,0,.92-.51,1.62,1.62,0,0,0,.36-.7,1.16,1.16,0,0,0,0-.27v2.35q-.06,2.88-.3,5.79a44.85,44.85,0,0,1-2.36,11.8,17.06,17.06,0,0,1-1.53,3,9.73,9.73,0,0,1-2.79,2.89,7.42,7.42,0,0,1-4.49,1.19,8.87,8.87,0,0,1-4.1-1.31,15.78,15.78,0,0,1-4.83-5.12,43.11,43.11,0,0,1-2.83-5.4c-.81-1.79-1.53-3.57-2.25-5.19-.18-.39-.36-.78-.53-1.12a6.08,6.08,0,0,0-.43-.76l0,0a2.42,2.42,0,0,0,.29.32,2.77,2.77,0,0,0,1.05.61,2.71,2.71,0,0,0,3.12-1.27,2.72,2.72,0,0,0,.23-.57A2.28,2.28,0,0,0,271,386l-.05.69c-.25,3.74-.58,7.58-1.06,11.39a111.48,111.48,0,0,1-2,11.45A65.21,65.21,0,0,1,264.29,421a33.11,33.11,0,0,1-3,5.5,20.63,20.63,0,0,1-4.64,4.91,14.29,14.29,0,0,1-6.77,2.72,16.31,16.31,0,0,1-1.84.09,11.61,11.61,0,0,1-1.87-.17,13.75,13.75,0,0,1-3.49-1.06,19.79,19.79,0,0,1-5.49-3.8,32.8,32.8,0,0,1-4-4.69,60.39,60.39,0,0,1-5.82-10.28,97.63,97.63,0,0,1-4.17-10.79q-.9-2.75-1.63-5.55c-.24-.94-.46-1.88-.67-2.84-.1-.48-.2-1-.29-1.46l-.06-.37,0-.19a1.75,1.75,0,0,0,.14.4,1.48,1.48,0,0,0,1.64.75,1.5,1.5,0,0,0,.83-.53.88.88,0,1,1,.09-.12l-.1.16-.38.63c-.27.42-.53.84-.81,1.25-.55.82-1.12,1.61-1.73,2.39a36.6,36.6,0,0,1-4,4.39,26.87,26.87,0,0,1-10.19,6.2,20.23,20.23,0,0,1-6,.91,9.82,9.82,0,0,1-6-2.3,19.69,19.69,0,0,1-4-4.54,37,37,0,0,1-2.77-5.14,55.73,55.73,0,0,1-2.07-5.38c-.3-.91-.58-1.83-.84-2.75l-.38-1.39-.18-.7c0-.09-.06-.14.08.16a1,1,0,0,0,.55.43,1,1,0,0,0,1.14-.5c.1-.26,0,0,0,0l-.05.17-.11.34-.23.68-.46,1.35-1,2.68q-1,2.67-2.11,5.29a106.14,106.14,0,0,1-5,10.28,48.14,48.14,0,0,1-6.76,9.44,22.52,22.52,0,0,1-4.7,3.81,12.48,12.48,0,0,1-6.11,1.85,10.72,10.72,0,0,1-6.35-1.86,14.32,14.32,0,0,1-4.18-4.9A35.14,35.14,0,0,1,145,405a86.62,86.62,0,0,1-.81-11.56c0-3.85.12-7.68.39-11.5.15-1.91.32-3.81.53-5.72l0-.18a1.19,1.19,0,0,0,0,.33,2.17,2.17,0,0,0,.26.94,1.83,1.83,0,0,0,1.09.9,2.09,2.09,0,0,0,1.15.05,2.42,2.42,0,0,0,1.4-.9c.37-.58.16-.26.17-.23s-.06.14-.09.24c-.26.7-.51,1.58-.76,2.47-1,3.6-2.13,7.56-4.66,11.31A14.15,14.15,0,0,1,138.3,396,13.28,13.28,0,0,1,131,397.1l-.86-.13-.45-.07-.55-.14a7.44,7.44,0,0,1-2.27-1,8,8,0,0,1-3-3.81,14.15,14.15,0,0,1-.85-3.67,29.7,29.7,0,0,1-.15-3.2c0-4.05.39-7.71.44-11.33l0-1.38,0-1.51c0-1,.1-2,.18-3q.24-3,.7-5.88a75.79,75.79,0,0,1,2.72-11.56,67.27,67.27,0,0,1,4.62-11l1.47-2.63c.49-.82,1-1.66,1.52-2.5a52.48,52.48,0,0,1,3.52-5,48,48,0,0,1,4.2-4.57,59.37,59.37,0,0,1,4.68-3.93,80.14,80.14,0,0,1,10-6.39,108.13,108.13,0,0,1,21.6-9.13,130,130,0,0,1,22.85-4.4c7.66-.83,15.31-1.21,22.93-1.28s15.26.14,22.87.85c3.8.31,7.6.78,11.39,1.3s7.55,1.25,11.3,2a139.64,139.64,0,0,1,22,6.54,80.45,80.45,0,0,1,20.08,11.15,86.57,86.57,0,0,1,8.45,7.7,32.51,32.51,0,0,1,6.35,9.55,73.68,73.68,0,0,1,3.54,10.8C331.18,353.21,332.06,356.81,332.72,360.62Zm-.8.06c-.66-3.59-1.58-7.31-2.56-10.91a66.35,66.35,0,0,0-3.73-10.55c-3.14-6.77-9.09-11.6-15.14-15.87a72.78,72.78,0,0,0-20-9.31,135.68,135.68,0,0,0-21.67-4.72,264.48,264.48,0,0,0-44.42-1.79c-14.83.47-29.65,1.81-43.5,6A98.5,98.5,0,0,0,161,321.87c-6.33,3.53-12.34,7.4-16.6,12.62a44.47,44.47,0,0,0-3,4.18c-.48.75-1,1.51-1.45,2.3l-1.32,2.27a61.13,61.13,0,0,0-4.26,9.68,68.52,68.52,0,0,0-2.67,10.34c-.32,1.76-.56,3.54-.75,5.31-.09.89-.16,1.77-.21,2.65l-.06,1.31-.05,1.45c-.14,3.9-.58,7.73-.7,11.21a13.12,13.12,0,0,0,.38,4.27c.16.43.25.52.34.59a.63.63,0,0,0,.3.14l.13,0,.25,0,.53.09a6.77,6.77,0,0,0,3.69-.4,7.6,7.6,0,0,0,3-2.54,19.89,19.89,0,0,0,2.33-4.27c.68-1.59,1.24-3.3,1.84-5.1.31-.9.61-1.82,1.05-2.87l.18-.41a4.36,4.36,0,0,1,.48-.86,3.41,3.41,0,0,1,2-1.28,3.59,3.59,0,0,1,1.85.09,3.83,3.83,0,0,1,2.16,1.78,3.73,3.73,0,0,1,.45,1.6,5.37,5.37,0,0,1,0,.69l0,.17q-.44,2.73-.78,5.49c-.44,3.67-.77,7.36-.92,11a80.13,80.13,0,0,0,.24,11,31.16,31.16,0,0,0,2.49,10.23,10.18,10.18,0,0,0,2.89,3.76,7.17,7.17,0,0,0,4.26,1.42c3.13.07,6.26-1.89,8.75-4.41a44.41,44.41,0,0,0,6.55-8.72,84.79,84.79,0,0,0,5-9.93c.74-1.7,1.45-3.43,2.11-5.17l1-2.62,1-2.79a1.46,1.46,0,0,1,.74-.71,1.53,1.53,0,0,1,1,0,1.5,1.5,0,0,1,.82.65,1.23,1.23,0,0,1,.18.49l.17.67.38,1.33q.39,1.32.84,2.64c.6,1.74,1.27,3.46,2,5.12a34.24,34.24,0,0,0,2.63,4.76,16,16,0,0,0,3.48,3.86,7,7,0,0,0,4.38,1.57,17.19,17.19,0,0,0,5.08-.94,22.27,22.27,0,0,0,8.69-5.81,33.87,33.87,0,0,0,3.4-4.14c.52-.73,1-1.49,1.47-2.25l.67-1.17.32-.58.08-.15a3.63,3.63,0,0,1,.27-.42,2.5,2.5,0,0,1,1.42-.9,2.54,2.54,0,0,1,2.83,1.3,2.63,2.63,0,0,1,.25.73l0,.16.07.32c.1.42.21.86.33,1.29.24.87.5,1.75.78,2.62.57,1.74,1.18,3.48,1.85,5.19a95.28,95.28,0,0,0,4.54,10,58.1,58.1,0,0,0,5.78,9.05c2.15,2.71,4.71,5.12,7.33,6.15a7.31,7.31,0,0,0,7.38-1.12c2.2-1.71,3.93-4.65,5.25-7.79,2.69-6.38,4-13.68,5-20.93.5-3.65.85-7.32,1.22-11.07l.08-.71a4.18,4.18,0,0,1,.15-.81,3.88,3.88,0,0,1,.37-.9,4.16,4.16,0,0,1,1.32-1.44,4.26,4.26,0,0,1,3.61-.56,4.31,4.31,0,0,1,1.66,1,3.75,3.75,0,0,1,.52.58l.18.25a13,13,0,0,1,.95,1.7c.24.5.44,1,.64,1.44l2.06,5.26a36.73,36.73,0,0,0,2.22,4.67,10,10,0,0,0,2.65,3.2,2.63,2.63,0,0,0,1.2.48,1.37,1.37,0,0,0,.88-.17,6.72,6.72,0,0,0,2.23-3.05,39.57,39.57,0,0,0,2.5-10.17c.25-1.81.42-3.63.56-5.46l.1-1.38,0-.69v-.18a5.72,5.72,0,0,1,.08-.61,3.18,3.18,0,0,1,.66-1.34,3.29,3.29,0,0,1,2.16-1.1,3.66,3.66,0,0,1,1.84.27,3.48,3.48,0,0,1,1.58,1.28,3.84,3.84,0,0,1,.27.49l.07.16.13.31a76.45,76.45,0,0,0,5.25,9.61,75.39,75.39,0,0,0,6.54,8.87,36.65,36.65,0,0,0,3.83,3.85,14.2,14.2,0,0,0,4.36,2.7,6.37,6.37,0,0,0,2.41.33,18,18,0,0,0,2.65-.17,13.56,13.56,0,0,0,5-1.64c3.11-1.71,5.24-4.85,6.55-8.24a38.47,38.47,0,0,0,2.25-10.84,77.72,77.72,0,0,0-.12-11.21C333.09,368.12,332.59,364.46,331.92,360.68Z" fill="#5d2515"/><path d="M332.72,393.08c.79,5.64,1.31,11.27,1.73,16.9a26.78,26.78,0,0,1,.05,4.58,24.1,24.1,0,0,1-5.32,13.06,23.52,23.52,0,0,1-3.43,3.41c-1.18.93-2.37,1.88-3.62,2.69a65.84,65.84,0,0,1-7.7,4.44A77.88,77.88,0,0,1,298,444c-2.8.72-5.64,1.2-8.47,1.72-1.41.23-2.84.4-4.26.61s-2.83.41-4.25.53c-2.85.26-5.66.66-8.5.85s-5.65.55-8.48.77l-33.82,3.24c-5.66.44-11.34.95-17.05,1-2.85.15-5.7,0-8.56,0s-5.72-.23-8.58-.37a146.82,146.82,0,0,1-34.12-5.63A89.71,89.71,0,0,1,145.65,440c-1.31-.67-2.56-1.51-3.84-2.26s-2.51-1.63-3.71-2.54l-1.79-1.39c-.62-.53-1.23-1.08-1.81-1.66a25.8,25.8,0,0,1-3.07-3.77,23.73,23.73,0,0,1-3.56-8.84,24.63,24.63,0,0,1-.43-4.68l0-1.17.08-1.07.16-2.11c.44-5.64,1-11.28,1.65-16.92h.8c.7,5.64,1.21,11.28,1.64,16.92l.17,2.11.08,1,.11.95a21.35,21.35,0,0,0,.83,3.66,20.29,20.29,0,0,0,3.51,6.41,19.66,19.66,0,0,0,2.55,2.53c.45.38.94.72,1.42,1.06l1.66,1.05c1.1.72,2.28,1.35,3.43,2s2.35,1.25,3.58,1.77a111.32,111.32,0,0,0,15.19,5.53c5.24,1.5,10.58,2.68,16,3.79,2.7.49,5.42,1,8.15,1.4l4.11.58,2,.3,2.07.22c5.51.64,11.06,1.07,16.63,1.48l4.18.29c1.39.11,2.79.23,4.19.28l8.4.43A187.19,187.19,0,0,0,263.74,446a173.08,173.08,0,0,0,32.38-8.32c5.21-1.79,10.34-3.66,15.25-5.89a75.63,75.63,0,0,0,7.08-3.74c1.15-.67,2.22-1.41,3.3-2.15a20.75,20.75,0,0,0,2.76-2.35,20.37,20.37,0,0,0,4-6.08,21.65,21.65,0,0,0,1.12-3.56,22,22,0,0,0,.52-3.85c.42-5.65.95-11.29,1.73-16.93Z" fill="#5d2515"/><path d="M332.42,409a138.45,138.45,0,0,1,24.7,5.9A59,59,0,0,1,369,420.37a26.65,26.65,0,0,1,5.48,4.35,11.92,11.92,0,0,1,1.75,15.15,22.85,22.85,0,0,1-4.83,5.53,51.15,51.15,0,0,1-11.48,7,117.06,117.06,0,0,1-24.52,7.92,236.44,236.44,0,0,1-25.13,3.83c-4.21.43-8.41.84-12.61,1.17s-8.39.71-12.58,1c-16.77,1.3-33.54,2.42-50.37,3.21-8.42.35-16.86.64-25.29.54s-16.88-.45-25.32-1.05-16.86-1.43-25.26-2.57a245.75,245.75,0,0,1-25.09-4.63,145.47,145.47,0,0,1-24.52-8,65.2,65.2,0,0,1-11.64-6.52,28.41,28.41,0,0,1-5.24-4.81,15.51,15.51,0,0,1-3.52-7,12,12,0,0,1,1.43-8.08,20,20,0,0,1,4.82-5.48,45.61,45.61,0,0,1,11.55-6.45,116.91,116.91,0,0,1,24.57-6.59l.2.77a161.49,161.49,0,0,0-23,9.53,46.45,46.45,0,0,0-9.79,6.73A14.51,14.51,0,0,0,95.45,430a6.16,6.16,0,0,0-.44,4.11c.69,2.65,3.48,5.26,6.66,7.28a58.64,58.64,0,0,0,10.56,5.22,172.53,172.53,0,0,0,23.48,6.87,435.93,435.93,0,0,0,49.07,8c8.27.89,16.58,1.56,24.9,2.19s16.66,1.19,25,1.51a327.82,327.82,0,0,0,50.13-1.47,318,318,0,0,0,49-9.94,183.3,183.3,0,0,0,23.2-7.85,48.38,48.38,0,0,0,10.12-5.78,16.41,16.41,0,0,0,3.63-3.69,6.54,6.54,0,0,0,1.23-4,7.49,7.49,0,0,0-1.84-4,21.52,21.52,0,0,0-4.09-3.75,67,67,0,0,0-10.5-6c-7.47-3.46-15.38-6.25-23.31-9Z" fill="#5d2515"/><path d="M252.13,331.42a1.79,1.79,0,0,0-.5-1,5,5,0,0,0-1.07-.76,13.4,13.4,0,0,0-2.68-1c-.95-.27-1.91-.47-3-.75s-1.9-.47-2.86-.63a52.45,52.45,0,0,0-11.83-.39,55.28,55.28,0,0,0-11.59,1.81c-3.65,1.05-7.17,2.56-9.55,4.92a3.51,3.51,0,0,0-.64.69c-.12.19-.13.32-.09.25a.88.88,0,0,0,0-.57c-.09-.2-.11-.18.06-.09a5.06,5.06,0,0,0,.81.35c.42.16.84.31,1.27.45q1.31.42,2.67.72a84.53,84.53,0,0,0,11.6,1.58,218.92,218.92,0,0,0,23.9,1,82.53,82.53,0,0,0,22.83-3.46,55.59,55.59,0,0,0,5.3-1.91l2.56-1.15c.22-.1.28-.15.29-.15a1.27,1.27,0,0,0-.32.25,3.12,3.12,0,0,0-.76,1.22,3.33,3.33,0,0,0-.13,1.75,2.85,2.85,0,0,0,.41,1l-.7-.61c-.63-.51-1.3-1-2-1.46a30.42,30.42,0,0,0-4.69-2.44c-1.67-.73-3.53-1.41-5.35-2s-3.6-1.14-5.46-1.62a115.89,115.89,0,0,0-11.45-2.22,179.44,179.44,0,0,0-23.62-2,105.84,105.84,0,0,0-23.33,2q-2.85.58-5.66,1.39c-1.87.53-3.73,1.12-5.46,1.8-3.47,1.37-6.62,3.2-8.67,5.78a7.34,7.34,0,0,0-1.78,3.84,2.91,2.91,0,0,0,.3,1.56,5.73,5.73,0,0,0,1.32,1.64,20.08,20.08,0,0,0,4.52,2.92,45.69,45.69,0,0,0,5.4,2.16A150.62,150.62,0,0,0,215.61,352a178.28,178.28,0,0,0,48.29.42c4-.5,8-1.08,12-1.8a116.51,116.51,0,0,0,11.66-2.82,71.6,71.6,0,0,0,11-4.27,34.19,34.19,0,0,0,4.87-2.84,10.85,10.85,0,0,0,3.3-3.44,4.08,4.08,0,0,0,.28-3.47,8.9,8.9,0,0,0-2.56-3.55,33,33,0,0,0-9.43-5.52,86,86,0,0,0-11.08-3.64c-3.8-1-7.67-1.85-11.58-2.56a263.94,263.94,0,0,0-47.71-3.77,149,149,0,0,0-46.29,7.55c-3.69,1.25-7.29,2.68-10.77,4.26a66.92,66.92,0,0,0-9.8,5.43,26.83,26.83,0,0,0-7.18,6.68,6.53,6.53,0,0,0-1.21,3,3.81,3.81,0,0,0,.56,2.4,10.86,10.86,0,0,0,2.61,3,27.67,27.67,0,0,0,4.16,2.8,66,66,0,0,0,10.24,4.4c3.63,1.25,7.41,2.3,11.24,3.22,1.91.47,3.85.89,5.78,1.33l6,1.21c4.1.86,8,1.74,11.86,2.47s7.8,1.32,11.74,1.78a219.56,219.56,0,0,0,23.86,1.49c16.05.07,32.29-.53,48.12-2.9,2-.3,3.94-.69,5.9-1.05s3.91-.83,5.83-1.34a67.65,67.65,0,0,0,11.22-3.8,29.31,29.31,0,0,0,9.58-6.43,13.88,13.88,0,0,0,2.93-4.81,9.43,9.43,0,0,0,.22-5.56l1-.45c1.76,4.17.35,8.94-2.25,12.37a31.77,31.77,0,0,1-9.83,8.11,71.26,71.26,0,0,1-11.52,5,115.15,115.15,0,0,1-12,3.43,210.18,210.18,0,0,1-24.44,4.1c-8.19.92-16.38,1.67-24.65,1.94a221.12,221.12,0,0,1-24.94-.39c-4.17-.34-8.35-.8-12.49-1.45s-8.24-1.42-12.13-2.09l-6.06-1c-2.06-.38-4.11-.76-6.17-1.22-4.11-.89-8.22-1.92-12.32-3.22a71.13,71.13,0,0,1-12.26-5,39.37,39.37,0,0,1-6-4,22.48,22.48,0,0,1-5.4-6.16l-.55-1-.47-1.08a15.6,15.6,0,0,1-.75-2.31,15.1,15.1,0,0,1-.32-4.92,16.63,16.63,0,0,1,1.09-4.56,21.17,21.17,0,0,1,2-3.76,29.79,29.79,0,0,1,5-5.73,46,46,0,0,1,5.49-4.28,93.31,93.31,0,0,1,23.62-10.83,155.49,155.49,0,0,1,49.92-7c8.28.15,16.56.63,24.81,1.51a206.66,206.66,0,0,1,24.62,4,111.26,111.26,0,0,1,24,8,39.38,39.38,0,0,1,11.08,7.55,15.28,15.28,0,0,1,3.95,6.6l.23,1a9.63,9.63,0,0,1,.11,1.08c0,.35,0,.74,0,1.07s-.08.74-.12,1.11a10.43,10.43,0,0,1-1.5,4,13.36,13.36,0,0,1-2.5,2.93,20.55,20.55,0,0,1-2.82,2.14,38.44,38.44,0,0,1-5.86,3,84.93,84.93,0,0,1-12,3.94,123.58,123.58,0,0,1-12.22,2.36c-4.08.62-8.15,1.09-12.24,1.47a243.51,243.51,0,0,1-24.6,1.08,217.49,217.49,0,0,1-24.59-1.7,172.44,172.44,0,0,1-24.25-4.89c-4-1.12-8.19-2.46-12-5.38a11.28,11.28,0,0,1-2.65-3A8.73,8.73,0,0,1,175,338a12.89,12.89,0,0,1,2.52-7.38,22,22,0,0,1,5-5.09,35.06,35.06,0,0,1,5.82-3.45,64.52,64.52,0,0,1,6-2.47q3-1.08,6.08-1.95a106.56,106.56,0,0,1,25.1-3.64,153.16,153.16,0,0,1,25.09,1.45,109.42,109.42,0,0,1,12.52,2.39c2.09.53,4.18,1.16,6.24,1.9s4,1.46,6,2.37a40.67,40.67,0,0,1,6.09,3.29,31.82,31.82,0,0,1,2.9,2.18c.47.44.85.71,1.55,1.46a9,9,0,0,1,1,1.33,7.08,7.08,0,0,1,.91,2.29,6.24,6.24,0,0,1-.22,3.27,6.41,6.41,0,0,1-1.59,2.48,7.9,7.9,0,0,1-1.54,1.16,8.89,8.89,0,0,1-1.07.54l-3,1.3c-2.06.78-4.12,1.54-6.23,2.11a90,90,0,0,1-25.44,3,184.77,184.77,0,0,1-24.82-2.2,85.85,85.85,0,0,1-12.49-2.43c-1-.31-2.11-.68-3.15-1.1-.53-.21-1.05-.44-1.57-.68a10.77,10.77,0,0,1-1.88-1.07,6.2,6.2,0,0,1-2-2.31,5.26,5.26,0,0,1-.36-3.55,6.58,6.58,0,0,1,1.25-2.47,8.25,8.25,0,0,1,1.5-1.48,26.69,26.69,0,0,1,12.33-5.35,58.94,58.94,0,0,1,12.66-.86,52.3,52.3,0,0,1,12.45,1.71,29.78,29.78,0,0,1,3,1c.89.36,1.89.7,2.86,1.12a14.84,14.84,0,0,1,2.86,1.51,6.19,6.19,0,0,1,1.26,1.2,2.88,2.88,0,0,1,.6,1.81Z" fill="#5d2515"/><path d="M234.37,254a33.64,33.64,0,0,0-12-16.19,54.51,54.51,0,0,0-8.7-5.14,35.1,35.1,0,0,0-9.12-3,22.42,22.42,0,0,0-4.51-.33,15.66,15.66,0,0,0-4.15.68,5.52,5.52,0,0,0-.8.33,2.61,2.61,0,0,0-.36.19l-.47.28a4.23,4.23,0,0,0-.65.47l-.31.28-.27.3a8.32,8.32,0,0,0-.59.74l-.29.43-.22.38a8.76,8.76,0,0,0-.74,1.74,9.86,9.86,0,0,0-.4,3.89,8.89,8.89,0,0,0,.14,1,3.49,3.49,0,0,0,.2.72,7.31,7.31,0,0,0,1,1.63,9.69,9.69,0,0,0,3.13,2.63,9.22,9.22,0,0,0,2,.79,10.25,10.25,0,0,0,1,.23,3.39,3.39,0,0,0,.53.06l.7,0h.72q.47,0,.84-.09a6.43,6.43,0,0,0,1.61-.5,4.81,4.81,0,0,0,2.28-2.22l0,.1a16.18,16.18,0,0,0,1.15-3.73,15.27,15.27,0,0,0,0-3.88l-.28-2.18,1.89,1a22.27,22.27,0,0,1,2.92,1.87,9.69,9.69,0,0,1,1.36,1.23,4.6,4.6,0,0,1,.62.83,7.32,7.32,0,0,1,.42.85,13.62,13.62,0,0,1,1,3.49c0,.4,0,.6,0,.89a8.82,8.82,0,0,1,0,.91,12.18,12.18,0,0,1-.24,1.76,14.37,14.37,0,0,1-3.08,6.33,16,16,0,0,1-5.64,4.23,18.42,18.42,0,0,1-3.35,1.15l-.85.21-.86.14-.87.13-.9.08a22.55,22.55,0,0,1-7-.66,24,24,0,0,1-6.55-2.74,23.32,23.32,0,0,1-2.93-2.1c-.46-.38-.91-.79-1.37-1.24l-1.17-1.23,0,0-.1-.13c-.48-.62-1-1.15-1.46-1.9s-.88-1.29-1.3-2a24.46,24.46,0,0,1-2.07-4.5,26.62,26.62,0,0,1-1.41-9.74,27.53,27.53,0,0,1,2.15-9.7,26.13,26.13,0,0,1,5.71-8.32,29.28,29.28,0,0,1,18.26-7.6,36.26,36.26,0,0,1,4.89,0,38.33,38.33,0,0,1,4.87.64,40.19,40.19,0,0,1,9.23,3,51.72,51.72,0,0,1,8.21,4.77c1.3.9,2.56,1.86,3.76,2.88.59.5,1.19,1,1.76,1.54s1.17,1.06,1.74,1.63a46.75,46.75,0,0,1,3.19,3.5,43.32,43.32,0,0,1,2.86,3.87,40,40,0,0,1,4.27,8.52c4.43,11.95,2.63,25.76-4.54,35.61l-1.31,1.8-.19-2.15c-.28-3.12-.66-6.25-1.15-9.36-.25-1.55-.53-3.09-.86-4.63A40.06,40.06,0,0,0,234.37,254Zm.66-.24a41.92,41.92,0,0,1,1.31,4.59c.38,1.54.73,3.08,1,4.63.66,3.1,1.26,6.19,1.84,9.32l-1.5-.35a30.32,30.32,0,0,0,3.22-7.93,33.76,33.76,0,0,0,.95-8.41,37.54,37.54,0,0,0-1-8.29,41.06,41.06,0,0,0-2.78-7.77,36.61,36.61,0,0,0-2-3.59,38.89,38.89,0,0,0-2.3-3.39,35.83,35.83,0,0,0-2.57-3.12c-1-1.08-1.89-2-2.89-2.95-.49-.46-1-.87-1.54-1.35l-1.62-1.32c-1.09-.85-2.2-1.67-3.34-2.43a51.74,51.74,0,0,0-7.15-4,34.24,34.24,0,0,0-15.46-3.16,24.86,24.86,0,0,0-7.58,1.46,22.68,22.68,0,0,0-3.46,1.61c-.54.3-1.14.69-1.61,1a13.68,13.68,0,0,0-1.41,1.13,19.62,19.62,0,0,0-4.48,6.05,21.89,21.89,0,0,0-2,7.44,23.09,23.09,0,0,0,.63,7.77,22.31,22.31,0,0,0,1.36,3.66c.29.6.62,1.2,1,1.82s.73,1.13,1.1,1.71l-.12-.15,1,1.25c.29.34.61.69,1,1a20.54,20.54,0,0,0,2.24,1.93,20,20,0,0,0,5.28,2.77,17.93,17.93,0,0,0,5.91,1,17.48,17.48,0,0,0,5.9-1.06,13.51,13.51,0,0,0,4.91-3.35,11.36,11.36,0,0,0,2.94-6.74,6.11,6.11,0,0,0,0-.72c0-.26,0-.61,0-.75a10,10,0,0,0-.78-2.81,3.38,3.38,0,0,0-.67-1.09,9.22,9.22,0,0,0-1.08-.94,19.06,19.06,0,0,0-2.64-1.59l1.62-1.16a19.37,19.37,0,0,1,.25,4.46,14.42,14.42,0,0,1-.35,2.28c-.17.73-.39,1.43-.57,2.08l0,.1a8,8,0,0,1-3.27,4A10.55,10.55,0,0,1,202,249.5a11.66,11.66,0,0,1-1.26.32l-.33.05-.28,0-.56.07h-.22l-.59,0a6.54,6.54,0,0,1-.78,0,12.8,12.8,0,0,1-1.52-.12,14.81,14.81,0,0,1-3-.73,14,14,0,0,1-5.22-3.36,12.62,12.62,0,0,1-2-2.64,9,9,0,0,1-.72-1.69,13,13,0,0,1-.4-1.55,14.92,14.92,0,0,1,.17-6.38,13.67,13.67,0,0,1,1.15-3.08c.13-.25.28-.5.42-.75l.42-.65a14,14,0,0,1,1-1.32,7.22,7.22,0,0,1,.6-.65c.22-.23.39-.38.64-.61a11.29,11.29,0,0,1,1.45-1l.64-.39c.18-.11.53-.29.79-.41a11.07,11.07,0,0,1,1.61-.62,19,19,0,0,1,6.07-.75,23.34,23.34,0,0,1,5.76.92,28.45,28.45,0,0,1,5.23,2.06,34.88,34.88,0,0,1,4.75,2.81A60.11,60.11,0,0,1,224,236,47.87,47.87,0,0,1,235,253.72Z" fill="#5d2515"/><path d="M253.78,243.34c-1.46-7.56-5.68-14.39-11-19.89a63.61,63.61,0,0,0-8.7-7.53c-1.58-1.1-3.18-2.15-4.84-3.1s-3.38-1.91-5.07-2.81c-6.77-3.72-13.82-6.79-21-9.84-3.57-1.53-7.17-3.12-10.69-4.89a104.52,104.52,0,0,1-10.34-5.94,61.89,61.89,0,0,1-9.46-7.58,56.55,56.55,0,0,1-7.74-9.44,61.66,61.66,0,0,1-5.71-10.81,68.21,68.21,0,0,1-3.45-11.67,69.1,69.1,0,0,1-1.38-12.07,79.86,79.86,0,0,1,7.33-35.07,83.3,83.3,0,0,1,12.77-20.09,68.89,68.89,0,0,1,18.32-15,55.28,55.28,0,0,1,22.58-6.87,48.25,48.25,0,0,1,11.88.54A42.34,42.34,0,0,1,238.61,65a35.76,35.76,0,0,1,16.82,16.7,31.65,31.65,0,0,1,1.73,23.94,30.05,30.05,0,0,1-6.32,10.69,31.35,31.35,0,0,1-22.49,10,25,25,0,0,1-6.49-.72,28,28,0,0,1-3.09-1l-1.45-.6-1.13-.42-6.53-2.42,6.3-3c1.31-.62,2.66-1.2,3.88-1.93a30.87,30.87,0,0,0,3.48-2.31c1.12-.86,2.39-1.87,3.46-2.76s2.16-1.89,3.15-2.89a28,28,0,0,0,4.92-6.49,13.39,13.39,0,0,0,.74-1.69q.14-.41.24-.81l.08-.4a1.88,1.88,0,0,0,.05-.33,8.09,8.09,0,0,0-.28-3.23,11.24,11.24,0,0,0-1.53-3.16,10.75,10.75,0,0,0-2.41-2.49,14.58,14.58,0,0,0-6.86-2.57c-5.19-.72-10.6.87-15.35,3.56A40.77,40.77,0,0,0,197.37,102a62.75,62.75,0,0,0-8.09,15.16,60,60,0,0,0-3.61,16.75,43.31,43.31,0,0,0,1.85,16.67,37.36,37.36,0,0,0,3.45,7.58,35.28,35.28,0,0,0,5.12,6.54,63.18,63.18,0,0,0,6.54,5.63c1.17.9,2.36,1.79,3.57,2.65s2.43,1.69,3.68,2.54c5,3.33,10.18,6.7,15.21,10.36q3.76,2.76,7.31,5.73l.9.74.9.78,1.73,1.56c1.16,1,2.32,2.06,3.43,3.12s2.23,2.06,3.36,3.19,2.19,2.25,3.23,3.43a74.73,74.73,0,0,1,5.77,7.41,59.26,59.26,0,0,1,8.09,16.87,39.83,39.83,0,0,1,1.1,18.56c-.14.75-.29,1.55-.5,2.3s-.41,1.49-.65,2.23a32.58,32.58,0,0,1-1.76,4.32,36.87,36.87,0,0,1-5.08,7.75l-1.2,1.4.36-1.8c.66-3.32,1.2-6.68,1.57-10.05.19-1.68.33-3.37.38-5.06A24.72,24.72,0,0,0,253.78,243.34Zm.69-.13a25.68,25.68,0,0,1,.33,5.17c0,1.71-.15,3.42-.32,5.13-.34,3.4-.84,6.78-1.46,10.15l-.84-.41A34.16,34.16,0,0,0,259.37,247a37.57,37.57,0,0,0-1.93-17.56,56.09,56.09,0,0,0-8.65-15.5,71.65,71.65,0,0,0-5.89-6.67c-1-1-2.14-2.07-3.23-3s-2.31-1.93-3.46-2.9-2.34-1.91-3.52-2.83l-1.76-1.4c-.3-.23-.59-.46-.87-.66l-.91-.67c-2.44-1.77-4.9-3.51-7.38-5.17-5-3.32-10.24-6.32-15.44-9.62-1.3-.81-2.63-1.65-3.93-2.54s-2.58-1.77-3.85-2.69-2.52-1.85-3.78-2.87a39.54,39.54,0,0,1-3.67-3.25c-.6-.59-1.16-1.18-1.69-1.78s-1.11-1.24-1.64-1.89a42.68,42.68,0,0,1-2.9-4.09,45.2,45.2,0,0,1-4.23-9,50.52,50.52,0,0,1-2.45-19.44,66.65,66.65,0,0,1,4.09-18.89,68.3,68.3,0,0,1,9.14-17A47.73,47.73,0,0,1,206,84.42a35.86,35.86,0,0,1,9.45-3.66c.82-.18,1.64-.34,2.48-.47a23,23,0,0,1,2.63-.26,27.38,27.38,0,0,1,5.21.25A23,23,0,0,1,231,81.61a19.1,19.1,0,0,1,2.48,1.15c.4.22.83.47,1.21.72s.76.52,1.13.81a17,17,0,0,1,3.86,4.12A17.25,17.25,0,0,1,242,93.5a14.6,14.6,0,0,1,.41,5.82c0,.24-.09.58-.14.81s-.1.47-.17.71a12.13,12.13,0,0,1-.43,1.37,18.94,18.94,0,0,1-1.12,2.49,33.56,33.56,0,0,1-6.2,8c-1.17,1.14-2.39,2.2-3.65,3.21s-2.45,1.88-3.77,2.85a38,38,0,0,1-4.21,2.63c-1.43.78-2.88,1.41-4.33,2.09l-.23-5.42,1.59.62,1.22.56a23.72,23.72,0,0,0,2.41.89,19.88,19.88,0,0,0,5,.73A27.14,27.14,0,0,0,238.73,119a26.6,26.6,0,0,0,8.92-5.77,25.78,25.78,0,0,0,5.85-9,26.41,26.41,0,0,0,1.74-10.67,30.16,30.16,0,0,0-2.49-10.72A32.08,32.08,0,0,0,237.6,67a40.78,40.78,0,0,0-22-4.15,49.71,49.71,0,0,0-21.49,7,61,61,0,0,0-16.84,15.1,77.74,77.74,0,0,0-11.13,19.67,82.5,82.5,0,0,0-5.28,21.83,72.75,72.75,0,0,0,1.06,22.2,67.51,67.51,0,0,0,3.16,10.62,56.26,56.26,0,0,0,5,9.83,62.21,62.21,0,0,0,6.73,8.75,60.64,60.64,0,0,0,8.37,7.32,136.21,136.21,0,0,0,19.63,11.74c6.9,3.51,13.85,7.18,20.47,11.33,1.68,1,3.32,2,5,3.11s3.23,2.24,4.78,3.45a65.08,65.08,0,0,1,8.59,8,53.66,53.66,0,0,1,3.69,4.56,45.67,45.67,0,0,1,3.2,4.93A36,36,0,0,1,254.47,243.21Z" fill="#5d2515"/><path d="M214.52,168.06c.25,0,.53-.11.88-.16a5,5,0,0,1,1,0l1.52.09c1,.07,2,.16,3,.29,2,.25,4,.54,6,1a85.83,85.83,0,0,1,11.82,3.24,107.61,107.61,0,0,1,11.33,4.69A121.35,121.35,0,0,1,261,183a92.86,92.86,0,0,1,10.18,7c.82.64,1.63,1.34,2.45,2s1.54,1.34,2.32,2c1.51,1.38,3.06,2.83,4.49,4.39A54.4,54.4,0,0,1,293,220.12a44.14,44.14,0,0,1,1.76,12.55,42.8,42.8,0,0,1-1.93,12.42c-2.48,8-7.25,14.94-12.77,20.91-.69.75-1.4,1.49-2.11,2.21s-1.5,1.38-2.24,2.07c-1.5,1.39-3,2.77-4.59,4s-3.2,2.49-4.81,3.68l-4.81,3.64a77.13,77.13,0,0,0-9,7.66,28.51,28.51,0,0,0-6.26,9.19L242.48,308l-.91-10.44a25.75,25.75,0,0,1,1.83-11.37,47,47,0,0,1,5.34-9.71c2.08-3,4.34-5.74,6.62-8.42,1.13-1.35,2.29-2.64,3.35-4l1.63-2c.55-.65,1.08-1.3,1.57-2,4.08-5.26,7.74-11,9.58-16.86a25.55,25.55,0,0,0,1.1-8.94,33.27,33.27,0,0,0-1.9-9.13,68.51,68.51,0,0,0-9.26-17.37,104.17,104.17,0,0,0-13.4-15.1c-1.25-1.16-2.5-2.3-3.79-3.4-.64-.55-1.29-1.08-2-1.61l-2-1.6c-1.36-1-2.72-2.08-4.1-3.1s-2.79-2-4.22-3c-2.83-2-5.68-3.93-8.58-5.83L219,171.39l-2.17-1.46-1.11-.75A6.48,6.48,0,0,1,214.52,168.06Zm.67.22c.47.14.81.05,1.06.16l1.15.53,2.36,1.11,4.71,2.27c3.12,1.57,6.24,3.14,9.3,4.86s6.14,3.44,9.07,5.38L245,184c.75.5,1.48,1,2.21,1.53,1.45,1.05,2.87,2.12,4.25,3.23A98.21,98.21,0,0,1,266.64,204a68.93,68.93,0,0,1,11,18.86A38.51,38.51,0,0,1,280.08,234a31.1,31.1,0,0,1-1.46,11.62,45,45,0,0,1-4.89,10.16c-1,1.56-2,3.06-3.06,4.52s-2.22,2.85-3.33,4.27c-.55.72-1.13,1.39-1.73,2l-1.77,2c-1.18,1.35-2.38,2.61-3.53,3.88-2.31,2.52-4.54,5.08-6.55,7.71a45.57,45.57,0,0,0-5.12,8.26,21.72,21.72,0,0,0-2.15,8.91l-4.71-.89a32.85,32.85,0,0,1,8.06-10,92.42,92.42,0,0,1,9.93-7.23c3.33-2.22,6.75-4.41,9.93-6.76.77-.62,1.6-1.18,2.34-1.84l2.21-2c.73-.66,1.49-1.29,2.2-2s1.41-1.4,2.09-2.12c5.4-5.72,9.63-12.72,11.28-20.27a39,39,0,0,0-1.89-22.5,54.75,54.75,0,0,0-5.15-10.12,70.76,70.76,0,0,0-7-9,98.78,98.78,0,0,0-17.81-15c-.83-.55-1.62-1.09-2.45-1.6L253,184.51c-1.69-1-3.38-2-5.1-3-3.43-2-6.95-3.74-10.52-5.42-1.79-.83-3.61-1.59-5.45-2.32s-3.69-1.43-5.57-2.06-3.78-1.23-5.71-1.74l-2.9-.76-1.46-.35a1,1,0,0,1-.47-.21A2.53,2.53,0,0,0,215.19,168.28Z" fill="#5d2515"/></g></svg>