<?xml version="1.0" encoding="utf-8"?>
<!-- Generator: Adobe Illustrator 25.4.1, SVG Export Plug-In . SVG Version: 6.00 Build 0)  -->
<svg version="1.1" id="Layer_1" xmlns="http://www.w3.org/2000/svg" xmlns:xlink="http://www.w3.org/1999/xlink" x="0px" y="0px"
	 viewBox="0 0 277 471" style="enable-background:new 0 0 277 471;" xml:space="preserve">
<style type="text/css">
	.st0{fill:#5D2515;}
</style>
<g id="ad1d1bd6-b761-453f-a5fe-a0d6f7f6e98a">
	<path class="st0" d="M34.4,270.2c-0.8,0.5-1.5,1-2.1,1.6c-0.3,0.2-0.5,0.5-0.7,0.9c-0.1,0.3,0,0.4,0,0.5c0.4,0.4,0.9,0.8,1.4,1
		c0.7,0.4,1.5,0.7,2.3,1c3.4,1.1,6.8,2,10.3,2.7c3.5,0.8,7.1,1.4,10.6,2.1s7.1,1.4,10.7,2.2c7.1,1.7,14.2,3.6,21.5,4.4
		c7.3,0.7,14.7,0.8,22,0.1c3.6-0.3,7.3-0.6,10.9-1s7.3-0.6,10.9-1c7.2-0.7,14.4-1.7,21.6-2.6l5.4-0.7l5.4-0.8
		c1.8-0.3,3.6-0.6,5.3-0.9c1.8-0.3,3.5-0.6,5.2-1s3.4-0.8,5.1-1.4c1.5-0.5,3-1.1,4.4-2c0.4-0.3,0.8-0.7,1-1.1c0.1,0,0.1-0.2-0.1-0.5
		c-0.2-0.3-0.4-0.6-0.7-0.8c-0.6-0.6-1.3-1.1-2-1.5c-0.7-0.5-1.5-0.9-2.4-1.2l0.1-0.7c2,0.1,3.9,0.6,5.7,1.6c0.5,0.3,0.9,0.6,1.3,1
		c0.6,0.5,0.9,1.2,1,2c0,1.4-0.5,2.7-1.4,3.7c-1.4,1.5-3.1,2.8-5,3.7c-1.7,0.9-3.5,1.7-5.3,2.4c-1.8,0.7-3.6,1.3-5.4,1.9
		s-3.6,1-5.4,1.5s-3.6,0.9-5.5,1.2s-3.7,0.7-5.5,1c-7.4,1.1-14.8,1.8-22.2,1.9c-3.7,0.1-7.4,0.2-11.1,0.1s-7.4-0.4-11.1-0.7
		c-7.4-0.8-14.7-1.6-22.1-2.1s-14.8-0.3-22.2-0.9c-3.7-0.3-7.4-0.9-11-1.7c-3.7-0.8-7.3-1.8-10.8-2.9c-3.7-1.1-7.2-2.7-10.5-4.6
		c-0.9-0.5-1.7-1.1-2.5-1.8c-0.4-0.4-0.8-0.8-1.2-1.3c-0.5-0.6-0.7-1.3-0.8-2c-0.1-0.8,0.2-1.6,0.8-2.1c0.4-0.4,0.9-0.7,1.4-1
		c0.9-0.4,1.8-0.7,2.8-0.8L34.4,270.2z"/>
	<path class="st0" d="M76.6,255.8c-7.1,0.5-14.3,1.1-21.4,2c-7.1,0.8-14.1,2.2-21,4.1c-1.7,0.5-3.4,1.1-5,1.7
		c-0.4,0.1-0.8,0.3-1.2,0.5s-0.8,0.4-1.1,0.5c-0.7,0.4-1.3,0.8-1.8,1.4c-1,1.1-1.7,2.6-1.9,4.1c0,0.4,0,0.8,0,1.1l0.1,1.3l0.2,2.7
		l1.3,21.5L30,383l1.3,21.5l0.7,10.7c0.2,3,1.5,5.9,3.6,8c1.1,1.1,2.4,2.1,3.7,3c1.4,0.9,2.9,1.7,4.5,2.5c3.1,1.6,6.3,3.1,9.6,4.5
		c6.5,2.8,13.1,5.1,19.9,7c6.8,1.9,13.7,3.2,20.7,4c7,0.8,14,1.1,21,0.9c7.1-0.2,14.1-0.8,21.1-1.8c3.5-0.5,6.9-1.1,10.4-1.8
		c3.4-0.7,7-1.6,10.4-2.4c3.4-0.8,6.7-1.8,9.9-3c3.1-1.1,5.9-2.7,8.6-4.6c1.2-0.9,2.3-2,3.2-3.2c0.9-1.2,1.7-2.5,2.2-3.9
		c1.2-3,1.9-6.2,2.2-9.5l0.3-2.6l0.1-0.6v-0.2V411c0-0.2,0.1-0.5,0.2-0.7c0.3-0.9,0.7-1.8,1.4-2.5c0.6-0.7,1.4-1.3,2.3-1.7
		c0.4-0.2,0.9-0.3,1.4-0.4c0.4-0.1,0.8-0.1,1.1-0.1c0.9,0,1.7-0.1,2.6-0.1c3.5-0.2,6.9-0.7,10.3-1.3c3.4-0.6,6.8-1.4,10.1-2.4
		c1.6-0.5,3.3-1.1,4.9-1.7c0.8-0.3,1.5-0.6,2.3-1s1.5-0.7,2.2-1.1c9.1-4.9,16.7-12,22.4-20.7c0.9-1.5,1.9-2.9,2.6-4.5l1.2-2.3l1-2.4
		c2.7-6.4,4.3-13.2,4.6-20.1l0.1-2.6c0-0.9,0-1.7-0.1-2.6c0-1.7-0.2-3.5-0.4-5.2c-0.5-3.5-1.2-6.9-2.2-10.2c-1-3.4-2.3-6.6-3.7-9.8
		c-0.7-1.6-1.6-3.1-2.4-4.7s-1.8-3-2.7-4.5c-2-2.9-4.1-5.7-6.5-8.3c-1.1-1.3-2.5-2.5-3.7-3.7c-0.6-0.6-1.3-1.2-2-1.7l-1-0.9l-1-0.8
		c-5.6-4.4-11.8-7.9-18.4-10.4c-0.8-0.3-1.7-0.6-2.5-0.9s-1.7-0.6-2.5-0.8s-1.7-0.5-2.6-0.7l-1.3-0.3L200,280
		c-0.3-0.1-0.6-0.1-0.8-0.3c-1.1-0.5-1.9-1.4-2.3-2.6c-0.1-0.3-0.1-0.6-0.1-0.9c0-0.3,0-0.6,0-0.8c0-0.4,0-0.8,0-1.2
		c-0.1-1.6-0.8-3.1-1.8-4.4c-0.5-0.6-1.1-1.2-1.8-1.6c-0.7-0.4-1.5-0.8-2.3-1c-1.7-0.6-3.4-1.2-5.1-1.8c-3.4-1.2-6.8-2.2-10.2-3.1
		c-6.9-1.8-13.9-3.2-21-4.2c-7.1-1.1-14.2-1.7-21.3-2.3s-14.3-0.9-21.5-1.4v-0.6c14.5-0.6,28.9,0.2,43.3,2.3
		c7.2,1,14.2,2.5,21.2,4.4c3.5,0.9,6.9,2,10.4,3.2c1.7,0.6,3.4,1.2,5.1,1.9c0.9,0.3,1.8,0.7,2.6,1.2c2.5,1.6,4.2,4.3,4.5,7.4
		c0,0.5,0,1,0,1.5c0,0.3,0,0.4,0,0.6c0,0.2,0,0.3,0.1,0.5c0.2,0.6,0.6,1.1,1.2,1.3c0.1,0.1,0.3,0.1,0.4,0.1l0.7,0.1l1.3,0.3
		c0.9,0.2,1.8,0.5,2.6,0.7s1.8,0.5,2.6,0.8s1.7,0.6,2.6,0.9c6.9,2.4,13.4,5.9,19.3,10.3l1.1,0.8l1.1,0.9c0.7,0.6,1.4,1.2,2.1,1.8
		c1.3,1.3,2.7,2.5,4,3.8c2.5,2.6,4.9,5.5,7,8.5c4.2,6.1,7.5,12.7,9.9,19.6c1.2,3.5,2.1,7.1,2.7,10.8c0.3,1.8,0.6,3.7,0.6,5.5
		c0.1,0.9,0.2,1.9,0.2,2.8v2.8c-0.1,7.5-1.5,14.9-4.2,21.9l-1,2.6l-1.2,2.5c-0.8,1.7-1.8,3.3-2.7,4.9c-5.9,9.7-14.2,17.7-24,23.4
		c-0.8,0.5-1.7,0.9-2.5,1.3s-1.8,0.8-2.7,1.2c-1.7,0.7-3.5,1.3-5.3,1.9c-3.6,1.2-7.2,2.1-10.8,2.8c-3.7,0.7-7.3,1.2-11.1,1.4
		c-0.9,0.1-1.9,0.1-2.8,0.2h-0.2c0,0,0.1,0,0.1,0c0.1,0,0.1-0.1,0.1-0.1c0,0,0.1-0.1,0.1-0.2c0,0,0,0,0,0l0,0c0,0,0,0,0,0.1
		l-0.1,0.7l-0.3,2.8c-0.4,3.9-1.3,7.8-2.8,11.4c-0.8,1.9-1.9,3.7-3.2,5.4c-1.3,1.6-2.8,3.1-4.4,4.4c-3.2,2.3-6.6,4.2-10.3,5.6
		c-3.5,1.3-7.1,2.4-10.7,3.2c-3.6,0.9-7,1.6-10.6,2.4s-7.2,1.4-10.8,1.9c-7.2,1-14.5,1.6-21.9,1.7c-1.8,0-3.6,0.1-5.5,0
		s-3.7,0-5.5-0.2s-3.7-0.2-5.5-0.4l-2.7-0.3l-2.7-0.4c-7.3-0.9-14.5-2.4-21.5-4.5c-7-2-13.9-4.6-20.6-7.6c-3.3-1.5-6.6-3.1-9.8-4.9
		c-3.5-1.7-6.7-3.9-9.5-6.7c-1.5-1.5-2.6-3.3-3.5-5.3c-0.8-1.9-1.3-4-1.4-6.1l-0.5-10.8l-0.9-21.5l-3.6-86.1l-0.9-21.5l-0.1-2.7
		v-1.4c0-0.5,0-1,0.1-1.6c0.3-2.1,1.2-4,2.7-5.5c0.7-0.7,1.6-1.4,2.5-1.9c0.5-0.2,0.9-0.4,1.3-0.6s0.8-0.4,1.3-0.5
		c1.7-0.7,3.5-1.2,5.2-1.7c7-1.8,14.1-3.1,21.3-3.9c7.2-0.9,14.3-1.4,21.5-1.8L76.6,255.8z"/>
	<path class="st0" d="M235.4,360.9c-1.6,4.4-3.7,8.6-6.4,12.4c-2.6,3.9-5.9,7.4-9.7,10.3l-1.4,1.1l-1.5,1l-0.8,0.5l-0.8,0.4
		l-1.6,0.8c-2.2,1-4.6,1.8-7,2.2c-4.8,0.8-9.6,0.7-14.4-0.1l-0.9-0.1c-0.5-0.1-1-0.2-1.4-0.5c-0.9-0.4-1.7-1.1-2.3-2
		c-0.5-0.9-0.8-1.9-0.8-3l0.1-1.9l0.4-6.9l0.8-13.7c0.5-9.1,1.2-18.3,1.9-27.4c0.4-4.6,0.7-9.1,1.1-13.7l0.6-6.8l0.4-3.4l0.2-1.7
		l0.1-0.9v-0.3l0.1-0.4c0.1-0.3,0.1-0.6,0.2-0.9c0.8-2.3,2.8-3.9,5.2-4.1c0.3,0,0.6,0,0.9,0h0.4h0.2l0.9,0.1l1.8,0.3
		c2.4,0.4,4.7,0.9,7,1.5c4.7,1.2,9.2,3.1,13.2,5.8c3.9,2.8,7.2,6.5,9.5,10.7c2.3,4.1,4,8.5,5.1,13c1.2,4.5,1.7,9.2,1.6,13.9
		c-0.2,4.6-0.9,9.4-3.2,13.5L235.4,360.9z M234.2,360.4c0.9-4.4,1.5-8.9,1.8-13.4c0.2-4.5-0.3-9-1.3-13.3c-1.1-4.3-2.9-8.5-5.5-12.1
		c-2.4-3.6-5.6-6.7-9.4-8.8c-3.9-2-8-3.3-12.3-3.9c-2.2-0.4-4.4-0.6-6.5-0.8l-1.6-0.1h-0.8h-0.2l0,0l0,0c0,0,0.1,0.1,0.1,0
		c0,0,0,0,0,0l0,0l0,0v0.1v0.9l-0.1,1.7l-0.2,3.4l-0.5,6.9c-0.3,4.6-0.8,9.1-1.1,13.7c-0.8,9.1-1.6,18.2-2.6,27.3l-1.5,13.7
		l-0.8,6.8l-0.2,1.6c0,0.1,0,0.2,0,0.3c0,0.1,0.1,0.2,0.2,0.3h0.1l0,0h0.1l0.8,0.2c4.2,1,8.6,1.3,12.9,0.9c2.1-0.3,4.2-0.8,6.2-1.6
		l1.5-0.7l0.7-0.3l0.7-0.4l1.4-0.8l1.4-0.9c7.4-5.1,13-12.4,16.2-20.8L234.2,360.4z"/>
	<path class="st0" d="M111.2,280.7c-8.2,2.1-15.7-1.5-21.6-6.3c-3-2.4-5.7-5.2-8.1-8.1c-2.4-3-4.6-6.1-6.5-9.4
		c-3.8-6.7-6.4-14.1-7.5-21.8c-0.5-3.9-0.6-7.8-0.4-11.7c0.3-3.9,1-7.7,2.1-11.5c1.1-3.8,2.5-7.4,4.2-10.9c1.7-3.5,3.7-6.8,5.9-10
		c4.4-6.3,9.2-12.2,14.5-17.7l7.8-8.1l2-2l1.9-2l3.8-4.1c1.2-1.4,2.6-2.7,3.7-4.1l3.6-4.2l3.6-4.2c1.1-1.4,2.2-2.9,3.3-4.4
		c4.3-5.7,7.9-12,10.4-18.7l0.8-2.5c0.1-0.4,0.3-0.8,0.4-1.2l0.3-1.2c0.2-0.8,0.4-1.7,0.5-2.6l0.4-2.7c0.1-0.9,0.2-1.8,0.3-2.7
		s0.1-1.8,0.2-2.7c0.1-1.8,0.1-3.6,0-5.4c-0.2-7.1-1.9-14.2-5-20.6c-0.3-0.8-0.9-1.6-1.3-2.4s-0.9-1.5-1.4-2.2c-1-1.4-2.1-2.8-3.4-4
		c-2.5-2.5-5.3-4.7-8.4-6.4c-3.1-1.7-6.5-2.9-10-3.7c-0.9-0.2-1.8-0.3-2.7-0.4l-2.7-0.3c-0.9-0.1-1.8-0.1-2.7-0.1s-1.8-0.1-2.7,0
		c-3.6,0.1-7.1,0.9-10.3,2.4c-0.8,0.3-1.6,0.7-2.3,1.2c-0.4,0.2-0.7,0.5-1.1,0.7s-0.7,0.5-1,0.8c-1.3,1.1-2.5,2.4-3.6,3.9
		c-0.5,0.7-0.9,1.4-1.2,2.2c-0.3,0.7-0.5,1.5-0.6,2.3c0,1.7,0.4,3.3,1.3,4.8c1.8,3.1,4.4,5.6,7.5,7.4c3.1,1.9,6.5,3.1,10.1,3.7
		c3.6,0.5,7.3,0.6,10.9,0.1l2.3-0.3l-1.3,2c-3.1,4.5-7.5,8-12.5,10.1c-5,2.1-10.5,2.9-15.9,2.4c-11.1-0.8-21.1-6.7-27.3-15.9
		c-3-4.7-4.9-10-5.4-15.5c-0.2-2.8-0.2-5.6,0.2-8.3c0.4-2.7,1.1-5.4,2-8c1.9-5.2,4.6-10,8.1-14.3c3.5-4.3,7.6-8,12.2-11
		c4.6-3,9.6-5.4,14.8-7c2.6-0.8,5.3-1.5,8-2c2.7-0.5,5.4-0.8,8.1-1c5.4-0.3,10.9-0.1,16.3,0.8c2.7,0.4,5.4,1,8,1.7
		c2.6,0.7,5.2,1.6,7.8,2.6c5.1,2,9.9,4.7,14.4,7.8c4.5,3.1,8.6,6.8,12.3,10.9c7.3,8.2,12.7,17.9,15.9,28.4
		c3.2,10.4,4.6,21.3,4.2,32.1c-0.1,2.7-0.3,5.4-0.7,8.1c-0.1,1.4-0.3,2.7-0.6,4s-0.4,2.7-0.7,4s-0.5,2.6-0.9,4s-0.7,2.7-1.1,4
		c-0.8,2.6-1.8,5.2-2.9,7.7c-1.1,2.5-2.3,4.9-3.6,7.3s-2.7,4.7-4.2,7s-3.1,4.4-4.8,6.5s-3.4,4.2-5.2,6.2s-3.6,3.9-5.5,5.8
		s-3.9,3.7-5.8,5.5s-4,3.5-6.1,5.1l-6.2,4.9c-8.3,6.6-17.1,12.1-24.8,18.9s-14.3,14.7-16.8,24.4c-1.2,4.9-1.6,10-1,15
		c0.2,1.3,0.3,2.5,0.5,3.8s0.5,2.5,0.8,3.7c0.6,2.5,1.5,4.9,2.6,7.2l1.6,3.6c0.5,1.2,1,2.4,1.6,3.5c1.1,2.3,2.5,4.4,4.1,6.4
		c1.6,2,3.5,3.7,5.6,5.2c1,0.7,2.2,1.3,3.3,1.8c0.6,0.2,1.2,0.5,1.8,0.7l0.9,0.3l0.5,0.2c0.1,0,0.3,0.1,0.4,0.2
		C111.1,280.5,111.2,280.6,111.2,280.7z M110.6,280.6c-0.1,0-0.1,0.1-0.2,0.2c0,0.1,0,0.1-0.1,0l-0.5-0.1l-0.9-0.3
		c-0.6-0.2-1.3-0.4-1.9-0.6c-1.3-0.4-2.5-1-3.6-1.7c-2.3-1.4-4.3-3.2-6.1-5.2c-1.8-2-3.3-4.2-4.6-6.5c-0.6-1.1-1.2-2.4-1.8-3.5
		l-1.8-3.5c-1.2-2.4-2.2-4.9-3-7.4c-0.4-1.3-0.7-2.6-1-3.9s-0.5-2.7-0.7-4c-0.8-5.4-0.6-10.8,0.5-16.1c1.2-5.3,3.4-10.4,6.5-14.9
		c3-4.5,6.6-8.6,10.5-12.2c7.8-7.4,16.5-13.3,24.3-20l5.9-4.9c2-1.6,3.9-3.4,5.8-5.1s3.7-3.5,5.5-5.4s3.5-3.7,5.2-5.6
		s3.2-3.9,4.8-5.9s3-4.1,4.4-6.2s2.7-4.2,3.9-6.4s2.3-4.5,3.3-6.8c1-2.3,1.8-4.6,2.6-7c0.4-1.1,0.6-2.4,0.9-3.6s0.6-2.4,0.8-3.7
		s0.4-2.5,0.6-3.7s0.4-2.5,0.5-3.7c0.3-2.5,0.5-5,0.6-7.5c0.4-10-0.9-20-3.8-29.5c-1.5-4.7-3.4-9.3-5.8-13.7
		c-2.3-4.4-5.2-8.5-8.4-12.2c-3.2-3.8-6.9-7.1-10.9-10c-4-2.9-8.4-5.3-13-7.2c-9.2-3.8-19.2-5.5-29.2-5c-2.5,0.1-5,0.4-7.4,0.8
		c-7.4,1.2-14.4,3.8-20.8,7.7c-4.2,2.6-8,5.8-11.2,9.6c-3.2,3.7-5.8,7.9-7.7,12.5c-1.9,4.6-2.8,9.5-2.6,14.4
		c0.3,4.9,1.7,9.7,4.3,13.9c5.4,8.6,14.4,14.2,24.5,15.2c5,0.5,10.1-0.2,14.8-2c4.7-1.8,8.8-5,11.6-9.1l1.1,1.7
		c-3.8,0.5-7.7,0.4-11.5-0.2c-3.8-0.7-7.5-2-10.9-4c-1.7-1-3.2-2.2-4.6-3.6c-1.5-1.4-2.7-2.9-3.7-4.7C74.5,78,74,76,74,73.9
		c0.1-1.1,0.3-2.1,0.7-3.1c0.4-1,0.8-1.9,1.4-2.7c1.1-1.6,2.4-3.1,3.9-4.4c0.4-0.3,0.7-0.6,1.1-0.9s0.8-0.6,1.2-0.9
		c0.8-0.5,1.7-1,2.6-1.5c3.6-1.7,7.4-2.7,11.3-3c1-0.1,1.9-0.1,2.9-0.1s1.9-0.1,2.9,0l2.9,0.3c1,0.1,1.9,0.2,2.9,0.4
		c3.8,0.7,7.6,1.9,11.1,3.6c3.6,1.7,6.8,4,9.7,6.7c1.5,1.4,2.8,2.9,4,4.4c0.6,0.8,1.2,1.7,1.7,2.5s1,1.6,1.5,2.5
		c3.7,7,5.9,14.6,6.4,22.5c0.1,1.9,0.2,3.9,0.2,5.8c0,1,0,1.9-0.1,2.9s-0.1,2-0.2,2.9l-0.3,2.9c-0.1,0.9-0.3,1.9-0.5,2.9l-0.3,1.5
		c-0.1,0.5-0.3,1-0.4,1.4l-0.8,2.9c-0.1,0.5-0.3,0.9-0.5,1.4l-0.6,1.4l-1.1,2.8c-0.8,1.8-1.7,3.5-2.7,5.2c-1.9,3.3-4,6.6-6.3,9.7
		c-1.1,1.6-2.3,3.1-3.5,4.6s-2.5,2.9-3.7,4.3l-3.7,4.3c-1.2,1.5-2.6,2.8-3.9,4.2l-3.8,4.1l-2,2.1l-2,2l-7.9,8
		c-5.2,5.2-10,10.8-14.3,16.7c-2.1,2.9-4,6-5.7,9.2c-1.7,3.2-3,6.5-4.2,9.9c-4.5,13.7-2.8,29,4,42c3.3,6.5,7.7,12.4,13,17.4
		c2.6,2.5,5.7,4.6,9.1,6c1.7,0.7,3.4,1.2,5.2,1.5c0.9,0.1,1.8,0.2,2.7,0.2c0.5,0,0.9,0,1.4,0c0.2,0,0.4,0,0.6,0
		C110.2,280.5,110.4,280.6,110.6,280.6z"/>
	<path class="st0" d="M95.7,255.1c-0.1-0.2-0.2-0.5-0.2-0.8c0-0.1,0.1-0.3,0.1-0.5c0-0.1,0-0.3,0-0.4c-0.1-0.5-0.3-1.1-0.4-1.6
		c-0.2-1.1-0.4-2.2-0.6-3.2c-0.3-2.2-0.4-4.4-0.4-6.6c0-4.4,0.7-8.8,2-13.1c0.6-2.1,1.4-4.2,2.3-6.2c0.4-1,1-2,1.5-3l0.8-1.5
		l0.9-1.4c2.2-3.8,4.9-7.3,8-10.5c6.1-6.5,13.5-11.6,21.7-15c2.1-0.8,4.2-1.5,6.4-2.1c2.2-0.5,4.4-0.9,6.7-1.1
		c4.6-0.5,9.2-0.1,13.6,1.2c4.4,1.2,8.5,3.3,12.1,6.1c0.9,0.7,1.8,1.5,2.6,2.3c0.8,0.8,1.6,1.6,2.3,2.5c1.4,1.8,2.6,3.7,3.6,5.7
		c2,4,3.2,8.3,3.5,12.8c0.4,4.4-0.2,8.8-1.7,13c-1.5,4.2-4.1,7.9-7.5,10.7c-0.4,0.3-0.9,0.7-1.3,1l-1.4,0.9
		c-0.5,0.3-0.9,0.5-1.4,0.8s-1,0.5-1.5,0.7c-2.1,0.9-4.3,1.4-6.5,1.5c-4.6,0.2-9.1-1.2-12.6-4.1c-3.7-2.9-6.1-7-7-11.6l-0.8-4.4
		l3.7,2.7c1.4,1,2.9,1.9,4.4,2.7c1.5,0.7,3.1,1.2,4.7,1.4c1.5,0.2,2.9,0,4.3-0.5c0.6-0.3,1.2-0.6,1.7-1.1c0.1-0.1,0.2-0.2,0.3-0.3
		l0.5-0.5c0.4-0.4,0.5-0.6,0.8-1l-0.1,0.2l0.6-1c0.1-0.2,0.2-0.3,0.3-0.5l0.3-0.4c0.3-0.7,0.5-1.5,0.6-2.2c0.1-0.8,0.2-1.6,0.2-2.4
		c0-0.4,0-0.8-0.1-1.3c0-0.4-0.1-0.8-0.1-1.2c-0.1-0.8-0.3-1.6-0.6-2.3c-0.3-0.7-0.6-1.5-1-2.1c-0.4-0.7-0.8-1.3-1.3-1.9
		c-0.2-0.3-0.5-0.5-0.8-0.8c-0.3-0.3-0.6-0.6-1-0.8l0.4,0.3c-6.7-4.9-15.7-2.4-23.2,1.8c-3.8,2.2-7.3,4.9-10.5,7.9
		c-3.1,3-5.8,6.4-7.8,10.2c-0.5,0.9-0.9,1.9-1.3,2.9c-0.4,1-0.7,2-1,3c-0.6,2-0.9,4-0.9,6.1c-0.1,4.2,0.8,8.3,2.6,12.1
		c0.4,1,0.9,1.9,1.5,2.9c0.3,0.5,0.5,1,0.8,1.4s0.5,0.9,0.8,1.3c1.1,1.7,2.5,3.2,4,4.5c1.6,1.3,3.4,2.3,5.3,3
		c2.1,0.8,4.2,1.4,6.4,1.9h0.1l5.8,1.5L136,278c-3.9,2.7-8.6,4-13.4,3.8c-2.3-0.1-4.7-0.6-6.9-1.4c-2.2-0.8-4.2-1.9-6.1-3.3
		c-1.8-1.4-3.5-2.9-4.9-4.6c-1.4-1.7-2.7-3.5-3.8-5.4C98.6,263.4,96.9,259.4,95.7,255.1l4.1-1.1c1.1,3.8,2.8,7.4,4.9,10.8
		c1,1.7,2.2,3.2,3.5,4.7c1.3,1.4,2.7,2.7,4.2,3.8c1.5,1.1,3.2,1.9,4.9,2.5c1.7,0.6,3.5,1,5.4,1c3.6,0.1,7.2-1,10.1-3.1l1,4.9h-0.1
		c-2.5-0.3-4.9-0.8-7.3-1.5c-2.6-0.8-5-2-7.2-3.5c-2.2-1.6-4.1-3.5-5.6-5.7c-0.4-0.5-0.8-1.1-1.1-1.6s-0.7-1.1-1-1.6
		c-0.6-1.1-1.2-2.2-1.8-3.4c-2.3-4.7-3.5-10-3.4-15.2c0.1-2.6,0.5-5.3,1.2-7.8c0.3-1.3,0.8-2.5,1.3-3.7c0.5-1.2,1-2.3,1.6-3.5
		c2.4-4.5,5.5-8.6,9.1-12.1c3.6-3.5,7.7-6.5,12.1-8.9c4.5-2.6,9.4-4.2,14.5-4.9c2.7-0.3,5.4-0.2,8.1,0.4c1.4,0.3,2.7,0.8,4,1.4
		c0.6,0.3,1.2,0.7,1.8,1l0.9,0.5l0.7,0.5l0.3,0.2l0.1,0.1c0.4,0.4,0.8,0.7,1.2,1.1c0.4,0.4,0.8,0.9,1.2,1.4c0.7,0.9,1.4,1.9,1.9,3
		c0.5,1,1,2.1,1.3,3.2c0.3,1.1,0.6,2.2,0.7,3.3c0.1,0.6,0.1,1.1,0.1,1.7c0,0.5,0,1.1,0,1.7c-0.1,1.1-0.2,2.3-0.4,3.4
		c-0.3,1.1-0.6,2.3-1.1,3.3c-0.1,0.3-0.3,0.5-0.4,0.8c-0.1,0.3-0.3,0.5-0.5,0.7l-1,1.4l-0.1,0.1l-0.1,0.1c-0.4,0.4-0.8,0.9-1.1,1.1
		l-0.5,0.5c-0.2,0.2-0.5,0.4-0.7,0.6c-1,0.7-2,1.3-3.2,1.7c-2.2,0.7-4.5,0.8-6.7,0.3c-2-0.4-4-1.2-5.8-2.2c-1.7-1-3.3-2.1-4.9-3.4
		l2.9-1.7c0.2,1.9,0.8,3.7,1.6,5.4c0.9,1.7,2.1,3.2,3.6,4.5c3,2.6,6.8,4,10.8,3.9c2-0.1,3.9-0.5,5.8-1.2c0.5-0.2,0.9-0.4,1.3-0.6
		s0.9-0.5,1.3-0.8l1.3-0.8c0.4-0.3,0.8-0.6,1.2-0.9c1.5-1.3,2.9-2.8,4-4.4c1.1-1.7,2-3.5,2.6-5.4c2.5-7.7,1-16.4-3-23.2
		c-1-1.7-2.2-3.3-3.6-4.7c-0.7-0.7-1.4-1.4-2.1-2c-0.7-0.6-1.5-1.2-2.3-1.7c-3.3-2.2-6.9-3.7-10.7-4.6c-3.8-0.8-7.7-1-11.5-0.5
		c-1.9,0.2-3.9,0.6-5.8,1.1c-1.9,0.5-3.8,1.1-5.6,1.8c-7.4,3.1-14.2,7.5-19.9,13.2c-2.9,2.8-5.5,5.8-7.8,9.2l-0.9,1.2l-0.8,1.3
		c-0.5,0.9-1,1.7-1.5,2.6c-0.9,1.8-1.7,3.6-2.4,5.5c-1.4,3.8-2.2,7.8-2.4,11.8c-0.1,2,0,4,0.1,6c0.1,1,0.2,2,0.4,3
		c0.1,0.5,0.2,1,0.3,1.5c0,0.1,0.1,0.3,0.1,0.4c0.1,0.1,0.2,0.2,0.3,0.3c0.2,0.2,0.3,0.5,0.2,0.7L95.7,255.1z"/>
	<path class="st0" d="M121.2,267.6l15.5,0.7c1.3,0.1,2.6,0.1,3.9,0.1c1.3-0.2,2.6-0.2,3.9-0.1c0.7,0.1,1.3,0.4,1.9,0.6
		c0.3,0.1,0.6,0.2,0.9,0.2l1,0.1l3.8,0.5c5.1,0.8,10.3,1.6,15.4,2.8c2.6,0.6,5.1,1.4,7.6,2.3c2.5,0.9,4.9,2.2,6.9,4l-0.4,0.5
		c-2.2-1.2-4.6-2-7.1-2.3c-2.5-0.5-5-0.7-7.5-1c-5.1-0.4-10.2-0.6-15.3-0.8l-3.9-0.2h-1c-0.3-0.1-0.7-0.1-1,0
		c-0.6,0.2-1.3,0.3-1.9,0.3c-1.3,0-2.6-0.3-3.8-0.7c-1.3-0.2-2.5-0.3-3.8-0.4c-5.1-0.4-10.2-0.6-15.3-0.6L121.2,267.6z"/>
	<path class="st0" d="M96,270.3c0-0.4,0-1,0.1-1.1v-0.4v-0.2c0-0.1,0-0.1,0.1-0.1h0.1l0.3-0.1l0.6-0.2l1.3-0.5
		c0.8-0.3,1.7-0.5,2.6-0.6c0.8-0.1,1.7-0.2,2.5-0.1c0.4,0,0.8,0,1.2,0.1c0.2,0,0.4-0.1,0.6,0.3c0.1,0.1,0.1,0.2,0.1,0.3
		c0.1,0.1,0.1,0.3,0.1,0.5l0.1,0.3l0.1,0.4c0.1,0.2,0.1,0.5,0.2,0.9v1.8c-0.1,0.4-0.1,0.6-0.2,0.9l-0.1,0.4l-0.1,0.3
		c0,0.2-0.1,0.3-0.2,0.5c0,0.1-0.1,0.2-0.2,0.3c-0.2,0.3-0.4,0.2-0.7,0.2c-0.4,0-0.9,0-1.3,0c-0.9,0-1.7-0.1-2.5-0.3
		c-0.8-0.2-1.7-0.5-2.5-0.8l-1.2-0.5l-0.6-0.2l-0.3-0.1h-0.1c0,0,0,0-0.1-0.1v-0.2v-0.4C96.1,271.3,96.1,270.7,96,270.3z"/>
	<path class="st0" d="M38.9,278.7c0.1-0.7,0.4-1.3,0.8-1.8c0.4-0.5,0.8-0.9,1.3-1.3c0.9-0.7,1.9-1.3,2.9-1.7c2-0.9,4-1.7,6.1-2.3
		c4.1-1.2,8.3-2,12.5-2.6c4.2-0.6,8.4-1,12.6-1.4l3.1-0.2l1.6-0.1l0.8,0c0.1,0,0.3,0,0.4,0c0.1,0,0.2-0.1,0.4-0.1
		c1-0.4,2.1-0.5,3.1-0.2c1.1,0.4,2.1,0,3.2,3.2v1.2c-0.9,3.3-2,2.9-3,3.4c-1,0.3-2.1,0.3-3.1,0l-0.4-0.1c-0.1,0-0.3,0-0.4,0h-0.8
		h-1.6l-3.1,0.1l-12.4,0.5c-4.1,0.2-8.2,0.4-12.3,0.8c-2,0.2-4,0.5-6,0.8c-0.9,0.2-1.9,0.5-2.8,0.8c-0.8,0.2-1.5,0.8-2,1.5
		L38.9,278.7z"/>
</g>
</svg>
