<svg version="1.2" xmlns="http://www.w3.org/2000/svg" viewBox="0 0 159 168" width="159" height="168">
	<title>track_1-svg</title>
	<defs>
		<clipPath clipPathUnits="userSpaceOnUse" id="cp1">
			<path d="m50.5 5.5q18.46-0.83 24.5 17 7.06 21.41 6 44 4.71-17.12 13-33 15.63-27.05 43.5-13.5 10.04 8.34 10 21.5-2.68 21.86-17.5 38-6.8 7.3-14.5 13.5-17.75 12.75-35.5 25.5-2.5 5-5 10-1.72 11.42-2 23-4.14 5.11-9 1-6.7-17.11-11-35-2.72-5.34-5-11-19.99-23.95-34-52-4.97-12.9-7.5-26.5 1.53-11.3 12-6 12.18 6.68 19.5 18.5 1.34-13.87 6-27 1.96-5.19 6.5-8zm-3 29.5q0.61-5.77 1.5-11.5 1.19-3.13 3.5-5.5 6.98-1.79 12.5 2.5 10.49 22.17 7.5 46.5 1.42 0.93 2.5-0.5 1.81-18.78-3-37-2.74-10.74-10.5-18.5-5.05-4.61-10.5-0.5-7.12 12.61-8.5 27 0.72 10.73 7 19-0.75-10.76-2-21.5zm81.5 38.5q15.09-17.28 12-40-1.21-4.42-4-8-14.98-13.67-30.5-0.5-14.57 18.67-20 42 0.2 1.59 1.5 2.5 5.98-12.95 12-26 3.25-3.25 6.5-6.5 9.37-5.47 15.5 3.5 2.4 12.08-4 23-7.4 12.3-17 23-0.63 6.65-2.5 13 17.2-10.43 30.5-26zm-77-44q-1.48 26.1 9 50 3.55-5.53 7-11 1-13.5 0-27-1.2-9.61-6-18-2.99-2.12-6.5-3-3.32 3.8-3.5 9zm-28 29q-3.3-6.14-4.5-13 1.04-6.98 8-4.5 6.62 3.62 11.5 9.5-4.76-10.33-13.5-18.5-5.67-5.33-13-7.5 0.37 13.47 5.5 26 9.36 19.23 21 37 1.31 3.2 4.5 4-9.72-16.42-19.5-33zm80-12q-5.87 11.99-10.5 24.5 4.18 4.6 6.5 10.5 6.5-9.5 13-19 6.02-9.74 4-21-1.39-3.8-5.5-3-4.46 3.21-7.5 8zm-50 51q0.75-1.5 1.5-3-7.02-18.54-16.5-36-5.1-9.36-14.5-14 11.24 28.48 29.5 53zm12-5q5.72-10.71 17.5-7.5 3.34 2.43 4 6.5-0.94 8.58-7 14.5-9.2 4.85-18 10.5-1.58-0.27-3-1-1.14 5.61 1.5 11 0.56-1.37 1.5-2.5 14.08-8.08 26.5-18.5 2.88-4.26 5-9 4.13-10.99-3-20-1.34 1.82-2.5 0-1.12-1.85-1-4-11.47-3.82-19.5 5-5.45 8.85-8 19-0.83 3.58 0.5 7 2.68-5.36 5.5-11zm-1 18q8.29-3.78 14-11 3.65-5.91-2.5-9-7.75 9.01-11.5 20zm1.5 18.5q0.63 3.28 1.5 6.5 1.02-4.58 2.5-9-0.69-1.2-2-1-1.46 1.35-2 3.5z"/>
		</clipPath>
	</defs>
	<style>
		.s0 { opacity: .4;fill: #000000 } 
	</style>
	<g>
		<g clip-path="url(#cp1)">
			<path fill-rule="evenodd" class="s0" d="m50.5 5.5q18.5-0.8 24.5 17 7.1 21.4 6 44 4.7-17.1 13-33 15.6-27 43.5-13.5 10 8.3 10 21.5-2.7 21.9-17.5 38-6.8 7.3-14.5 13.5-17.7 12.8-35.5 25.5-2.5 5-5 10-1.7 11.4-2 23-4.1 5.1-9 1-6.7-17.1-11-35-2.7-5.3-5-11-20-23.9-34-52-5-12.9-7.5-26.5 1.5-11.3 12-6 12.2 6.7 19.5 18.5 1.3-13.9 6-27 2-5.2 6.5-8zm-3 29.5q0.6-5.8 1.5-11.5 1.2-3.1 3.5-5.5 7-1.8 12.5 2.5 10.5 22.2 7.5 46.5 1.4 0.9 2.5-0.5 1.8-18.8-3-37-2.7-10.7-10.5-18.5-5.1-4.6-10.5-0.5-7.1 12.6-8.5 27 0.7 10.7 7 19-0.8-10.8-2-21.5zm81.5 38.5q15.1-17.3 12-40-1.2-4.4-4-8-15-13.7-30.5-0.5-14.6 18.7-20 42 0.2 1.6 1.5 2.5 6-13 12-26 3.3-3.3 6.5-6.5 9.4-5.5 15.5 3.5 2.4 12.1-4 23-7.4 12.3-17 23-0.6 6.6-2.5 13 17.2-10.4 30.5-26zm-77-44q-1.5 26.1 9 50 3.5-5.5 7-11 1-13.5 0-27-1.2-9.6-6-18-3-2.1-6.5-3-3.3 3.8-3.5 9zm-28 29q-3.3-6.1-4.5-13 1-7 8-4.5 6.6 3.6 11.5 9.5-4.8-10.3-13.5-18.5-5.7-5.3-13-7.5 0.4 13.5 5.5 26 9.4 19.2 21 37 1.3 3.2 4.5 4-9.7-16.4-19.5-33zm80-12q-5.9 12-10.5 24.5 4.2 4.6 6.5 10.5 6.5-9.5 13-19 6-9.7 4-21-1.4-3.8-5.5-3-4.5 3.2-7.5 8zm-50 51q0.8-1.5 1.5-3-7-18.5-16.5-36-5.1-9.4-14.5-14 11.2 28.5 29.5 53zm12-5q5.7-10.7 17.5-7.5 3.3 2.4 4 6.5-0.9 8.6-7 14.5-9.2 4.9-18 10.5-1.6-0.3-3-1-1.1 5.6 1.5 11 0.6-1.4 1.5-2.5 14.1-8.1 26.5-18.5 2.9-4.3 5-9 4.1-11-3-20-1.3 1.8-2.5 0-1.1-1.9-1-4-11.5-3.8-19.5 5-5.5 8.9-8 19-0.8 3.6 0.5 7 2.7-5.4 5.5-11zm-1 18q8.3-3.8 14-11 3.6-5.9-2.5-9-7.7 9-11.5 20zm1.5 18.5q0.6 3.3 1.5 6.5 1-4.6 2.5-9-0.7-1.2-2-1-1.5 1.3-2 3.5z"/>
			<rect width="159" height="168" id="Color Fill 1" style="fill: #9a5c38"/>
		</g>
	</g>
</svg>