<svg version="1.2" xmlns="http://www.w3.org/2000/svg" viewBox="0 0 622 991" width="622" height="991">
	<title>track_2-svg</title>
	<defs>
		<clipPath clipPathUnits="userSpaceOnUse" id="cp1">
			<path d="m267.5 678.5q-0.38 2.5-2 4.5 2.5 1 5 0 1.58-2.08 4-3-1.55-4.31-6-4.5-0.3-25.04-12-47 1-1 2-2-4.58-8.98-6.5-19-6.7-35.38-12-71-9.75-38.25-19.5-76.5 0.97-2.16 1-4.5 1.58 0.22 3-0.5-21.38-84.15-60.5-161.5-13.76-22.51-26-46-45.37-76.25-93-151-8.62-13.33-8-29 0.7-2.15 2.5-3.5 25.28-6.51 47 8 37.21 29.69 61.5 70.5 26.71 49.43 47 102 20.11 53.32 39 107 12.8 43.91 25 88 3.22 7.44 8 14-1.07-87.36 10-174 9.27-66.6 34-129 17.29-38.35 47.5-67.5 15.3-9.92 33-5 5.06 5.17 5.5 12.5-0.09 40.56-10 80-5.53 24.12-12 48-9.16 26.48-17 53 31.69-60.19 78.5-109.5 25.12-25.59 59-38 19.88-5.48 40.5-4.5 15.42-0.47 30.5 2.5 18.54 7.29 17 27.5-1.52 19.31-9.5 37-12.7 28.4-30 54-25.62 33.76-49 69-15.75 18.75-31.5 37.5 18.78-9.12 39-16 49.05-13.41 43.5 36.5-4.68 18.16-16 33-31.53 44.53-78.5 72.5-31.07 24.58-63 48-22.53 17.02-42 37.5-10.96 14.71-22.5 29-9.06 15.38-18.5 30.5 1.65 3.6 0.5 7.5-4.68 9.06-7 19-0.32 13.58-0.5 27 1.58-0.22 3 0.5 4.31 5.37 7.5 11.5 7.34 6.79 15.5 12.5 21.11 4.04 40 14 14.28 17.79 27.5 36.5 11.27 20.87 11.5 44.5-2.53 25.39-11 49.5-1.58-0.22-3 0.5-17.28 20.29-40 34-2.08 4.68-4 9.5-5.99 4.12-13 6 6.63 9.75 12.5 20 8.18 19.82-13 17-15.14 0.52-28.5-6.5-5.25-3.25-8.5-8.5 0.04 16.87-9.5 30.5-31.13 13.81-25-19.5-0.18-14.84 2-29.5-0.5-1.25-1-2.5-41.08-16.84-66.5-53-11.99-21.7-10.5-46.5-1.88-49.65 34-83.5 10.93-10.69 24-18.5 14.08-2.54 25-11.5zm-55.5-335q-24.82-68.47-52-136-17.02-40.55-41-77-22.6-32.92-55.5-55.5-3.84-2.44-8-3-0.5 0.5-1 1 4.6 12.82 11.5 24.5 43.63 67.74 85 137 32.46 52.93 57 110 10.64 30.19 21.5 60-7.58-30.8-17.5-61zm150-241q-40.2 51.47-54 116-23.86 102.11-23 207 28.11-83.82 58-167 18.47-50.37 29-103 7.16-31.14 7-63-0.18-2.91-2.5-4-7.41 6.65-14.5 14zm127.5 37.5q-32.27 21.27-57 51-4.82 2.78-10 5-4.75 6.75-9.5 13.5-53.31 86.84-95 180-14.93 37.23-28.5 75 0.31 0.88 1 1.5-4.23 8.55 4 13.5 1.69 8.5 0 17-6.5 0-13 0 0.75 23.52 2.5 47 2.78-12.6 6-25 61.61-75.63 130-146 67.67-75.85 123-161 13.36-23.22 21-49 9.02-38.25-30.5-36-23.23 2.07-44 13.5zm35 199q-5.09-2.53-10-0.5 5.08 0.2 10 0.5zm-222.5 209.5q0.48 4.44 0 9-8.06 13.76-4 29-1.25 3.25-4.5 4.5 1.37 0.56 2.5 1.5 4.26-3.77 7.5-8.5 6.77-1.58 11.5-6.5 14.43-19.62 28.5-39.5 41.79-35.8 87-67 47.69-38.69 87.5-85.5 6.45-9.6 8.5-21-5.51-23.27-29-17.5-28.97 8.72-51 29-27.89 28.63-53 59.5-33.78 33.27-61 72-0.17-0.93-1-1.5 5.64-9.04 10-18.5-21.96 28.87-39.5 61zm-55-75q9.17 1.96 18.5 0-3.54-1.16-7-2.5-11.33-10.44-17-24.5 2.84 13.46 5.5 27zm7.5 17.5q3.35 46.05 11.5 91.5-0.73-49.99-2-100-4.08-1.42-8.5-1-0.94 4.62-1 9.5zm87-3.5q3.48-1.95 4-6-2.74 2.47-4 6zm-57.5 162q2.18-10.32 4.5-20.5-4.47-0.75-9-0.5 1 10.78 4.5 21zm-27.5 47.5q-12.91 13.04-25.5 26.5-28.41 31.19-32.5 73.5 2.64 18.92 13.5 34.5-3.89-55.44 26-102 12.96-18.7 27.5-36-4.76 1-9 3.5zm4.5 29.5q-11.4 15.27-19 33-17.55 39.62-9 82 10.73 30.82 42.5 26.5 3.12 4.86 4.5 10.5 44.04-12.04 56-56 3.03-24.23-3-48-4.27-16.57-9-33-5.4-18.24-16.5-33.5-11.18-6.59-23-11.5-11.39 15.16-23.5 30zm94 74q4.4 44.61-30.5 72 9.54-3.02 18-8.5 21.77-14.27 36.5-35.5 5.11-9.95 7-21 2.09-28.47-11-54-15.93-21.19-39.5-33 14.93 38.71 19.5 80zm-41.5 94q-3.36-1.46-7-1 3.41 17.36 20 23-5.22-11.73-13-22zm19-387q-0.86 2.21-2.5 4-1.36-3.67 2.5-4zm-83 145q1.5 0 3 0 0.27 4.58 0.5 9-5.35 6.4-5.5-1.5-0.13-4.12 2-7.5zm18 26q-0.2-1.11 0.5-2 1.04 1.4-0.5 2z"/>
		</clipPath>
	</defs>
	<style>
		.s0 { opacity: .4;fill: #000000 } 
	</style>
	<g clip-path="url(#cp1)">
		<path fill-rule="evenodd" class="s0" d="m267.5 678.5q-0.4 2.5-2 4.5 2.5 1 5 0 1.6-2.1 4-3-1.5-4.3-6-4.5-0.3-25-12-47 1-1 2-2-4.6-9-6.5-19-6.7-35.4-12-71-9.8-38.3-19.5-76.5 1-2.2 1-4.5 1.6 0.2 3-0.5-21.4-84.1-60.5-161.5-13.8-22.5-26-46-45.4-76.3-93-151-8.6-13.3-8-29 0.7-2.1 2.5-3.5 25.3-6.5 47 8 37.2 29.7 61.5 70.5 26.7 49.4 47 102 20.1 53.3 39 107 12.8 43.9 25 88 3.2 7.4 8 14-1.1-87.4 10-174 9.3-66.6 34-129 17.3-38.3 47.5-67.5 15.3-9.9 33-5 5.1 5.2 5.5 12.5-0.1 40.6-10 80-5.5 24.1-12 48-9.2 26.5-17 53 31.7-60.2 78.5-109.5 25.1-25.6 59-38 19.9-5.5 40.5-4.5 15.4-0.5 30.5 2.5 18.5 7.3 17 27.5-1.5 19.3-9.5 37-12.7 28.4-30 54-25.6 33.8-49 69-15.8 18.8-31.5 37.5 18.8-9.1 39-16 49.1-13.4 43.5 36.5-4.7 18.2-16 33-31.5 44.5-78.5 72.5-31.1 24.6-63 48-22.5 17-42 37.5-11 14.7-22.5 29-9.1 15.4-18.5 30.5 1.7 3.6 0.5 7.5-4.7 9.1-7 19-0.3 13.6-0.5 27 1.6-0.2 3 0.5 4.3 5.4 7.5 11.5 7.3 6.8 15.5 12.5 21.1 4 40 14 14.3 17.8 27.5 36.5 11.3 20.9 11.5 44.5-2.5 25.4-11 49.5-1.6-0.2-3 0.5-17.3 20.3-40 34-2.1 4.7-4 9.5-6 4.1-13 6 6.6 9.7 12.5 20 8.2 19.8-13 17-15.1 0.5-28.5-6.5-5.2-3.3-8.5-8.5 0 16.9-9.5 30.5-31.1 13.8-25-19.5-0.2-14.8 2-29.5-0.5-1.3-1-2.5-41.1-16.8-66.5-53-12-21.7-10.5-46.5-1.9-49.6 34-83.5 10.9-10.7 24-18.5 14.1-2.5 25-11.5zm-55.5-335q-24.8-68.5-52-136-17-40.5-41-77-22.6-32.9-55.5-55.5-3.8-2.4-8-3-0.5 0.5-1 1 4.6 12.8 11.5 24.5 43.6 67.7 85 137 32.5 52.9 57 110 10.6 30.2 21.5 60-7.6-30.8-17.5-61zm150-241q-40.2 51.5-54 116-23.9 102.1-23 207 28.1-83.8 58-167 18.5-50.4 29-103 7.2-31.1 7-63-0.2-2.9-2.5-4-7.4 6.7-14.5 14zm127.5 37.5q-32.3 21.3-57 51-4.8 2.8-10 5-4.8 6.8-9.5 13.5-53.3 86.8-95 180-14.9 37.2-28.5 75 0.3 0.9 1 1.5-4.2 8.5 4 13.5 1.7 8.5 0 17-6.5 0-13 0 0.8 23.5 2.5 47 2.8-12.6 6-25 61.6-75.6 130-146 67.7-75.9 123-161 13.4-23.2 21-49 9-38.2-30.5-36-23.2 2.1-44 13.5zm35 199q-5.1-2.5-10-0.5 5.1 0.2 10 0.5zm-222.5 209.5q0.5 4.4 0 9-8.1 13.8-4 29-1.2 3.3-4.5 4.5 1.4 0.6 2.5 1.5 4.3-3.8 7.5-8.5 6.8-1.6 11.5-6.5 14.4-19.6 28.5-39.5 41.8-35.8 87-67 47.7-38.7 87.5-85.5 6.4-9.6 8.5-21-5.5-23.3-29-17.5-29 8.7-51 29-27.9 28.6-53 59.5-33.8 33.3-61 72-0.2-0.9-1-1.5 5.6-9 10-18.5-22 28.9-39.5 61zm-55-75q9.2 2 18.5 0-3.5-1.2-7-2.5-11.3-10.4-17-24.5 2.8 13.5 5.5 27zm7.5 17.5q3.3 46 11.5 91.5-0.7-50-2-100-4.1-1.4-8.5-1-0.9 4.6-1 9.5zm87-3.5q3.5-2 4-6-2.7 2.5-4 6zm-57.5 162q2.2-10.3 4.5-20.5-4.5-0.7-9-0.5 1 10.8 4.5 21zm-27.5 47.5q-12.9 13-25.5 26.5-28.4 31.2-32.5 73.5 2.6 18.9 13.5 34.5-3.9-55.4 26-102 13-18.7 27.5-36-4.8 1-9 3.5zm4.5 29.5q-11.4 15.3-19 33-17.5 39.6-9 82 10.7 30.8 42.5 26.5 3.1 4.9 4.5 10.5 44-12 56-56 3-24.2-3-48-4.3-16.6-9-33-5.4-18.2-16.5-33.5-11.2-6.6-23-11.5-11.4 15.2-23.5 30zm94 74q4.4 44.6-30.5 72 9.5-3 18-8.5 21.8-14.3 36.5-35.5 5.1-9.9 7-21 2.1-28.5-11-54-15.9-21.2-39.5-33 14.9 38.7 19.5 80zm-41.5 94q-3.4-1.5-7-1 3.4 17.4 20 23-5.2-11.7-13-22zm19-387q-0.9 2.2-2.5 4-1.4-3.7 2.5-4zm-83 145q1.5 0 3 0 0.3 4.6 0.5 9-5.3 6.4-5.5-1.5-0.1-4.1 2-7.5zm18 26q-0.2-1.1 0.5-2 1 1.4-0.5 2z"/>
		<rect width="622" height="991" id="Color Fill 1" style="fill: #9a5c38"/>
	</g>
</svg>