<?xml version="1.0" encoding="UTF-8"?>
<!DOCTYPE svg PUBLIC "-//W3C//DTD SVG 1.1//EN" "http://www.w3.org/Graphics/SVG/1.1/DTD/svg11.dtd">
<svg  xmlns="http://www.w3.org/2000/svg" version="1.1" width="159px" height="168px" style="shape-rendering:geometricPrecision; text-rendering:geometricPrecision; image-rendering:optimizeQuality; fill-rule:evenodd; clip-rule:evenodd"  xmlns:xlink="http://www.w3.org/1999/xlink">
<g><path style="opacity:0.401" fill="#000000" d="M 50.5,5.5 C 62.808,4.9461 70.9746,10.6128 75,22.5C 79.7096,36.7744 81.7096,51.4411 81,66.5C 84.1409,55.086 88.4742,44.086 94,33.5C 104.42,15.4693 118.92,10.9693 137.5,20C 144.191,25.5578 147.524,32.7245 147.5,41.5C 145.712,56.0736 139.878,68.7403 130,79.5C 125.468,84.3671 120.634,88.8671 115.5,93C 103.667,101.5 91.8333,110 80,118.5C 78.3333,121.833 76.6667,125.167 75,128.5C 73.8544,136.115 73.1877,143.782 73,151.5C 70.2418,154.908 67.2418,155.241 64,152.5C 59.5318,141.095 55.8651,129.428 53,117.5C 51.1864,113.938 49.5197,110.271 48,106.5C 34.6765,90.5337 23.3432,73.2004 14,54.5C 10.6885,45.8985 8.18848,37.0652 6.5,28C 7.51938,20.4673 11.5194,18.4673 18.5,22C 26.6177,26.4508 33.1177,32.6175 38,40.5C 38.8953,31.2523 40.8953,22.2523 44,13.5C 45.3046,10.0386 47.4713,7.37197 50.5,5.5 Z M 49.5,56.5 C 45.311,50.9837 42.9777,44.6504 42.5,37.5C 43.42,27.9063 46.2533,18.9063 51,10.5C 54.633,7.75931 58.133,7.92598 61.5,11C 66.6727,16.1744 70.1727,22.3411 72,29.5C 75.2039,41.6475 76.2039,53.9809 75,66.5C 74.2825,67.4506 73.4491,67.6172 72.5,67C 74.4913,50.7807 71.9913,35.2807 65,20.5C 61.3186,17.6403 57.1519,16.8069 52.5,18C 50.9588,19.5793 49.7922,21.4127 49,23.5C 48.4065,27.3213 47.9065,31.1546 47.5,35C 48.3325,42.1574 48.9991,49.3241 49.5,56.5 Z M 98.5,99.5 C 99.7486,95.2665 100.582,90.9331 101,86.5C 107.399,79.3675 113.065,71.7008 118,63.5C 122.268,56.2209 123.601,48.5542 122,40.5C 117.913,34.5197 112.746,33.353 106.5,37C 104.333,39.1667 102.167,41.3333 100,43.5C 95.9835,52.1973 91.9835,60.864 88,69.5C 87.1301,68.8921 86.6301,68.0588 86.5,67C 90.1175,51.446 96.7842,37.446 106.5,25C 116.847,16.2201 127.014,16.3867 137,25.5C 138.861,27.8877 140.194,30.5544 141,33.5C 143.062,48.6485 139.062,61.9819 129,73.5C 120.136,83.8767 109.97,92.5434 98.5,99.5 Z M 55.5,20.5 C 57.8398,21.086 60.0065,22.086 62,23.5C 65.1983,29.0949 67.1983,35.0949 68,41.5C 68.6667,50.5 68.6667,59.5 68,68.5C 65.6976,72.1461 63.3643,75.8128 61,79.5C 54.0133,63.5652 51.0133,46.8985 52,29.5C 52.1174,26.0365 53.2841,23.0365 55.5,20.5 Z M 43.5,91.5 C 41.3763,90.9688 39.8763,89.6355 39,87.5C 31.2408,75.6539 24.2408,63.3206 18,50.5C 14.5782,42.1492 12.7449,33.4826 12.5,24.5C 17.3879,25.9469 21.7213,28.4469 25.5,32C 31.3254,37.4486 35.8254,43.6152 39,50.5C 35.7492,46.5783 31.9159,43.4117 27.5,41C 22.8593,39.3487 20.1926,40.8487 19.5,45.5C 20.3022,50.0731 21.8022,54.4065 24,58.5C 30.523,69.5552 37.023,80.5552 43.5,91.5 Z M 111.5,38.5 C 114.238,37.9648 116.072,38.9648 117,41.5C 118.348,49.0059 117.014,56.0059 113,62.5C 108.667,68.8333 104.333,75.1667 100,81.5C 98.4532,77.5643 96.2866,74.0643 93.5,71C 96.5869,62.6592 100.087,54.4926 104,46.5C 106.028,43.3078 108.528,40.6411 111.5,38.5 Z M 24.5,44.5 C 30.7644,47.5962 35.5977,52.2629 39,58.5C 45.3215,70.1418 50.8215,82.1418 55.5,94.5C 55,95.5 54.5,96.5 54,97.5C 41.8286,81.1551 31.9952,63.4884 24.5,44.5 Z M 60.5,103.5 C 59.6103,101.218 59.4436,98.8848 60,96.5C 61.6973,89.7366 64.364,83.4032 68,77.5C 73.3515,71.6199 79.8515,69.9532 87.5,72.5C 87.4208,73.9305 87.7542,75.2638 88.5,76.5C 89.2739,77.7112 90.1072,77.7112 91,76.5C 95.7534,82.5099 96.7534,89.1766 94,96.5C 92.5869,99.6612 90.9203,102.661 89,105.5C 80.7193,112.446 71.8859,118.612 62.5,124C 61.8742,124.75 61.3742,125.584 61,126.5C 59.2425,122.908 58.7425,119.242 59.5,115.5C 60.4461,115.987 61.4461,116.32 62.5,116.5C 68.3682,112.734 74.3682,109.234 80.5,106C 84.5395,102.054 86.8729,97.2205 87.5,91.5C 87.0596,88.7862 85.7262,86.6195 83.5,85C 75.6488,82.8623 69.8155,85.3623 66,92.5C 64.1207,96.2585 62.2874,99.9252 60.5,103.5 Z M 76.5,90.5 C 80.5996,92.5629 81.4329,95.5629 79,99.5C 75.1941,104.311 70.5274,107.978 65,110.5C 67.5026,103.173 71.3359,96.5063 76.5,90.5 Z M 68.5,125.5 C 69.3764,125.369 70.0431,125.702 70.5,126.5C 69.5123,129.45 68.679,132.45 68,135.5C 67.4212,133.351 66.9212,131.185 66.5,129C 66.8618,127.566 67.5285,126.399 68.5,125.5 Z"/></g>
</svg>
