<?xml version="1.0" encoding="UTF-8"?>
<!DOCTYPE svg PUBLIC "-//W3C//DTD SVG 1.1//EN" "http://www.w3.org/Graphics/SVG/1.1/DTD/svg11.dtd">
<svg xmlns="http://www.w3.org/2000/svg" version="1.1" width="622px" height="991px" style="shape-rendering:geometricPrecision; text-rendering:geometricPrecision; image-rendering:optimizeQuality; fill-rule:evenodd; clip-rule:evenodd" xmlns:xlink="http://www.w3.org/1999/xlink">
<g><path style="opacity:0.404" fill="#000000" d="M 267.5,678.5 C 267.249,680.17 266.582,681.67 265.5,683C 267.167,683.667 268.833,683.667 270.5,683C 271.551,681.615 272.884,680.615 274.5,680C 273.468,677.126 271.468,675.626 268.5,675.5C 268.297,658.804 264.297,643.137 256.5,628.5C 257.167,627.833 257.833,627.167 258.5,626.5C 255.449,620.514 253.282,614.18 252,607.5C 247.535,583.912 243.535,560.246 240,536.5C 233.5,511 227,485.5 220.5,460C 221.148,458.56 221.481,457.06 221.5,455.5C 222.552,455.649 223.552,455.483 224.5,455C 210.247,398.903 190.08,345.069 164,293.5C 154.827,278.491 146.16,263.158 138,247.5C 107.752,196.665 76.7523,146.331 45,96.5C 39.2557,87.6112 36.589,77.9446 37,67.5C 37.4652,66.0692 38.2986,64.9025 39.5,64C 56.3516,59.6568 72.0182,62.3235 86.5,72C 111.304,91.7948 131.804,115.295 148,142.5C 165.807,175.451 181.473,209.451 195,244.5C 208.404,280.047 221.404,315.713 234,351.5C 242.536,380.775 250.869,410.108 259,439.5C 261.147,444.46 263.814,449.127 267,453.5C 266.284,395.258 269.617,337.258 277,279.5C 283.182,235.102 294.516,192.102 311,150.5C 322.528,124.934 338.362,102.434 358.5,83C 368.699,76.3885 379.699,74.7218 391.5,78C 394.874,81.4435 396.707,85.6101 397,90.5C 396.939,117.543 393.605,144.209 387,170.5C 383.313,186.58 379.313,202.58 375,218.5C 368.892,236.153 363.225,253.82 358,271.5C 379.126,231.376 405.292,194.876 436.5,162C 453.249,144.939 472.916,132.273 495.5,124C 508.755,120.345 522.255,118.845 536,119.5C 546.277,119.19 556.444,120.023 566.5,122C 578.859,126.862 584.526,136.029 583.5,149.5C 582.486,162.376 579.32,174.71 574,186.5C 565.536,205.435 555.536,223.435 544,240.5C 526.919,263.007 510.585,286.007 495,309.5C 484.5,322 474,334.5 463.5,347C 476.017,340.922 489.017,335.588 502.5,331C 535.203,322.058 549.703,334.224 546,367.5C 542.879,379.607 537.546,390.607 530,400.5C 508.979,430.186 482.812,454.352 451.5,473C 430.784,489.384 409.784,505.384 388.5,521C 373.477,532.346 359.477,544.846 346.5,558.5C 339.191,568.31 331.691,577.976 324,587.5C 317.959,597.75 311.792,607.917 305.5,618C 306.602,620.401 306.769,622.901 306,625.5C 302.877,631.537 300.543,637.87 299,644.5C 298.788,653.556 298.621,662.556 298.5,671.5C 299.552,671.351 300.552,671.517 301.5,672C 304.373,675.577 306.873,679.411 309,683.5C 313.892,688.027 319.059,692.193 324.5,696C 338.576,698.691 351.909,703.358 364.5,710C 374.023,721.862 383.189,734.028 392,746.5C 399.514,760.411 403.347,775.244 403.5,791C 401.814,807.927 398.148,824.427 392.5,840.5C 391.448,840.351 390.448,840.517 389.5,841C 377.979,854.525 364.646,865.858 349.5,875C 348.114,878.122 346.78,881.289 345.5,884.5C 341.51,887.247 337.176,889.247 332.5,890.5C 336.917,896.998 341.084,903.665 345,910.5C 350.451,923.712 346.117,929.379 332,927.5C 321.906,927.847 312.406,925.68 303.5,921C 300,918.833 297.167,916 295,912.5C 295.026,923.75 291.86,933.916 285.5,943C 264.746,952.207 256.412,945.707 260.5,923.5C 260.381,913.607 261.048,903.773 262.5,894C 262.167,893.167 261.833,892.333 261.5,891.5C 234.115,880.271 211.948,862.604 195,838.5C 187.01,824.036 183.51,808.536 184.5,792C 183.247,758.9 194.581,731.067 218.5,708.5C 225.787,701.376 233.787,695.21 242.5,690C 251.884,688.306 260.218,684.472 267.5,678.5 Z M 229.5,404.5 C 222.262,384.625 215.095,364.625 208,344.5C 191.642,306.451 172.642,269.784 151,234.5C 123.418,188.33 95.0849,142.663 66,97.5C 61.4025,89.7151 57.5691,81.5485 54.5,73C 54.8333,72.6667 55.1667,72.3333 55.5,72C 58.275,72.3737 60.9417,73.3737 63.5,75C 85.4301,90.0526 103.93,108.553 119,130.5C 134.987,154.802 148.654,180.468 160,207.5C 178.119,252.521 195.452,297.854 212,343.5C 218.616,363.634 224.449,383.968 229.5,404.5 Z M 376.5,88.5 C 378.045,89.2297 378.878,90.563 379,92.5C 379.109,113.743 376.776,134.743 372,155.5C 364.978,190.587 355.312,224.92 343,258.5C 323.071,313.953 303.738,369.619 285,425.5C 284.426,355.572 292.093,286.572 308,218.5C 317.201,175.481 335.201,136.815 362,102.5C 366.729,97.6025 371.562,92.9359 376.5,88.5 Z M 533.5,126.5 C 559.846,125.002 570.012,137.002 564,162.5C 558.905,179.686 551.905,196.02 543,211.5C 506.111,268.264 465.111,321.931 420,372.5C 374.404,419.414 331.07,468.08 290,518.5C 287.851,526.764 285.851,535.098 284,543.5C 282.834,527.848 282.001,512.181 281.5,496.5C 285.833,496.5 290.167,496.5 294.5,496.5C 295.629,490.831 295.629,485.164 294.5,479.5C 289.01,476.2 287.677,471.7 290.5,466C 290.043,465.586 289.709,465.086 289.5,464.5C 298.545,439.317 308.045,414.317 318,389.5C 345.794,327.395 377.461,267.395 413,209.5C 416.167,205 419.333,200.5 422.5,196C 425.956,194.519 429.289,192.852 432.5,191C 448.988,171.178 467.988,154.178 489.5,140C 503.346,132.379 518.012,127.879 533.5,126.5 Z M 514.5,338.5 C 517.772,337.149 521.106,337.316 524.5,339C 521.223,338.799 517.889,338.632 514.5,338.5 Z M 341.5,487.5 C 338.593,493.809 335.259,499.976 331.5,506C 332.056,506.383 332.389,506.883 332.5,507.5C 350.647,481.683 370.98,457.683 393.5,435.5C 410.239,414.923 427.906,395.089 446.5,376C 461.189,362.483 478.189,352.816 497.5,347C 513.157,343.154 522.823,348.987 526.5,364.5C 525.133,372.102 522.3,379.102 518,385.5C 491.458,416.709 462.291,445.209 430.5,471C 400.359,491.802 371.359,514.135 343.5,538C 334.122,551.255 324.622,564.422 315,577.5C 311.847,580.782 308.013,582.948 303.5,584C 301.343,587.156 298.843,589.989 296,592.5C 295.25,591.874 294.416,591.374 293.5,591C 295.667,590.167 297.167,588.667 298,586.5C 295.294,576.343 296.628,566.677 302,557.5C 302.32,554.46 302.32,551.46 302,548.5C 313.696,527.08 326.863,506.747 341.5,487.5 Z M 241.5,446.5 C 245.283,455.874 250.95,464.04 258.5,471C 260.804,471.895 263.138,472.729 265.5,473.5C 259.278,474.809 253.111,474.809 247,473.5C 245.228,464.473 243.395,455.473 241.5,446.5 Z M 255.5,481.5 C 258.448,481.223 261.281,481.556 264,482.5C 264.845,515.841 265.512,549.174 266,582.5C 260.566,552.198 256.733,521.698 254.5,491C 254.542,487.749 254.875,484.583 255.5,481.5 Z M 345.5,481.5 C 345.155,484.198 343.822,486.198 341.5,487.5C 342.34,485.147 343.674,483.147 345.5,481.5 Z M 279.5,628.5 C 282.518,628.335 285.518,628.502 288.5,629C 286.951,635.784 285.451,642.617 284,649.5C 281.67,642.684 280.17,635.684 279.5,628.5 Z M 265.5,693.5 C 255.807,705.036 246.64,717.036 238,729.5C 218.073,760.542 209.406,794.542 212,831.5C 204.759,821.116 200.259,809.616 198.5,797C 201.224,768.796 212.058,744.296 231,723.5C 239.394,714.529 247.894,705.695 256.5,697C 259.327,695.336 262.327,694.17 265.5,693.5 Z M 284.5,696.5 C 292.381,699.774 300.048,703.607 307.5,708C 314.898,718.173 320.398,729.34 324,741.5C 327.156,752.456 330.156,763.456 333,774.5C 337.021,790.344 338.021,806.344 336,822.5C 328.026,851.807 309.36,870.474 280,878.5C 279.08,874.737 277.58,871.237 275.5,868C 254.321,870.88 240.154,862.047 233,841.5C 227.3,813.249 230.3,785.915 242,759.5C 247.07,747.683 253.403,736.683 261,726.5C 269.072,716.606 276.905,706.606 284.5,696.5 Z M 335.5,720.5 C 351.212,728.372 364.378,739.372 375,753.5C 383.727,770.522 387.394,788.522 386,807.5C 384.742,814.867 382.409,821.867 379,828.5C 369.177,842.655 357.011,854.488 342.5,864C 336.861,867.654 330.861,870.487 324.5,872.5C 347.767,854.237 357.934,830.237 355,800.5C 351.952,772.976 345.452,746.309 335.5,720.5 Z M 326.5,916.5 C 315.438,912.738 308.771,905.072 306.5,893.5C 308.924,893.192 311.257,893.526 313.5,894.5C 318.685,901.347 323.018,908.68 326.5,916.5 Z"/></g>
<g><path style="opacity:0.004" fill="#000000" d="M 332.5,507.5 C 331.928,508.973 331.095,510.307 330,511.5C 329.09,509.055 329.924,507.722 332.5,507.5 Z"/></g>
<g><path style="opacity:0.011" fill="#000000" d="M 249.5,652.5 C 250.5,652.5 251.5,652.5 252.5,652.5C 252.681,655.553 252.848,658.553 253,661.5C 249.436,665.769 247.603,665.269 247.5,660C 247.41,657.256 248.077,654.756 249.5,652.5 Z"/></g>
<g><path style="opacity:0.004" fill="#000000" d="M 267.5,678.5 C 267.369,677.761 267.536,677.094 268,676.5C 268.692,677.437 268.525,678.103 267.5,678.5 Z"/></g>
</svg>
