<?xml version="1.0" encoding="utf-8"?>
<!-- Generator: Adobe Illustrator 25.4.1, SVG Export Plug-In . SVG Version: 6.00 Build 0)  -->
<svg version="1.1" id="bf09c82b-3bc6-4156-9080-5dea4ad38586"
	 xmlns="http://www.w3.org/2000/svg" xmlns:xlink="http://www.w3.org/1999/xlink" x="0px" y="0px" viewBox="0 0 1926.3 749.4"
	 style="enable-background:new 0 0 1926.3 749.4;" xml:space="preserve">
<style type="text/css">
	.st0{fill:#5D2515;}
</style>
<path class="st0" d="M21.3,15.8C18.3,4.8,8.5-2-0.4,0.5c-2.2,0.6-4.2,1.8-5.9,3.4c12.3,7.7,19.2,19,23.2,32.3
	C21.6,31.5,23.5,23.7,21.3,15.8z"/>
<path class="st0" d="M-7.2,4.8c-4.3,4.7-6,12.4-3.9,20c3,10.9,12.7,17.7,21.7,15.2c1-0.3,2.1-0.7,3-1.2C10.5,25.4,4.3,12.5-7.2,4.8z
	"/>
<path class="st0" d="M37.7,36.2c-9.2,2-16.4,13.4-16.4,25.2c0,13,8.5,23.5,19,23.5c2.1,0,4.1-0.2,6.1-0.8v-0.4
	C37.1,70.6,34.7,52.4,37.7,36.2z"/>
<path class="st0" d="M41.7,35.9c-3.3,16-3.5,33.3,7.3,47.3c7.7-3.5,10.3-11.9,10.3-21.8C59.3,48.8,51.6,36.8,41.7,35.9z"/>
<ellipse class="st0" cx="77.2" cy="75.4" rx="10" ry="16.2"/>
<ellipse class="st0" cx="55.7" cy="101.4" rx="12.5" ry="8.5"/>
<path class="st0" d="M149.6,41.5c-0.4-0.6-0.8-1.1-1.3-1.6c-21.7,3-41.7,19.5-50.8,38.7c9.3,11.8,22.5,6.9,36.8-2.9
	C148.8,65.7,155.7,50.4,149.6,41.5z"/>
<path class="st0" d="M112.2,43.6c-12.9,8.8-22.8,18-18,29.5c9.2-17.4,28.3-35.2,48.9-36.4C135.1,33.7,123,36.1,112.2,43.6z"/>
<path class="st0" d="M259.4,109.7c-7-3.5-13.2-9.2-21.3-10c-1.1,1.4-1.7,3.1-1.7,4.9c0,6.5,8.4,11.8,18.8,11.8
	c7.3,0,13.6-2.6,16.7-6.4C267.2,111.6,261.9,111.4,259.4,109.7z"/>
<path class="st0" d="M273.3,107.5c0.4-0.9,0.6-1.9,0.6-2.9c0-6.5-8.4-11.8-18.8-11.8c-4.7-0.1-9.3,1.1-13.4,3.5
	c6.9,0,11.5,5.1,17.6,9.4C263.7,107.8,268.4,107.9,273.3,107.5z"/>
<path class="st0" d="M384.3,83.4c-10.9-0.1-21.8,2-31.9,6.2c-4.4,1.2-7.6,6-7.7,10.6c3,5.3,13.1,7.1,23.8,4.1
	c11.7-3.3,19.7-11.2,17.9-17.6C386,85.5,385.3,84.3,384.3,83.4z"/>
<path class="st0" d="M383.1,82.5c-4.5-3-12.6-3.6-21.1-1.2c-7.6,2.2-13.7,6.3-16.5,10.7C356.5,84.7,370.2,81,383.1,82.5z"/>
<path class="st0" d="M345.5,92c-1.4,2-1.9,4.5-1.4,6.9c0.1,0.5,0.4,1,0.6,1.4c0.1-4.6,3.3-9.4,7.7-10.6c10.1-4.2,21-6.3,31.9-6.2
	c-0.4-0.4-0.8-0.7-1.2-1C370.2,81,356.5,84.7,345.5,92z"/>
<path class="st0" d="M505.3,101.8c-4.5-6.9-15.4-7.9-27.5-8.8c-17.1-1.3-31.5,5.9-32.3,16.1c0,0.2,0,0.3,0,0.5
	C464.5,117.5,492.1,119.1,505.3,101.8z"/>
<path class="st0" d="M445.9,113.1c2.5,8.5,14.3,15.6,29,16.7c17.1,1.3,30.7-3.8,32.3-16.1c0.5-2.9,0.3-5.9-0.5-8.8
	C490.9,121.8,466.9,119.3,445.9,113.1z"/>
<path class="st0" d="M524.6,123.6c-1.2,0.7-2.3,1.5-3.3,2.5c-8.6,8.6-2.2,25.1,8.5,35.8s26.4,12.5,35,3.9c2.5-2.5,4.2-5.6,4.9-9
	C550.6,155.4,538.5,135.9,524.6,123.6z"/>
<path class="st0" d="M569.9,155.7c1.4-8.1-1.7-17.6-9-24.9c-8.9-8.9-24.5-12.2-34.4-8.1C539.4,135.3,551.9,151.5,569.9,155.7z"/>
<path class="st0" d="M644.8,125.6c-5.4-5.2-15.7-8.8-27.6-8.8c-17.4,0-31.5,7.6-31.5,17c0.1,2.1,0.7,4.2,1.7,6
	C607.5,140.4,628.1,137.4,644.8,125.6z"/>
<path class="st0" d="M592.7,146c6.9,5.7,15.6,8.8,24.5,8.7c17.4,0,31.5-11.5,31.5-20.9c0-1.9-0.6-3.8-1.7-5.5
	C631,139.3,612,146.3,592.7,146z"/>
<ellipse transform="matrix(0.7832 -0.6218 0.6218 0.7832 56.7662 346.278)" class="st0" cx="524.9" cy="91.7" rx="10.8" ry="14"/>
<path class="st0" d="M705,139.4c-8.3-1.2-19.5,4.2-28.1,14.2c-7.1,8.3-10.7,17.8-10.4,25.4C682.8,170.1,700.6,156.7,705,139.4z"/>
<path class="st0" d="M713.3,144c-14.6,15.4-35.2,26.2-41.5,46.2c8.2,6,23.1,0.8,34-12C716.1,166.2,719.1,151.6,713.3,144z"/>
<path class="st0" d="M731.1,127.3c-1,9.2,6.8,19.5,19,24.5c14,5.8,29.3,6.4,33.4-3.5c0.8-1.9,1.1-4,1-6.1
	C770.2,129.3,749.9,125.6,731.1,127.3z"/>
<path class="st0" d="M784.4,140.4c-1.2-9.3-8.8-20.2-19.5-24.6c-14.1-5.8-28.8-2.4-32.8,7.6c-0.2,0.4-0.3,0.8-0.4,1.2
	C750.3,124.2,769.5,128.8,784.4,140.4z"/>
<path class="st0" d="M891.8,112.3c-10.5-4.7-21.3-5.3-29.5-2.5c0,9.8,6.6,16.3,14.1,21.9c13.1,9.4,32.4,6.4,40.5,20.9
	C920.6,140.4,908.5,119.8,891.8,112.3z"/>
<path class="st0" d="M871.4,133.7c-7.5-4.7-13.2-12.8-13.1-22c-3.3,1.8-6,4.7-7.6,8.1c-5.3,11.9,4.5,27.8,22,35.5
	c15.2,6.8,33.3,9.9,41.1,2.5C906.5,141.6,886,141,871.4,133.7z"/>
<path class="st0" d="M982,101.7c-9.6,11.1-14,19-6.6,31.5c4.1-16,12.6-30,22.8-42.6C992,92.9,986.4,96.7,982,101.7z"/>
<path class="st0" d="M1020.1,92.1c-3.7-3.2-9.5-4.2-15.6-3.1c-12.5,14.3-20.8,31.8-24.1,50.6c8.3,5.6,26.4-0.7,36-11.8
	C1027,115.5,1028.7,99.5,1020.1,92.1z"/>
<ellipse transform="matrix(0.3722 -0.9282 0.9282 0.3722 451.0048 968.2172)" class="st0" cx="941.2" cy="150.7" rx="13.5" ry="20"/>
<path class="st0" d="M1151.7,139.5c-3.9-5,1.4-16.6,8.6-22.2s16.2-6.2,20.1-1.2s1.3,13.6-5.8,19.2S1155.6,144.5,1151.7,139.5z"/>
<path class="st0" d="M1362.6,48.7l0.8-0.3c-9.2-5.6-25.1-5.2-36.3,1.6c-13.9,8.5-19.9,24-13.5,34.6c1.1,1.8,2.5,3.4,4.2,4.7
	C1321.2,69.1,1342.2,53.1,1362.6,48.7z"/>
<path class="st0" d="M1363.5,48.4l-0.8,0.3l1-0.2L1363.5,48.4z"/>
<path class="st0" d="M1368.7,53.5c-1.3-2-3-3.7-5.1-5l-1,0.2c-19.6,8-37.5,23.1-38.3,43.9c7.7,2.4,17.4,1.1,26.2-4.2
	C1364.5,79.9,1375.2,64.1,1368.7,53.5z"/>
<path class="st0" d="M1289.8,82.9c-0.2-0.4-0.3-0.7-0.6-1.1c-4.7-7.5-16.6-8.5-26.7-2.3c-9.6,6-14.7,20.6-11.1,28.5v-2.3
	C1256.8,91.2,1274.6,84.1,1289.8,82.9z"/>
<path class="st0" d="M1253.3,110.8c5.4,5.2,16.8,1.7,26.1-4.1c8.8-5.5,13.3-14.7,11.2-22C1274.8,88,1259,94.9,1253.3,110.8z"/>
<path class="st0" d="M1487.3,121.9c13.3,8.4,28.9,8.1,37.3,0.1c-13.9-12.8-34.5-20.1-53.5-20.3
	C1473.4,109.2,1479,116.7,1487.3,121.9z"/>
<path class="st0" d="M1513.3,80.6c-15.1-9.5-33.1-7.9-40.3,3.5c-0.7,1.2-1.3,2.4-1.8,3.7c11.1,15.1,29.6,19,46.2,23.9
	c4.1,0.6,9.1,0.5,13-1.4C1531.6,99.9,1525.1,88,1513.3,80.6z"/>
<ellipse transform="matrix(0.1889 -0.982 0.982 0.1889 1081.2399 1496.484)" class="st0" cx="1446.5" cy="93.7" rx="8.1" ry="15.8"/>
<path class="st0" d="M1550.4,109.7c4.3-14.7,16.1-25.6,28.9-34.8c-6.2,1.6-12,4.5-17.2,8.3c-17,12.5-27.7,31.1-18.8,43.1
	c2.8,3.6,6.6,6.2,10.9,7.5C1549.7,126.4,1547.9,117.2,1550.4,109.7z"/>
<path class="st0" d="M1609,82.4c-3.1-4.1-7.7-7-12.8-8.1c-16.8,3.5-31.4,18.8-37.8,33.3c-4.8,9.7,2.5,19.4,8.4,28.1
	c9.8-0.1,19.4-3.2,27.3-8.9C1611.2,114.4,1617.8,94.5,1609,82.4z"/>
<path class="st0" d="M1673,99.8c-8.3-1.5-20-0.1-30.8,3.2c-17.8,5.5-30,17.4-27.2,26.7c0.3,1.1,0.9,2.1,1.6,3c1-1.8,2.8-2.9,4.8-3
	C1641.1,122.8,1664.5,120.8,1673,99.8z"/>
<path class="st0" d="M1683.6,106.7c-0.7-2.3-2.5-4-5-5.2c-7.4,18.1-28.1,27.4-47.2,29.2c-3,0-7.8,2.3-9.5,6
	c7.1,3.3,18.6,3.5,30.5-0.1C1670.3,131.1,1686.4,115.9,1683.6,106.7z"/>
<path class="st0" d="M1821,79.7c8.5-5.2,17.1-2.4,20,2.3s-1.1,9.5-9.5,14.7s-17.7,5.6-20.6,0.9S1812.5,84.9,1821,79.7z"/>
<path class="st0" d="M1903.4,80.7c-11-2-22-9-34-7c-5.7,0-10.5,0.9-16,1c4.2,8.6,20.8,14.4,40.8,16.1c23.9,2,43.7-2.5,44.7-14
	c0.2-2.2-0.3-4.4-1.4-6.3C1927.4,77.2,1915.8,82.4,1903.4,80.7z"/>
<path class="st0" d="M1895.4,75.7c12.5,5.4,29.8,2.7,39.8-8.6c-6.5-7.5-20.8-13.5-37.8-15c-23.9-2-44,5.7-45,17.3c-0.1,1,0,2,0.2,3
	C1867.2,71.2,1881.7,69.3,1895.4,75.7z"/>
<ellipse transform="matrix(0.8415 -0.5402 0.5402 0.8415 208.3062 937.4647)" class="st0" cx="1702" cy="113.7" rx="16" ry="10.5"/>
<ellipse transform="matrix(0.3361 -0.9418 0.9418 0.3361 1241.4675 1826.9166)" class="st0" cx="1916.6" cy="32.9" rx="11" ry="9.5"/>
<path class="st0" d="M1767.8,112.6c-81.4,16.7-149.7,42.8-231.3,35.6c-38.1-3.4-77.1-41.4-114.3-50.1
	c-108.1-25.3-175.6,44.2-270.5,49.8c-16.8,1-90.9-11.9-107.8-12.4c-29.5-0.8-60,19.2-89.7,28.2c-1.7,0.8-3.5,1.3-5.3,1.5
	c-3.9,1-8,1.8-12,2.3c-31.2,3.7-38.8-5.1-81.2-6.6c-34.7-1.2-93.8,6.5-138.3,10.9c-13.4,11.4-24.3,29.2-44,24.9
	c-12.1-2.8-13.8-16-13.2-27.5c-18-2.5-37.4-5.3-60-5.3c-7.3,0-14.6,0.7-21.8,1.9c-9.9,7-20.2,14-34.1,10.9
	c-13-3.7-22.5-10.9-27.8-22.2c-0.7-1.4-1.9-2.6-3.4-3.2c-26.9-10.5-55.2-21.2-82.7-33.8c-51.3-23.4-78.3-0.1-134.4,5.9h-0.3
	c5.2,1.6,8.4,7.2,7.4,13.1c-1.1,6.4-6.8,10.7-12.6,9.6s-8.1-7.4-7-13.8c0.7-4,2.6-7.1,5.4-8.5c-8.2,0.2-14.3-1-30.3-1.7
	c-10.8-0.4-33.4-9.3-43.4-13.5c-53.4-22.8-93.4-22.3-134-18.6c-1.2,0.9-2.7,1.5-4.2,1.5c-1.1,0-2.1-0.3-3.1-0.8l-4.3,0.4
	c-1.1,0.1-1.8,1.1-1.7,2.1c0.1,0.5,0.3,0.9,0.7,1.2c2.9,2.6,4,6.5,1.7,10c-5,8-16,11-26,6c-5.7-2.9-5.8-9.8-2.2-14.6
	c0.4-0.5,0.3-1.3-0.2-1.7c-0.2-0.2-0.5-0.3-0.8-0.2c-13,1.2-26.4,2-40.8,2c0.1,5.5,0.2,11.2,0.3,16.9c6.9-3.1,13.7-3.2,18.4,0.3
	c0.2,0.1,0.4,0.3,0.5,0.5c-7.5,5.8-13.9,12.9-18.9,20.8c0,2.4,0,4.8,0,7.1c5.8-9.5,12.7-18,22.5-23.1c3.7,8.2,1.1,21.1-7.2,32.4
	c-4.1,5.6-9.4,10.2-15.5,13.4c-0.4,34.9-1,70.5-0.2,102.5c685.3,0,1242.8-33.7,1928.9-23.6c7.4-38.1,7.4-98,10-132.4
	C1857.1,96.9,1852.9,95.1,1767.8,112.6z M87.2,141.7c-6.8,4-13.2-0.7-17.3-7s-2.7-14.9,0.8-17c3.1-1.8,11.8-0.3,15.9,6.1
	S95.6,136.8,87.2,141.7z M97.2,119c-8.1-4.2-11.9-8.5-10.5-14.3c10.7-0.7,16.6,9.9,22.8,17.7C105.8,122.5,101.6,121.3,97.2,119
	L97.2,119z M119.5,116.4c-1.3,2.6-3.6,4.6-6.4,5.5c-5.4-5.4-7.2-15.1-13.7-20.2c-3.1-1.7-6.6-2.5-10.1-2.4
	c4.4-5.9,12.8-7.6,21.4-3.1C120.2,101.3,123.4,108.9,119.5,116.4z M188.5,132c-2.5,2.8-7.8,2.1-11.9-1.5s-5.5-8.8-3-11.6
	s7.8-2.1,11.9,1.5S191,129.2,188.5,132L188.5,132z M477.8,178c-11.5-7.1-17.4-18.5-14.1-26.4c4.4,0,8.5,0.5,11.7,3.1
	c8.9,8.9,19.8,22.4,33.1,23C503.5,185.3,489.8,185.5,477.8,178z M510.3,172.4c-13.4,0.2-24.9-12.3-34.9-20.7
	c-1.7-2.5-5.5-3.6-9.6-3.3c5.7-6.1,18.3-5.8,29.6,1.1C505.2,155.6,511,164.9,510.3,172.4z M586,211.7c-3.5-2.3-6.7-5.1-9.5-8.2
	c14-0.5,28.4,0.3,40.1,8.5C610.3,219.1,597.1,219.1,586,211.7L586,211.7z M617.8,210.4l-0.2,0.2c-12.9-10.1-28.5-15.3-45-13.1
	c-1.8-4.2-1.8-8.4,0.9-12.3c5.8-8.6,21.7-12.6,33.4-4.6S623.6,201.8,617.8,210.4z M862.2,187.4c-5.4,4.3-12.8,3.9-16.5-0.7
	s-2.2-11.9,3.2-16.2s12.8-3.9,16.5,0.7S867.6,183.1,862.2,187.4z M1048.5,149.4c5.6-6,11.3-7,16.1-4.8c-0.5,1.8-1.2,3.5-2.2,5.1
	c-4.9,8.1-17.6,7-21.7,13.2C1042.3,157.9,1044.9,153.3,1048.5,149.4L1048.5,149.4z M934.2,213.1c-7.3-7.3-5.8-20.7,3.4-29.9
	c4.1-4,9.5-6.3,15.2-6.4c-9.2,6.6-8.4,18.3-8.4,29.9c0,3.6-5,6.4-9.6,6.9C934.6,213.4,934.4,213.3,934.2,213.1z M964.8,207.5
	c-7.2,7.2-17.5,11.1-25.1,8.8c4-2.3,8-4.5,8.7-8.6c1-11.7-0.9-23.5,10.2-30.5c4.1,0.7,8,2.6,11,5.5C977,190,974,198.3,964.8,207.5z
	 M1030.7,146.8c-2.6,0-4.8-2.1-4.8-4.8s2.1-4.8,4.8-4.8s4.8,2.1,4.8,4.8l0,0C1035.4,144.7,1033.3,146.8,1030.7,146.8L1030.7,146.8z
	 M1061.9,170.4c-6,6.9-11.5,7.9-19.2,4.5c-2.7-1.2-3.4-4.2-3-7.9c2.7-7.9,15-7.5,21.7-13.3c2.6-2.6,4.5-5.2,4.2-8.5
	c1,0.6,1.8,1.2,2.7,2C1073.7,152.1,1068.8,162.5,1061.9,170.4z M1251,154.1c-5.7,6.5-13.2,9.2-16.7,6.1s-1.9-10.9,3.8-17.4
	s13.2-9.2,16.7-6.1S1256.6,147.6,1251,154.1L1251,154.1z M1279.6,132.1c2.3-4,4.6-6.7,7-8.2c0.3,9.5-1.3,19.3-6.4,27.1
	C1274.9,147.2,1274.6,140.9,1279.6,132.1L1279.6,132.1z M1302.9,141.4c-4.5,7.9-11.9,12.5-18,11.6c6.1-8.5,5.6-20.1,5.5-30.4
	c2.4-0.2,4.7,0.4,6.7,1.6C1303.7,127.8,1308.2,131.9,1302.9,141.4L1302.9,141.4z M1439.3,168.8c-18.5,0-33.4-10-33.4-22.3
	c0-3.1,1-6.2,2.7-8.8c4.3,4.1,9.3,8,14.9,8c16.2,1,35.1-9.9,49,3.8C1470.2,160.4,1456.2,168.8,1439.3,168.8L1439.3,168.8z
	 M1465.4,140.7c-14-6-29,3-43,2c-4.6-0.9-8.4-4.4-12.1-7.3c5.8-6.7,16.6-11.2,29-11.2c18.4,0,33.4,10,33.4,22.2
	C1470.7,144.1,1468.2,142.1,1465.4,140.7L1465.4,140.7z M1587.6,169.3c-4.9,4.5-11,5.9-13.7,3s-0.7-8.8,4.2-13.4s11-5.9,13.7-3
	S1592.5,164.7,1587.6,169.3L1587.6,169.3z M1719.7,155c-7.6,5.3-16.2,6.1-19.2,1.8s0.6-12.2,8.2-17.5s16.2-6.1,19.2-1.8
	S1727.2,149.6,1719.7,155L1719.7,155z M1863.5,134c-6.4,6.4-20.2,9.7-25.1,4.8s-2.9-11.2,3.6-17.7s13.5-7.2,18.4-2.4
	S1869.9,127.5,1863.5,134L1863.5,134z M1891.6,143.4c14.1-10.8,31.2-12.4,39.9-4.2c-11.7,3.6-21.6,15.5-31.1,23.6
	c-8.4,5.6-18.7,6-26.5,12.6C1870.3,164,1879.3,152.8,1891.6,143.4L1891.6,143.4z M1920.1,180.8c-15.1,11.6-33.1,12-41.7,2.3
	c-0.5-0.6-1-1.2-1.5-1.8c25.9,3.6,34-25.9,53.4-38.5c0.9-0.6,1.9-1.1,2.9-1.5C1941.1,151.5,1935.2,169.1,1920.1,180.8L1920.1,180.8z
	"/>
<rect y="207.5" class="st0" width="1938.9" height="541.9"/>
</svg>
