<svg xmlns="http://www.w3.org/2000/svg" viewBox="0 0 1927.55 749.42"><g id="b3610b29-1953-42b4-a9ea-a7132fb44d35" data-name="Layer 2"><path d="M68.4,117.72c-3.5,2.1-4.9,10.7-.8,17s10.5,11,17.3,7c8.4-4.9,3.5-11.5-.6-17.9S71.5,115.92,68.4,117.72Z" transform="translate(0)" fill="none"/><path d="M1839.7,121.1c-6.5,6.5-8.5,12.8-3.6,17.7s18.7,1.6,25.1-4.8h0c6.4-6.48,1.8-10.5-3.1-15.3S1846.2,114.6,1839.7,121.1Z" transform="translate(0)" fill="none"/><path d="M84.4,104.72c-1.4,5.8,2.4,10.1,10.5,14.3v0c4.4,2.32,8.6,3.52,12.3,3.42C101,114.62,95.1,104,84.4,104.72Z" transform="translate(0)" fill="none"/><path d="M183.2,120.42c-4.1-3.6-9.4-4.3-11.9-1.5s-1.1,8,3,11.6,9.4,4.3,11.9,1.5v0C188.7,129.22,187.3,124,183.2,120.42Z" transform="translate(0)" fill="none"/><path d="M108.4,96.22c-8.6-4.5-17-2.8-21.4,3.1a19.86,19.86,0,0,1,10.1,2.4c6.5,5.1,8.3,14.8,13.7,20.2a10.86,10.86,0,0,0,6.4-5.5C121.1,108.92,117.9,101.32,108.4,96.22Z" transform="translate(0)" fill="none"/><path d="M1889.3,143.4h0c-12.3,9.4-21.3,20.6-17.7,32,7.8-6.6,18.1-7,26.5-12.6,9.05-7.72,18.47-18.86,29.45-23v-1.94C1918.47,131.23,1902.56,133.25,1889.3,143.4Z" transform="translate(0)" fill="none"/><path d="M17.2,113.6a1.15,1.15,0,0,0-.5-.5c-4.31-3.21-10.39-3.38-16.7-1v19.73A81.35,81.35,0,0,1,17.2,113.6Z" transform="translate(0)" fill="none"/><path d="M1874.6,181.3l1.5,1.8c8.6,9.7,26.6,9.3,41.7-2.3h0a49.36,49.36,0,0,0,9.75-10v-27.7C1908.48,155.87,1900.3,184.87,1874.6,181.3Z" transform="translate(0)" fill="none"/><path d="M13.6,150.8c8.3-11.3,10.9-24.2,7.2-32.4C11.94,123,5.45,130.41,0,138.8v24.33A45.41,45.41,0,0,0,13.6,150.8Z" transform="translate(0)" fill="none"/><path d="M1294.8,124.22a11.11,11.11,0,0,0-6.7-1.6c.1,10.3.6,21.9-5.5,30.4,6.1.9,13.5-3.7,18-11.6C1305.9,131.92,1301.4,127.82,1294.8,124.22Z" transform="translate(0)" fill="none"/><path d="M1284.3,123.92c-2.4,1.5-4.7,4.2-7,8.2-5,8.8-4.7,15.1.6,18.9C1283,143.22,1284.6,133.42,1284.3,123.92Z" transform="translate(0)" fill="none"/><path d="M1235.8,142.82c-5.7,6.5-7.3,14.3-3.8,17.4s11,.4,16.7-6.1,7.3-14.3,3.8-17.4S1241.5,136.32,1235.8,142.82Z" transform="translate(0)" fill="none"/><path d="M1066,147.22a17.63,17.63,0,0,0-2.7-2c.3,3.3-1.6,5.9-4.2,8.5-6.7,5.8-19,5.4-21.7,13.3-.4,3.7.3,6.7,3,7.9,7.7,3.4,13.2,2.4,19.2-4.5h0C1066.5,162.52,1071.4,152.12,1066,147.22Z" transform="translate(0)" fill="none"/><path d="M1706.4,139.3c-7.6,5.3-11.2,13.2-8.2,17.5s11.6,3.5,19.2-1.8,11.2-13.2,8.2-17.5S1714,134,1706.4,139.3Z" transform="translate(0)" fill="none"/><path d="M1575.8,158.92c-4.9,4.6-6.9,10.5-4.2,13.4s8.8,1.5,13.7-3h0c4.9-4.6,6.9-10.5,4.2-13.4S1580.7,154.32,1575.8,158.92Z" transform="translate(0)" fill="none"/><path d="M1028.4,137.22a4.8,4.8,0,0,0,0,9.6,4.85,4.85,0,0,0,4.8-4.8A4.8,4.8,0,0,0,1028.4,137.22Z" transform="translate(0)" fill="none"/><path d="M1437,124.22c-12.4,0-23.2,4.5-29,11.2,3.7,2.9,7.5,6.4,12.1,7.3,14,1,29-8,43-2a24,24,0,0,1,7.3,5.7C1470.4,134.22,1455.4,124.22,1437,124.22Z" transform="translate(0)" fill="none"/><path d="M1421.2,145.72c-5.6,0-10.6-3.9-14.9-8a16.42,16.42,0,0,0-2.7,8.8c0,12.3,14.9,22.3,33.4,22.3,16.9,0,30.9-8.4,33.2-19.3C1456.3,135.82,1437.4,146.72,1421.2,145.72Z" transform="translate(0)" fill="none"/><path d="M1060.1,149.72a18.93,18.93,0,0,0,2.2-5.1c-4.8-2.2-10.5-1.2-16.1,4.8h0a36.24,36.24,0,0,0-7.8,13.5C1042.5,156.72,1055.2,157.82,1060.1,149.72Z" transform="translate(0)" fill="none"/><path d="M846.6,170.52c-5.4,4.3-6.9,11.6-3.2,16.2s11.1,5,16.5.7,6.9-11.6,3.2-16.2S852,166.22,846.6,170.52Z" transform="translate(0)" fill="none"/><path d="M604.6,180.62c-11.7-8-27.6-4-33.4,4.6-2.7,3.9-2.7,8.1-.9,12.3,16.5-2.2,32.1,3,45,13.1l.2-.2C621.3,201.82,616.3,188.62,604.6,180.62Z" transform="translate(0)" fill="none"/><path d="M942.1,206.72c0-11.6-.8-23.3,8.4-29.9a22.27,22.27,0,0,0-15.2,6.4c-9.2,9.2-10.7,22.6-3.4,29.9h0c.2.2.4.3.6.5C937.1,213.12,942.1,210.32,942.1,206.72Z" transform="translate(0)" fill="none"/><path d="M493.1,149.52c-11.3-6.9-23.9-7.2-29.6-1.1,4.1-.3,7.9.8,9.6,3.3,10,8.4,21.5,20.9,34.9,20.7C508.7,164.92,502.9,155.62,493.1,149.52Z" transform="translate(0)" fill="none"/><path d="M473.1,154.72c-3.2-2.6-7.3-3.1-11.7-3.1-3.3,7.9,2.6,19.3,14.1,26.4v0c12,7.52,25.7,7.32,30.7-.28C492.9,177.12,482,163.62,473.1,154.72Z" transform="translate(0)" fill="none"/><path d="M19,15.82c2.2,7.9.3,15.7-4.4,20.4C11.65,26.41,7.11,17.69,0,10.7v3c5.66,7.17,9.2,16,11.3,25.13a16.2,16.2,0,0,1-3,1.2A14.56,14.56,0,0,1,0,39.83V95.89c13.64-.07,26.41-.85,38.8-2a.79.79,0,0,1,.8.2,1.24,1.24,0,0,1,.2,1.7c-3.6,4.8-3.5,11.7,2.2,14.6,10,5,21,2,26-6,2.3-3.5,1.2-7.4-1.7-10a1.84,1.84,0,0,1-.7-1.2,1.91,1.91,0,0,1,1.7-2.08l4.3-.4.16.07c-4-2.13-6.86-8.2-6.86-15.37,0-9,4.48-16.2,10-16.2s10,7.25,10,16.2c0,6.42-2.31,12-5.65,14.57,40.48-3.67,80.4-4.1,133.65,18.63,10,4.2,32.6,13.1,43.4,13.5,16,.7,22.1,1.9,30.3,1.7-2.8,1.4-4.7,4.5-5.4,8.5-1.1,6.4,1.2,12.7,7,13.8s11.5-3.2,12.6-9.6c1-5.9-2.2-11.5-7.4-13.1h.3c56.1-6,83.1-29.3,134.4-5.9,27.5,12.6,55.8,23.3,82.7,33.8a6.59,6.59,0,0,1,3.4,3.2c5.3,11.3,14.8,18.5,27.8,22.2,13.9,3.1,24.2-3.9,34.1-10.9a132.69,132.69,0,0,1,21.8-1.9c22.6,0,42,2.8,60,5.3-.6,11.5,1.1,24.7,13.2,27.5,19.7,4.3,30.6-13.5,44-24.9,44.5-4.4,103.6-12.1,138.3-10.9,42.4,1.5,50,10.3,81.2,6.6a96.2,96.2,0,0,0,12-2.3,16.85,16.85,0,0,0,5.3-1.5c29.7-9,60.2-29,89.7-28.2,16.9.5,91,13.4,107.8,12.4,94.9-5.6,162.4-75.1,270.5-49.8,37.2,8.7,76.2,46.7,114.3,50.1,81.6,7.2,149.9-18.9,231.3-35.6,81.78-16.82,88.86-15.81,162-3.48v-22c-8.2,3.67-21.17,4.85-35.65,3.64-20-1.7-36.6-7.5-40.8-16.1,5.5-.1,10.3-1,16-1,12-2,23,5,34,7,9.38,1.29,18.29-1.38,26.45-5.65V71.88c-10.1,7.17-24,8.37-34.45,3.84-13.7-6.4-28.2-4.5-42.8-3.3a10.44,10.44,0,0,1-.2-3c1-11.6,21.1-19.3,45-17.3,13.28,1.17,24.9,5.1,32.45,10.33V0H0V.06C8.1-.56,16.3,5.93,19,15.82ZM1905.38,29.75c2-5.72,7.7-8.93,12.64-7.17s7.29,7.83,5.25,13.55-7.7,8.93-12.64,7.17S1903.33,35.47,1905.38,29.75Zm-86.68,50c8.5-5.2,17.1-2.4,20,2.3s-1.1,9.5-9.5,14.7-17.7,5.6-20.6.9S1810.2,84.92,1818.7,79.72ZM1694,104.86c7.43-4.77,16-4.69,19.13.19s-.35,12.71-7.79,17.48-16,4.69-19.13-.19S1686.53,109.63,1694,104.86Zm-12.67,1.86c2.8,9.2-13.3,24.4-31.2,29.9-11.9,3.6-23.4,3.4-30.5.1,1.7-3.7,6.5-6,9.5-6,19.1-1.8,39.8-11.1,47.2-29.2A8.73,8.73,0,0,1,1681.3,106.72Zm-41.4-3.7c10.8-3.3,22.5-4.7,30.8-3.2-8.5,21-31.9,23-51.6,29.9a5.8,5.8,0,0,0-4.8,3,9.05,9.05,0,0,1-1.6-3C1609.9,120.42,1622.1,108.52,1639.9,103Zm-33.2-20.6c8.8,12.1,2.2,32-14.9,44.4a47.53,47.53,0,0,1-27.3,8.9c-5.9-8.7-13.2-18.4-8.4-28.1,6.4-14.5,21-29.8,37.8-33.3A21.84,21.84,0,0,1,1606.7,82.42Zm-46.9.8a50.7,50.7,0,0,1,17.2-8.3c-12.8,9.2-24.6,20.1-28.9,34.8-2.5,7.5-.7,16.7,3.8,24.1a21.81,21.81,0,0,1-10.9-7.5C1532.1,114.32,1542.8,95.72,1559.8,83.22Zm-89.1.9c7.2-11.4,25.2-13,40.3-3.5,11.8,7.38,18.3,19.3,17.1,29.7-3.9,1.9-8.9,2-13,1.4-16.6-4.9-35.1-8.8-46.2-23.9A25.28,25.28,0,0,1,1470.7,84.12Zm51.6,37.9c-8.4,8-24,8.3-37.3-.1-8.3-5.2-13.9-12.7-16.2-20.2C1487.8,101.92,1508.4,109.22,1522.3,122Zm-93.58-31.27c.84-4.39,8.47-6.61,17-5s14.83,6.55,14,10.94-8.48,6.62-17,5S1427.87,95.15,1428.72,90.75ZM1324.8,50c11.2-6.8,27.1-7.2,36.3-1.6l-.8.3.21,0,.69-.26.2.1-.08,0a16.1,16.1,0,0,1,5.08,5c6.5,10.6-4.2,26.4-18.2,34.9-8.8,5.3-18.5,6.6-26.2,4.2.8-20.8,18.7-35.9,38.3-43.9-20.4,4.4-41.4,20.4-44.8,40.6a17.29,17.29,0,0,1-4.2-4.7C1304.9,74,1310.9,58.52,1324.8,50Zm-47.7,56.7c-9.3,5.8-20.7,9.3-26.1,4.1,5.7-15.9,21.5-22.82,37.3-26.1C1290.4,92,1285.9,101.22,1277.1,106.72Zm-16.9-27.2c10.1-6.2,22-5.2,26.7,2.3a5.57,5.57,0,0,1,.6,1.1c-15.2,1.2-33,8.3-38.4,22.8V108C1245.5,100.12,1250.6,85.52,1260.2,79.52ZM1158,117.32c7.2-5.6,16.2-6.2,20.1-1.2s1.3,13.6-5.8,19.2-19,9.2-22.9,4.2S1150.8,122.92,1158,117.32Zm-140.2-25.2c8.6,7.4,6.9,23.4-3.7,35.7-9.6,11.1-27.7,17.4-36,11.8A104.23,104.23,0,0,1,1002.2,89C1008.3,87.92,1014.1,88.92,1017.8,92.12Zm-38.1,9.6a40.22,40.22,0,0,1,16.2-11.1c-10.2,12.6-18.7,26.6-22.8,42.6C965.7,120.72,970.1,112.82,979.7,101.72Zm-61.1,39.56c2.75-6.93,13.32-9.24,23.59-5.15s16.37,13,13.61,20-13.33,9.24-23.6,5.15S915.84,148.21,918.6,141.28Zm-29.1-29c16.7,7.5,28.8,28.1,25.1,40.3-8.1-14.5-27.4-11.5-40.5-20.9-7.5-5.6-14.1-12.1-14.1-21.9C868.2,107,879,107.62,889.5,112.32Zm-41.1,7.5a18.05,18.05,0,0,1,7.6-8.1c-.1,9.2,5.6,17.3,13.1,22,14.6,7.28,35.1,7.9,42.4,24.1-7.8,7.4-25.9,4.3-41.1-2.5C852.9,147.62,843.1,131.72,848.4,119.82Zm-118.6,3.6c4-10,18.7-13.4,32.8-7.6,10.7,4.4,18.3,15.3,19.5,24.6-14.9-11.6-34.1-16.2-52.7-15.8A6.5,6.5,0,0,1,729.8,123.42Zm-1,3.9c18.8-1.7,39.1,2,53.4,14.9a13.84,13.84,0,0,1-1,6.1c-4.1,9.9-19.4,9.3-33.4,3.5C735.6,146.82,727.8,136.52,728.8,127.32ZM711,144c5.8,7.62,2.8,22.22-7.5,34.2-10.9,12.8-25.8,18-34,12C675.8,170.2,696.4,159.4,711,144Zm-36.4,9.62c8.6-10,19.8-15.4,28.1-14.2-4.4,17.3-22.2,30.7-38.5,39.6C663.9,171.42,667.5,161.92,674.6,153.62ZM646.4,133.8c0,9.4-14.1,20.9-31.5,20.9a37.89,37.89,0,0,1-24.5-8.7c19.3.32,38.3-6.68,54.3-17.7A10.08,10.08,0,0,1,646.4,133.8Zm-31.5-17c11.9,0,22.2,3.6,27.6,8.8-16.7,11.8-37.3,14.8-57.4,14.2a14.05,14.05,0,0,1-1.7-6C583.4,124.42,597.5,116.82,614.9,116.82Zm-52.4,49c-8.6,8.6-24.3,6.8-35-3.9s-17.1-27.2-8.5-35.8a16.39,16.39,0,0,1,3.3-2.5c13.9,12.3,26,31.8,45.1,33.2A17.65,17.65,0,0,1,562.5,165.82Zm-3.9-35c7.3,7.3,10.4,16.8,9,24.9-18-4.2-30.5-20.4-43.4-33C534.1,118.62,549.7,121.92,558.6,130.82ZM513.87,80.74C518.54,77,526.22,78.93,531,85s4.92,14,.25,17.68-12.36,1.81-17.16-4.25S509.2,84.45,513.87,80.74Zm-9,33c-1.6,12.3-15.2,17.4-32.3,16.1-14.7-1.1-26.5-8.2-29-16.7,21,6.2,45,8.7,60.8-8.2A20,20,0,0,1,504.9,113.72Zm-61.7-4.6c.8-10.2,15.2-17.4,32.3-16.1,12.1.9,23,1.9,27.5,8.8-13.2,17.3-40.8,15.7-59.8,7.8ZM343.2,92l0,0c2.81-4.38,8.9-8.47,16.48-10.66,8.48-2.39,16.55-1.8,21.06,1.18h0a10.83,10.83,0,0,1,1.11.92H382a7.69,7.69,0,0,1,2.1,3.3c1.8,6.4-6.2,14.3-17.9,17.6-10.7,3-20.79,1.2-23.8-4.09v.07a6,6,0,0,1-.6-1.4A8.93,8.93,0,0,1,343.2,92Zm-90.4.82c10.4,0,18.8,5.3,18.8,11.8a7,7,0,0,1-.6,2.9c-4.9.4-9.6.3-14-1.8-6.1-4.3-10.7-9.4-17.6-9.4A25.35,25.35,0,0,1,252.8,92.82Zm-17,6.9c8.1.8,14.3,6.5,21.3,10,2.5,1.7,7.8,1.9,12.5.3-3.1,3.8-9.4,6.4-16.7,6.4-10.4,0-18.8-5.3-18.8-11.8A7.92,7.92,0,0,1,235.8,99.72Zm-88.5-58.2c6.1,8.9-.8,24.2-15.3,34.2-14.3,9.8-27.5,14.7-36.8,2.9,9.1-19.2,29.1-35.7,50.8-38.7A9.1,9.1,0,0,1,147.3,41.52Zm-37.4,2.1c10.8-7.5,22.9-9.9,30.9-6.9-20.6,1.2-39.7,19-48.9,36.4C87.1,61.62,97,52.42,109.9,43.62Zm-44,57.8c0,4.69-5.6,8.5-12.5,8.5s-12.5-3.81-12.5-8.5,5.6-8.5,12.5-8.5S65.9,96.73,65.9,101.42ZM39.4,35.92c9.9.9,17.6,12.9,17.6,25.5,0,9.9-2.6,18.3-10.3,21.8C35.9,69.22,36.1,51.92,39.4,35.92Zm-4,.3c-3,16.2-.6,34.4,8.7,47.5v.4a20.62,20.62,0,0,1-6.1.8c-10.5,0-19-10.5-19-23.5C19,49.62,26.2,38.22,35.4,36.22Z" transform="translate(0)" fill="none"/><path d="M956.3,177.22c-11.1,7-9.2,18.8-10.2,30.5-.7,4.1-4.7,6.3-8.7,8.6,7.6,2.3,17.9-1.6,25.1-8.8,9.2-9.2,12.2-17.52,4.8-24.8A21,21,0,0,0,956.3,177.22Z" transform="translate(0)" fill="none"/><path d="M574.2,203.52a49.89,49.89,0,0,0,9.5,8.2c11.1,7.4,24.3,7.4,30.6.3C602.6,203.82,588.2,203,574.2,203.52Z" transform="translate(0)" fill="none"/><path d="M19,15.82C16.3,5.93,8.1-.56,0,.06V10.7c7.11,7,11.65,15.71,14.6,25.52C19.3,31.52,21.2,23.72,19,15.82Z" transform="translate(0)" fill="#5d2515"/><path d="M8.3,40a16.2,16.2,0,0,0,3-1.2c-2.1-9.1-5.64-18-11.3-25.13V39.83A14.56,14.56,0,0,0,8.3,40Z" transform="translate(0)" fill="#5d2515"/><path d="M38,84.92a20.62,20.62,0,0,0,6.1-.8v-.4c-9.3-13.1-11.7-31.3-8.7-47.5-9.2,2-16.4,13.4-16.4,25.2C19,74.42,27.5,84.92,38,84.92Z" transform="translate(0)" fill="#5d2515"/><path d="M57,61.42c0-12.6-7.7-24.6-17.6-25.5-3.3,16-3.5,33.3,7.3,47.3C54.4,79.72,57,71.32,57,61.42Z" transform="translate(0)" fill="#5d2515"/><path d="M78.9,90l.35,0c3.34-2.62,5.65-8.15,5.65-14.57,0-9-4.48-16.2-10-16.2s-10,7.25-10,16.2c0,7.17,2.88,13.24,6.86,15.37a6.86,6.86,0,0,0,2.94.73A7.19,7.19,0,0,0,78.9,90Z" transform="translate(0)" fill="#5d2515"/><ellipse cx="53.4" cy="101.42" rx="12.5" ry="8.5" fill="#5d2515"/><path d="M95.2,78.62c9.3,11.8,22.5,6.9,36.8-2.9,14.5-10,21.4-25.3,15.3-34.2a9.1,9.1,0,0,0-1.3-1.6C124.3,42.92,104.3,59.42,95.2,78.62Z" transform="translate(0)" fill="#5d2515"/><path d="M140.8,36.72c-8-3-20.1-.6-30.9,6.9-12.9,8.8-22.8,18-18,29.5C101.1,55.72,120.2,37.92,140.8,36.72Z" transform="translate(0)" fill="#5d2515"/><path d="M252.9,116.42c7.3,0,13.6-2.6,16.7-6.4-4.7,1.6-10,1.4-12.5-.3-7-3.5-13.2-9.2-21.3-10a7.92,7.92,0,0,0-1.7,4.9C234.1,111.12,242.5,116.42,252.9,116.42Z" transform="translate(0)" fill="#5d2515"/><path d="M271,107.52a7,7,0,0,0,.6-2.9c0-6.5-8.4-11.8-18.8-11.8a25.35,25.35,0,0,0-13.4,3.5c6.9,0,11.5,5.1,17.6,9.4C261.4,107.82,266.1,107.92,271,107.52Z" transform="translate(0)" fill="#5d2515"/><path d="M350.1,89.7c-4.38,1.19-7.56,6-7.7,10.53,3,5.29,13.1,7.09,23.8,4.09,11.7-3.3,19.7-11.2,17.9-17.6a7.69,7.69,0,0,0-2.1-3.3h-.09l.09.08A81.38,81.38,0,0,0,350.1,89.7Z" transform="translate(0)" fill="#5d2515"/><path d="M380.76,82.5c-4.51-3-12.58-3.57-21.06-1.18C352.12,83.51,346,87.6,343.22,92,354.21,84.72,367.88,81,380.76,82.5Z" transform="translate(0)" fill="#5d2515"/><path d="M342.4,100.3v-.07c.14-4.58,3.32-9.34,7.7-10.53A81.38,81.38,0,0,1,382,83.5l-.09-.08a10.83,10.83,0,0,0-1.11-.92h0C367.88,81,354.21,84.72,343.22,92l0,0a8.93,8.93,0,0,0-1.4,6.9A6,6,0,0,0,342.4,100.3Z" transform="translate(0)" fill="#5d2515"/><path d="M503,101.82c-4.5-6.9-15.4-7.9-27.5-8.8-17.1-1.3-31.5,5.9-32.3,16.1v.5C462.2,117.52,489.8,119.12,503,101.82Z" transform="translate(0)" fill="#5d2515"/><path d="M443.6,113.12c2.5,8.5,14.3,15.6,29,16.7,17.1,1.3,30.7-3.8,32.3-16.1a20,20,0,0,0-.5-8.8C488.6,121.82,464.6,119.32,443.6,113.12Z" transform="translate(0)" fill="#5d2515"/><path d="M522.3,123.62a16.39,16.39,0,0,0-3.3,2.5c-8.6,8.6-2.2,25.1,8.5,35.8s26.4,12.5,35,3.9a17.65,17.65,0,0,0,4.9-9C548.3,155.42,536.2,135.92,522.3,123.62Z" transform="translate(0)" fill="#5d2515"/><path d="M567.6,155.72c1.4-8.1-1.7-17.6-9-24.9-8.9-8.9-24.5-12.2-34.4-8.1C537.1,135.32,549.6,151.52,567.6,155.72Z" transform="translate(0)" fill="#5d2515"/><path d="M642.5,125.62c-5.4-5.2-15.7-8.8-27.6-8.8-17.4,0-31.5,7.6-31.5,17a14.05,14.05,0,0,0,1.7,6C605.2,140.42,625.8,137.42,642.5,125.62Z" transform="translate(0)" fill="#5d2515"/><path d="M614.9,154.7c17.4,0,31.5-11.5,31.5-20.9a10.08,10.08,0,0,0-1.7-5.5c-16,11-35,18-54.3,17.7A37.89,37.89,0,0,0,614.9,154.7Z" transform="translate(0)" fill="#5d2515"/><ellipse cx="522.57" cy="91.7" rx="10.8" ry="14" transform="translate(56.29 344.84) rotate(-38.45)" fill="#5d2515"/><path d="M702.7,139.42c-8.3-1.2-19.5,4.2-28.1,14.2-7.1,8.3-10.7,17.8-10.4,25.4C680.5,170.12,698.3,156.72,702.7,139.42Z" transform="translate(0)" fill="#5d2515"/><path d="M669.5,190.2c8.2,6,23.1.8,34-12,10.3-12,13.3-26.58,7.5-34.2C696.4,159.4,675.8,170.2,669.5,190.2Z" transform="translate(0)" fill="#5d2515"/><path d="M747.8,151.82c14,5.8,29.3,6.4,33.4-3.5a13.84,13.84,0,0,0,1-6.1c-14.3-12.9-34.6-16.6-53.4-14.9C727.8,136.52,735.6,146.82,747.8,151.82Z" transform="translate(0)" fill="#5d2515"/><path d="M782.1,140.42c-1.2-9.3-8.8-20.2-19.5-24.6-14.1-5.8-28.8-2.4-32.8,7.6a6.5,6.5,0,0,0-.4,1.2C748,124.22,767.2,128.82,782.1,140.42Z" transform="translate(0)" fill="#5d2515"/><path d="M874.1,131.72c13.1,9.4,32.4,6.4,40.5,20.9,3.7-12.2-8.4-32.8-25.1-40.3-10.5-4.7-21.3-5.3-29.5-2.5C860,119.62,866.6,126.12,874.1,131.72Z" transform="translate(0)" fill="#5d2515"/><path d="M870.4,155.32c15.2,6.8,33.3,9.9,41.1,2.5-7.3-16.2-27.8-16.82-42.4-24.1-7.5-4.7-13.2-12.8-13.1-22a18.05,18.05,0,0,0-7.6,8.1C843.1,131.72,852.9,147.62,870.4,155.32Z" transform="translate(0)" fill="#5d2515"/><path d="M995.9,90.62a40.22,40.22,0,0,0-16.2,11.1c-9.6,11.1-14,19-6.6,31.5C977.2,117.22,985.7,103.22,995.9,90.62Z" transform="translate(0)" fill="#5d2515"/><path d="M1014.1,127.82c10.6-12.3,12.3-28.3,3.7-35.7-3.7-3.2-9.5-4.2-15.6-3.1a104.23,104.23,0,0,0-24.1,50.6C986.4,145.22,1004.5,138.92,1014.1,127.82Z" transform="translate(0)" fill="#5d2515"/><ellipse cx="937.2" cy="148.68" rx="13.51" ry="20.02" transform="translate(452.52 964.49) rotate(-68.3)" fill="#5d2515"/><path d="M1172.3,135.32c7.1-5.6,9.7-14.2,5.8-19.2s-12.9-4.4-20.1,1.2-12.5,17.2-8.6,22.2S1165.2,140.92,1172.3,135.32Z" transform="translate(0)" fill="#5d2515"/><path d="M1315.5,89.32c3.4-20.2,24.4-36.2,44.8-40.6l.8-.3c-9.2-5.6-25.1-5.2-36.3,1.6-13.9,8.5-19.9,24-13.5,34.6A17.29,17.29,0,0,0,1315.5,89.32Z" transform="translate(0)" fill="#5d2515"/><path d="M1361.32,48.54l.08,0-.2-.1-.69.26.79-.16Z" transform="translate(0)" fill="#5d2515"/><path d="M1322,92.62c7.7,2.4,17.4,1.1,26.2-4.2,14-8.5,24.7-24.3,18.2-34.9a16.1,16.1,0,0,0-5.08-5l0,0-.79.16-.21,0C1340.7,56.72,1322.8,71.82,1322,92.62Z" transform="translate(0)" fill="#5d2515"/><path d="M1249.1,105.72c5.4-14.5,23.2-21.6,38.4-22.8a5.57,5.57,0,0,0-.6-1.1c-4.7-7.5-16.6-8.5-26.7-2.3-9.6,6-14.7,20.6-11.1,28.5Z" transform="translate(0)" fill="#5d2515"/><path d="M1251,110.82c5.4,5.2,16.8,1.7,26.1-4.1,8.8-5.5,13.3-14.7,11.2-22C1272.5,88,1256.7,94.92,1251,110.82Z" transform="translate(0)" fill="#5d2515"/><path d="M1485,121.92c13.3,8.4,28.9,8.1,37.3.1-13.9-12.8-34.5-20.1-53.5-20.3C1471.1,109.22,1476.7,116.72,1485,121.92Z" transform="translate(0)" fill="#5d2515"/><path d="M1515.1,111.72c4.1.6,9.1.5,13-1.4,1.2-10.4-5.3-22.32-17.1-29.7-15.1-9.5-33.1-7.9-40.3,3.5a25.28,25.28,0,0,0-1.8,3.7C1480,102.92,1498.5,106.82,1515.1,111.72Z" transform="translate(0)" fill="#5d2515"/><path d="M1442.7,101.69c8.57,1.65,16.2-.57,17-5s-5.42-9.29-14-10.94-16.2.58-17,5S1434.13,100,1442.7,101.69Z" transform="translate(0)" fill="#5d2515"/><path d="M1551.9,133.82c-4.5-7.4-6.3-16.6-3.8-24.1,4.3-14.7,16.1-25.6,28.9-34.8a50.7,50.7,0,0,0-17.2,8.3c-17,12.5-27.7,31.1-18.8,43.1A21.81,21.81,0,0,0,1551.9,133.82Z" transform="translate(0)" fill="#5d2515"/><path d="M1556.1,107.62c-4.8,9.7,2.5,19.4,8.4,28.1a47.53,47.53,0,0,0,27.3-8.9c17.1-12.4,23.7-32.3,14.9-44.4a21.84,21.84,0,0,0-12.8-8.1C1577.1,77.82,1562.5,93.12,1556.1,107.62Z" transform="translate(0)" fill="#5d2515"/><path d="M1614.3,132.72a5.8,5.8,0,0,1,4.8-3c19.7-6.9,43.1-8.9,51.6-29.9-8.3-1.5-20-.1-30.8,3.2-17.8,5.5-30,17.4-27.2,26.7A9.05,9.05,0,0,0,1614.3,132.72Z" transform="translate(0)" fill="#5d2515"/><path d="M1629.1,130.72c-3,0-7.8,2.3-9.5,6,7.1,3.3,18.6,3.5,30.5-.1,17.9-5.5,34-20.7,31.2-29.9a8.73,8.73,0,0,0-5-5.2C1668.9,119.62,1648.2,128.92,1629.1,130.72Z" transform="translate(0)" fill="#5d2515"/><path d="M1829.2,96.72c8.4-5.2,12.4-10,9.5-14.7s-11.5-7.5-20-2.3-13,13.2-10.1,17.9S1820.8,101.92,1829.2,96.72Z" transform="translate(0)" fill="#5d2515"/><path d="M1901.1,80.72c-11-2-22-9-34-7-5.7,0-10.5.9-16,1,4.2,8.6,20.8,14.4,40.8,16.1,14.48,1.21,27.45,0,35.65-3.64V75.07C1919.39,79.34,1910.48,82,1901.1,80.72Z" transform="translate(0)" fill="#5d2515"/><path d="M1850.1,69.42a10.44,10.44,0,0,0,.2,3c14.6-1.2,29.1-3.1,42.8,3.3,10.49,4.53,24.35,3.33,34.45-3.84V62.45c-7.55-5.23-19.17-9.16-32.45-10.33C1871.2,50.12,1851.1,57.82,1850.1,69.42Z" transform="translate(0)" fill="#5d2515"/><ellipse cx="1699.64" cy="113.7" rx="16" ry="10.5" transform="translate(207.95 936.24) rotate(-32.7)" fill="#5d2515"/><path d="M1910.63,43.3c4.94,1.76,10.6-1.44,12.64-7.17S1923,24.34,1918,22.58s-10.6,1.45-12.64,7.17S1905.69,41.54,1910.63,43.3Z" transform="translate(0)" fill="#5d2515"/><path d="M1765.5,112.62c-81.4,16.7-149.7,42.8-231.3,35.6-38.1-3.4-77.1-41.4-114.3-50.1-108.1-25.3-175.6,44.2-270.5,49.8-16.8,1-90.9-11.9-107.8-12.4-29.5-.8-60,19.2-89.7,28.2a16.85,16.85,0,0,1-5.3,1.5,96.2,96.2,0,0,1-12,2.3c-31.2,3.7-38.8-5.1-81.2-6.6-34.7-1.2-93.8,6.5-138.3,10.9-13.4,11.4-24.3,29.2-44,24.9-12.1-2.8-13.8-16-13.2-27.5-18-2.5-37.4-5.3-60-5.3a132.69,132.69,0,0,0-21.8,1.9c-9.9,7-20.2,14-34.1,10.9-13-3.7-22.5-10.9-27.8-22.2a6.59,6.59,0,0,0-3.4-3.2c-26.9-10.5-55.2-21.2-82.7-33.8-51.3-23.4-78.3-.1-134.4,5.9h-.3c5.2,1.6,8.4,7.2,7.4,13.1-1.1,6.4-6.8,10.7-12.6,9.6s-8.1-7.4-7-13.8c.7-4,2.6-7.1,5.4-8.5-8.2.2-14.3-1-30.3-1.7-10.8-.4-33.4-9.3-43.4-13.5C159.65,85.89,119.73,86.32,79.25,90l-.35,0a7.19,7.19,0,0,1-4.2,1.5,6.86,6.86,0,0,1-2.94-.73l-.16-.07-4.3.4a1.91,1.91,0,0,0-1.7,2.08,1.84,1.84,0,0,0,.7,1.2c2.9,2.6,4,6.5,1.7,10-5,8-16,11-26,6-5.7-2.9-5.8-9.8-2.2-14.6a1.24,1.24,0,0,0-.2-1.7.79.79,0,0,0-.8-.2C26.41,95,13.64,95.82,0,95.89V112.1c6.31-2.38,12.39-2.21,16.7,1a1.15,1.15,0,0,1,.5.5A81.35,81.35,0,0,0,0,131.83v7c5.45-8.39,11.94-15.79,20.8-20.4,3.7,8.2,1.1,21.1-7.2,32.4A45.41,45.41,0,0,1,0,163.13v84.78H1927.55v-77.1a49.36,49.36,0,0,1-9.75,10h0c-15.1,11.6-33.1,12-41.7,2.3l-1.5-1.8c25.7,3.57,33.88-25.43,53-38.19v-3.33c-11,4.16-20.4,15.3-29.45,23-8.4,5.6-18.7,6-26.5,12.6-3.6-11.4,5.4-22.6,17.7-32h0c13.26-10.15,29.17-12.17,38.25-5.56v-28.7C1854.36,96.81,1847.28,95.8,1765.5,112.62ZM84.9,141.72c-6.8,4-13.2-.7-17.3-7s-2.7-14.9.8-17c3.1-1.8,11.8-.3,15.9,6.1S93.3,136.82,84.9,141.72ZM94.9,119v0c-8.1-4.2-11.9-8.5-10.5-14.3,10.7-.7,16.6,9.9,22.8,17.7C103.5,122.52,99.3,121.32,94.9,119Zm22.3-2.58a10.86,10.86,0,0,1-6.4,5.5c-5.4-5.4-7.2-15.1-13.7-20.2A19.86,19.86,0,0,0,87,99.32c4.4-5.9,12.8-7.6,21.4-3.1C117.9,101.32,121.1,108.92,117.2,116.42Zm69,15.58v0c-2.5,2.8-7.8,2.1-11.9-1.5s-5.5-8.8-3-11.6,7.8-2.1,11.9,1.5S188.7,129.22,186.2,132Zm289.3,46v0c-11.5-7.1-17.4-18.5-14.1-26.4,4.4,0,8.5.5,11.7,3.1,8.9,8.9,19.8,22.4,33.1,23C501.2,185.32,487.5,185.52,475.5,178Zm32.5-5.58c-13.4.2-24.9-12.3-34.9-20.7-1.7-2.5-5.5-3.6-9.6-3.3,5.7-6.1,18.3-5.8,29.6,1.1C502.9,155.62,508.7,164.92,508,172.42Zm75.7,39.3a49.89,49.89,0,0,1-9.5-8.2c14-.5,28.4.3,40.1,8.5C608,219.12,594.8,219.12,583.7,211.72Zm31.8-1.3-.2.2c-12.9-10.1-28.5-15.3-45-13.1-1.8-4.2-1.8-8.4.9-12.3,5.8-8.6,21.7-12.6,33.4-4.6S621.3,201.82,615.5,210.42Zm244.4-23c-5.4,4.3-12.8,3.9-16.5-.7s-2.2-11.9,3.2-16.2,12.8-3.9,16.5.7S865.3,183.12,859.9,187.42Zm186.3-38h0c5.6-6,11.3-7,16.1-4.8a18.93,18.93,0,0,1-2.2,5.1c-4.9,8.1-17.6,7-21.7,13.2A36.24,36.24,0,0,1,1046.2,149.42Zm-114.3,63.7h0c-7.3-7.3-5.8-20.7,3.4-29.9a22.27,22.27,0,0,1,15.2-6.4c-9.2,6.6-8.4,18.3-8.4,29.9,0,3.6-5,6.4-9.6,6.9C932.3,213.42,932.1,213.32,931.9,213.12Zm30.6-5.6c-7.2,7.2-17.5,11.1-25.1,8.8,4-2.3,8-4.5,8.7-8.6,1-11.7-.9-23.5,10.2-30.5a21,21,0,0,1,11,5.5C974.7,190,971.7,198.32,962.5,207.52Zm65.9-60.7a4.8,4.8,0,1,1,4.8-4.8A4.85,4.85,0,0,1,1028.4,146.82Zm31.2,23.6c-6,6.9-11.5,7.9-19.2,4.5-2.7-1.2-3.4-4.2-3-7.9,2.7-7.9,15-7.5,21.7-13.3,2.6-2.6,4.5-5.2,4.2-8.5a17.63,17.63,0,0,1,2.7,2c5.4,4.9.5,15.3-6.4,23.2Zm189.1-16.3c-5.7,6.5-13.2,9.2-16.7,6.1s-1.9-10.9,3.8-17.4,13.2-9.2,16.7-6.1S1254.3,147.62,1248.7,154.12Zm28.6-22c2.3-4,4.6-6.7,7-8.2.3,9.5-1.3,19.3-6.4,27.1C1272.6,147.22,1272.3,140.92,1277.3,132.12Zm23.3,9.3c-4.5,7.9-11.9,12.5-18,11.6,6.1-8.5,5.6-20.1,5.5-30.4a11.11,11.11,0,0,1,6.7,1.6C1301.4,127.82,1305.9,131.92,1300.6,141.42Zm136.4,27.4c-18.5,0-33.4-10-33.4-22.3a16.42,16.42,0,0,1,2.7-8.8c4.3,4.1,9.3,8,14.9,8,16.2,1,35.1-9.9,49,3.8C1467.9,160.42,1453.9,168.82,1437,168.82Zm26.1-28.1c-14-6-29,3-43,2-4.6-.9-8.4-4.4-12.1-7.3,5.8-6.7,16.6-11.2,29-11.2,18.4,0,33.4,10,33.4,22.2A24,24,0,0,0,1463.1,140.72Zm122.2,28.6h0c-4.9,4.5-11,5.9-13.7,3s-.7-8.8,4.2-13.4,11-5.9,13.7-3S1590.2,164.72,1585.3,169.32ZM1717.4,155c-7.6,5.3-16.2,6.1-19.2,1.8s.6-12.2,8.2-17.5,16.2-6.1,19.2-1.8S1724.9,149.62,1717.4,155Zm143.8-21h0c-6.4,6.4-20.2,9.7-25.1,4.8s-2.9-11.2,3.6-17.7,13.5-7.2,18.4-2.4S1867.6,127.52,1861.2,134Z" transform="translate(0)" fill="#5d2515"/><rect y="247.91" width="1927.55" height="501.51" fill="#5d2515"/></g></svg>