<svg id="aee5cc19-6734-4a90-975c-88aae2fbf8c3" data-name="bf09c82b-3bc6-4156-9080-5dea4ad38586" xmlns="http://www.w3.org/2000/svg" viewBox="0 0 1951.1 749.42"><path d="M21.3,15.8C18.3,4.8,8.5-2-.4.5A14.06,14.06,0,0,0-6.3,3.9C6,11.6,12.9,22.9,16.9,36.2,21.6,31.5,23.5,23.7,21.3,15.8Z" transform="translate(12 0.02)" fill="#5d2515"/><path d="M-7.2,4.8c-4.3,4.7-6,12.4-3.9,20C-8.1,35.7,1.6,42.5,10.6,40a15.66,15.66,0,0,0,3-1.2C10.5,25.4,4.3,12.5-7.2,4.8Z" transform="translate(12 0.02)" fill="#5d2515"/><path d="M37.7,36.2c-9.2,2-16.4,13.4-16.4,25.2,0,13,8.5,23.5,19,23.5a20.87,20.87,0,0,0,6.1-.8v-.4C37.1,70.6,34.7,52.4,37.7,36.2Z" transform="translate(12 0.02)" fill="#5d2515"/><path d="M41.7,35.9c-3.3,16-3.5,33.3,7.3,47.3,7.7-3.5,10.3-11.9,10.3-21.8C59.3,48.8,51.6,36.8,41.7,35.9Z" transform="translate(12 0.02)" fill="#5d2515"/><ellipse cx="89.2" cy="75.42" rx="10" ry="16.2" fill="#5d2515"/><ellipse cx="67.7" cy="101.42" rx="12.5" ry="8.5" fill="#5d2515"/><path d="M149.6,41.5a10.1,10.1,0,0,0-1.3-1.6c-21.7,3-41.7,19.5-50.8,38.7,9.3,11.8,22.5,6.9,36.8-2.9C148.8,65.7,155.7,50.4,149.6,41.5Z" transform="translate(12 0.02)" fill="#5d2515"/><path d="M112.2,43.6c-12.9,8.8-22.8,18-18,29.5,9.2-17.4,28.3-35.2,48.9-36.4C135.1,33.7,123,36.1,112.2,43.6Z" transform="translate(12 0.02)" fill="#5d2515"/><path d="M259.4,109.7c-7-3.5-13.2-9.2-21.3-10a7.88,7.88,0,0,0-1.7,4.9c0,6.5,8.4,11.8,18.8,11.8,7.3,0,13.6-2.6,16.7-6.4C267.2,111.6,261.9,111.4,259.4,109.7Z" transform="translate(12 0.02)" fill="#5d2515"/><path d="M273.3,107.5a7.17,7.17,0,0,0,.6-2.9c0-6.5-8.4-11.8-18.8-11.8a25.36,25.36,0,0,0-13.4,3.5c6.9,0,11.5,5.1,17.6,9.4C263.7,107.8,268.4,107.9,273.3,107.5Z" transform="translate(12 0.02)" fill="#5d2515"/><path d="M384.3,83.4a81.31,81.31,0,0,0-31.9,6.2c-4.4,1.2-7.6,6-7.7,10.6,3,5.3,13.1,7.1,23.8,4.1,11.7-3.3,19.7-11.2,17.9-17.6A7.77,7.77,0,0,0,384.3,83.4Z" transform="translate(12 0.02)" fill="#5d2515"/><path d="M383.1,82.5c-4.5-3-12.6-3.6-21.1-1.2-7.6,2.2-13.7,6.3-16.5,10.7C356.5,84.7,370.2,81,383.1,82.5Z" transform="translate(12 0.02)" fill="#5d2515"/><path d="M345.5,92a8.87,8.87,0,0,0-1.4,6.9,5.91,5.91,0,0,0,.6,1.4c.1-4.6,3.3-9.4,7.7-10.6a81.31,81.31,0,0,1,31.9-6.2,10.59,10.59,0,0,0-1.2-1C370.2,81,356.5,84.7,345.5,92Z" transform="translate(12 0.02)" fill="#5d2515"/><path d="M505.3,101.8c-4.5-6.9-15.4-7.9-27.5-8.8-17.1-1.3-31.5,5.9-32.3,16.1v.5C464.5,117.5,492.1,119.1,505.3,101.8Z" transform="translate(12 0.02)" fill="#5d2515"/><path d="M445.9,113.1c2.5,8.5,14.3,15.6,29,16.7,17.1,1.3,30.7-3.8,32.3-16.1a20.2,20.2,0,0,0-.5-8.8C490.9,121.8,466.9,119.3,445.9,113.1Z" transform="translate(12 0.02)" fill="#5d2515"/><path d="M524.6,123.6a15.94,15.94,0,0,0-3.3,2.5c-8.6,8.6-2.2,25.1,8.5,35.8s26.4,12.5,35,3.9a17.78,17.78,0,0,0,4.9-9C550.6,155.4,538.5,135.9,524.6,123.6Z" transform="translate(12 0.02)" fill="#5d2515"/><path d="M569.9,155.7c1.4-8.1-1.7-17.6-9-24.9-8.9-8.9-24.5-12.2-34.4-8.1C539.4,135.3,551.9,151.5,569.9,155.7Z" transform="translate(12 0.02)" fill="#5d2515"/><path d="M644.8,125.6c-5.4-5.2-15.7-8.8-27.6-8.8-17.4,0-31.5,7.6-31.5,17a13.86,13.86,0,0,0,1.7,6C607.5,140.4,628.1,137.4,644.8,125.6Z" transform="translate(12 0.02)" fill="#5d2515"/><path d="M592.7,146a37.88,37.88,0,0,0,24.5,8.7c17.4,0,31.5-11.5,31.5-20.9a10.16,10.16,0,0,0-1.7-5.5C631,139.3,612,146.3,592.7,146Z" transform="translate(12 0.02)" fill="#5d2515"/><ellipse cx="524.89" cy="91.71" rx="10.8" ry="14" transform="translate(68.77 346.27) rotate(-38.45)" fill="#5d2515"/><path d="M705,139.4c-8.3-1.2-19.5,4.2-28.1,14.2-7.1,8.3-10.7,17.8-10.4,25.4C682.8,170.1,700.6,156.7,705,139.4Z" transform="translate(12 0.02)" fill="#5d2515"/><path d="M713.3,144c-14.6,15.4-35.2,26.2-41.5,46.2,8.2,6,23.1.8,34-12C716.1,166.2,719.1,151.6,713.3,144Z" transform="translate(12 0.02)" fill="#5d2515"/><path d="M731.1,127.3c-1,9.2,6.8,19.5,19,24.5,14,5.8,29.3,6.4,33.4-3.5a14,14,0,0,0,1-6.1C770.2,129.3,749.9,125.6,731.1,127.3Z" transform="translate(12 0.02)" fill="#5d2515"/><path d="M784.4,140.4c-1.2-9.3-8.8-20.2-19.5-24.6-14.1-5.8-28.8-2.4-32.8,7.6a5.64,5.64,0,0,0-.4,1.2C750.3,124.2,769.5,128.8,784.4,140.4Z" transform="translate(12 0.02)" fill="#5d2515"/><path d="M891.8,112.3c-10.5-4.7-21.3-5.3-29.5-2.5,0,9.8,6.6,16.3,14.1,21.9,13.1,9.4,32.4,6.4,40.5,20.9C920.6,140.4,908.5,119.8,891.8,112.3Z" transform="translate(12 0.02)" fill="#5d2515"/><path d="M871.4,133.7c-7.5-4.7-13.2-12.8-13.1-22a18.05,18.05,0,0,0-7.6,8.1c-5.3,11.9,4.5,27.8,22,35.5,15.2,6.8,33.3,9.9,41.1,2.5C906.5,141.6,886,141,871.4,133.7Z" transform="translate(12 0.02)" fill="#5d2515"/><path d="M982,101.7c-9.6,11.1-14,19-6.6,31.5,4.1-16,12.6-30,22.8-42.6A40.23,40.23,0,0,0,982,101.7Z" transform="translate(12 0.02)" fill="#5d2515"/><path d="M1020.1,92.1c-3.7-3.2-9.5-4.2-15.6-3.1a104.16,104.16,0,0,0-24.1,50.6c8.3,5.6,26.4-.7,36-11.8C1027,115.5,1028.7,99.5,1020.1,92.1Z" transform="translate(12 0.02)" fill="#5d2515"/><ellipse cx="941.2" cy="150.69" rx="13.5" ry="20" transform="matrix(0.37, -0.93, 0.93, 0.37, 463.04, 968.2)" fill="#5d2515"/><path d="M1151.7,139.5c-3.9-5,1.4-16.6,8.6-22.2s16.2-6.2,20.1-1.2,1.3,13.6-5.8,19.2S1155.6,144.5,1151.7,139.5Z" transform="translate(12 0.02)" fill="#5d2515"/><path d="M1362.6,48.7l.8-.3c-9.2-5.6-25.1-5.2-36.3,1.6-13.9,8.5-19.9,24-13.5,34.6a17.11,17.11,0,0,0,4.2,4.7C1321.2,69.1,1342.2,53.1,1362.6,48.7Z" transform="translate(12 0.02)" fill="#5d2515"/><path d="M1363.5,48.4l-.8.3,1-.2Z" transform="translate(12 0.02)" fill="#5d2515"/><path d="M1368.7,53.5a16.24,16.24,0,0,0-5.1-5l-1,.2c-19.6,8-37.5,23.1-38.3,43.9,7.7,2.4,17.4,1.1,26.2-4.2C1364.5,79.9,1375.2,64.1,1368.7,53.5Z" transform="translate(12 0.02)" fill="#5d2515"/><path d="M1289.8,82.9a6,6,0,0,0-.6-1.1c-4.7-7.5-16.6-8.5-26.7-2.3-9.6,6-14.7,20.6-11.1,28.5v-2.3C1256.8,91.2,1274.6,84.1,1289.8,82.9Z" transform="translate(12 0.02)" fill="#5d2515"/><path d="M1253.3,110.8c5.4,5.2,16.8,1.7,26.1-4.1,8.8-5.5,13.3-14.7,11.2-22C1274.8,88,1259,94.9,1253.3,110.8Z" transform="translate(12 0.02)" fill="#5d2515"/><path d="M1487.3,121.9c13.3,8.4,28.9,8.1,37.3.1-13.9-12.8-34.5-20.1-53.5-20.3C1473.4,109.2,1479,116.7,1487.3,121.9Z" transform="translate(12 0.02)" fill="#5d2515"/><path d="M1513.3,80.6c-15.1-9.5-33.1-7.9-40.3,3.5a25.28,25.28,0,0,0-1.8,3.7c11.1,15.1,29.6,19,46.2,23.9,4.1.6,9.1.5,13-1.4C1531.6,99.9,1525.1,88,1513.3,80.6Z" transform="translate(12 0.02)" fill="#5d2515"/><ellipse cx="1446.5" cy="93.72" rx="8.1" ry="15.8" transform="translate(1093.22 1496.49) rotate(-79.11)" fill="#5d2515"/><path d="M1550.4,109.7c4.3-14.7,16.1-25.6,28.9-34.8a50.77,50.77,0,0,0-17.2,8.3c-17,12.5-27.7,31.1-18.8,43.1a21.77,21.77,0,0,0,10.9,7.5C1549.7,126.4,1547.9,117.2,1550.4,109.7Z" transform="translate(12 0.02)" fill="#5d2515"/><path d="M1609,82.4a21.89,21.89,0,0,0-12.8-8.1c-16.8,3.5-31.4,18.8-37.8,33.3-4.8,9.7,2.5,19.4,8.4,28.1a47.59,47.59,0,0,0,27.3-8.9C1611.2,114.4,1617.8,94.5,1609,82.4Z" transform="translate(12 0.02)" fill="#5d2515"/><path d="M1673,99.8c-8.3-1.5-20-.1-30.8,3.2-17.8,5.5-30,17.4-27.2,26.7a8.7,8.7,0,0,0,1.6,3,5.79,5.79,0,0,1,4.8-3C1641.1,122.8,1664.5,120.8,1673,99.8Z" transform="translate(12 0.02)" fill="#5d2515"/><path d="M1683.6,106.7a8.79,8.79,0,0,0-5-5.2c-7.4,18.1-28.1,27.4-47.2,29.2-3,0-7.8,2.3-9.5,6,7.1,3.3,18.6,3.5,30.5-.1C1670.3,131.1,1686.4,115.9,1683.6,106.7Z" transform="translate(12 0.02)" fill="#5d2515"/><path d="M1821,79.7c8.5-5.2,17.1-2.4,20,2.3s-1.1,9.5-9.5,14.7-17.7,5.6-20.6.9S1812.5,84.9,1821,79.7Z" transform="translate(12 0.02)" fill="#5d2515"/><path d="M1903.4,80.7c-11-2-22-9-34-7-5.7,0-10.5.9-16,1,4.2,8.6,20.8,14.4,40.8,16.1,23.9,2,43.7-2.5,44.7-14a10.66,10.66,0,0,0-1.4-6.3C1927.4,77.2,1915.8,82.4,1903.4,80.7Z" transform="translate(12 0.02)" fill="#5d2515"/><path d="M1895.4,75.7c12.5,5.4,29.8,2.7,39.8-8.6-6.5-7.5-20.8-13.5-37.8-15-23.9-2-44,5.7-45,17.3a10.12,10.12,0,0,0,.2,3C1867.2,71.2,1881.7,69.3,1895.4,75.7Z" transform="translate(12 0.02)" fill="#5d2515"/><ellipse cx="1701.96" cy="113.72" rx="16" ry="10.5" transform="translate(220.28 937.47) rotate(-32.7)" fill="#5d2515"/><ellipse cx="1916.62" cy="32.92" rx="11" ry="9.5" transform="translate(1253.42 1826.99) rotate(-70.36)" fill="#5d2515"/><path d="M1767.8,112.6c-81.4,16.7-149.7,42.8-231.3,35.6-38.1-3.4-77.1-41.4-114.3-50.1-108.1-25.3-175.6,44.2-270.5,49.8-16.8,1-90.9-11.9-107.8-12.4-29.5-.8-60,19.2-89.7,28.2a16.84,16.84,0,0,1-5.3,1.5,97.69,97.69,0,0,1-12,2.3c-31.2,3.7-38.8-5.1-81.2-6.6-34.7-1.2-93.8,6.5-138.3,10.9-13.4,11.4-24.3,29.2-44,24.9-12.1-2.8-13.8-16-13.2-27.5-18-2.5-37.4-5.3-60-5.3a132.78,132.78,0,0,0-21.8,1.9c-9.9,7-20.2,14-34.1,10.9-13-3.7-22.5-10.9-27.8-22.2a6.64,6.64,0,0,0-3.4-3.2c-26.9-10.5-55.2-21.2-82.7-33.8-51.3-23.4-78.3-.1-134.4,5.9h-.3c5.2,1.6,8.4,7.2,7.4,13.1-1.1,6.4-6.8,10.7-12.6,9.6s-8.1-7.4-7-13.8c.7-4,2.6-7.1,5.4-8.5-8.2.2-14.3-1-30.3-1.7-10.8-.4-33.4-9.3-43.4-13.5C161.8,85.8,121.8,86.3,81.2,90A7.17,7.17,0,0,1,77,91.5a6.81,6.81,0,0,1-3.1-.8l-4.3.4a1.9,1.9,0,0,0-1.7,2.1,1.85,1.85,0,0,0,.7,1.2c2.9,2.6,4,6.5,1.7,10-5,8-16,11-26,6-5.7-2.9-5.8-9.8-2.2-14.6a1.25,1.25,0,0,0-.2-1.7.78.78,0,0,0-.8-.2c-13,1.2-26.4,2-40.8,2,.1,5.5.2,11.2.3,16.9,6.9-3.1,13.7-3.2,18.4.3a1.21,1.21,0,0,1,.5.5A81.31,81.31,0,0,0,.6,134.4v7.1c5.8-9.5,12.7-18,22.5-23.1,3.7,8.2,1.1,21.1-7.2,32.4A45.39,45.39,0,0,1,.4,164.2C0,199.1-.6,234.7.2,266.7c685.3,0,1240,8.05,1926.11,18.15,7.4-38.1,10.19-139.75,12.79-174.15C1857.1,96.9,1852.9,95.1,1767.8,112.6ZM87.2,141.7c-6.8,4-13.2-.7-17.3-7s-2.7-14.9.8-17c3.1-1.8,11.8-.3,15.9,6.1S95.6,136.8,87.2,141.7Zm10-22.7c-8.1-4.2-11.9-8.5-10.5-14.3,10.7-.7,16.6,9.9,22.8,17.7-3.7.1-7.9-1.1-12.3-3.4Zm22.3-2.6a10.9,10.9,0,0,1-6.4,5.5c-5.4-5.4-7.2-15.1-13.7-20.2a19.83,19.83,0,0,0-10.1-2.4c4.4-5.9,12.8-7.6,21.4-3.1C120.2,101.3,123.4,108.9,119.5,116.4Zm69,15.6c-2.5,2.8-7.8,2.1-11.9-1.5s-5.5-8.8-3-11.6,7.8-2.1,11.9,1.5,5.5,8.8,3,11.6Zm289.3,46c-11.5-7.1-17.4-18.5-14.1-26.4,4.4,0,8.5.5,11.7,3.1,8.9,8.9,19.8,22.4,33.1,23C503.5,185.3,489.8,185.5,477.8,178Zm32.5-5.6c-13.4.2-24.9-12.3-34.9-20.7-1.7-2.5-5.5-3.6-9.6-3.3,5.7-6.1,18.3-5.8,29.6,1.1C505.2,155.6,511,164.9,510.3,172.4ZM586,211.7a49.59,49.59,0,0,1-9.5-8.2c14-.5,28.4.3,40.1,8.5-6.3,7.1-19.5,7.1-30.6-.3Zm31.8-1.3-.2.2c-12.9-10.1-28.5-15.3-45-13.1-1.8-4.2-1.8-8.4.9-12.3,5.8-8.6,21.7-12.6,33.4-4.6S623.6,201.8,617.8,210.4Zm244.4-23c-5.4,4.3-12.8,3.9-16.5-.7s-2.2-11.9,3.2-16.2,12.8-3.9,16.5.7S867.6,183.1,862.2,187.4Zm186.3-38c5.6-6,11.3-7,16.1-4.8a19.2,19.2,0,0,1-2.2,5.1c-4.9,8.1-17.6,7-21.7,13.2a35.94,35.94,0,0,1,7.8-13.5ZM934.2,213.1c-7.3-7.3-5.8-20.7,3.4-29.9a22.3,22.3,0,0,1,15.2-6.4c-9.2,6.6-8.4,18.3-8.4,29.9,0,3.6-5,6.4-9.6,6.9C934.6,213.4,934.4,213.3,934.2,213.1Zm30.6-5.6c-7.2,7.2-17.5,11.1-25.1,8.8,4-2.3,8-4.5,8.7-8.6,1-11.7-.9-23.5,10.2-30.5a21,21,0,0,1,11,5.5C977,190,974,198.3,964.8,207.5Zm65.9-60.7a4.8,4.8,0,0,1-4.8-4.8,4.8,4.8,0,1,1,9.6,0h0a4.87,4.87,0,0,1-4.8,4.8Zm31.2,23.6c-6,6.9-11.5,7.9-19.2,4.5-2.7-1.2-3.4-4.2-3-7.9,2.7-7.9,15-7.5,21.7-13.3,2.6-2.6,4.5-5.2,4.2-8.5a17.13,17.13,0,0,1,2.7,2C1073.7,152.1,1068.8,162.5,1061.9,170.4ZM1251,154.1c-5.7,6.5-13.2,9.2-16.7,6.1s-1.9-10.9,3.8-17.4,13.2-9.2,16.7-6.1,1.8,10.9-3.8,17.4Zm28.6-22c2.3-4,4.6-6.7,7-8.2.3,9.5-1.3,19.3-6.4,27.1-5.3-3.8-5.6-10.1-.6-18.9Zm23.3,9.3c-4.5,7.9-11.9,12.5-18,11.6,6.1-8.5,5.6-20.1,5.5-30.4a11.15,11.15,0,0,1,6.7,1.6c6.6,3.6,11.1,7.7,5.8,17.2Zm136.4,27.4c-18.5,0-33.4-10-33.4-22.3a16.27,16.27,0,0,1,2.7-8.8c4.3,4.1,9.3,8,14.9,8,16.2,1,35.1-9.9,49,3.8-2.3,10.9-16.3,19.3-33.2,19.3Zm26.1-28.1c-14-6-29,3-43,2-4.6-.9-8.4-4.4-12.1-7.3,5.8-6.7,16.6-11.2,29-11.2,18.4,0,33.4,10,33.4,22.2a24,24,0,0,0-7.3-5.7Zm122.2,28.6c-4.9,4.5-11,5.9-13.7,3s-.7-8.8,4.2-13.4,11-5.9,13.7-3,.7,8.8-4.2,13.4ZM1719.7,155c-7.6,5.3-16.2,6.1-19.2,1.8s.6-12.2,8.2-17.5,16.2-6.1,19.2-1.8-.7,12.1-8.2,17.5Zm143.8-21c-6.4,6.4-20.2,9.7-25.1,4.8s-2.9-11.2,3.6-17.7,13.5-7.2,18.4-2.4,9.5,8.8,3.1,15.3Zm28.1,9.4c14.1-10.8,31.2-12.4,39.9-4.2-11.7,3.6-21.6,15.5-31.1,23.6-8.4,5.6-18.7,6-26.5,12.6-3.6-11.4,5.4-22.6,17.7-32Zm28.5,37.4c-15.1,11.6-33.1,12-41.7,2.3l-1.5-1.8c25.9,3.6,34-25.9,53.4-38.5a15.93,15.93,0,0,1,2.9-1.5c7.9,10.2,2,27.8-13.1,39.5Z" transform="translate(12 0.02)" fill="#5d2515"/><rect x="12" y="247.91" width="1938.9" height="501.51" fill="#5d2515"/></svg>