<?xml version="1.0" encoding="UTF-8"?>
<svg xmlns="http://www.w3.org/2000/svg" viewBox="0 0 255.12 255.12">
  <defs>
    <style>
      .cls-1 {
        fill: none;
        isolation: isolate;
      }

      .cls-2 {
        fill: #ffd0cc;
      }

      .cls-3 {
        fill: #9a5c38;
      }
    </style>
  </defs>
  <g id="Artboard_1" data-name="Artboard 1" class="cls-1">
    <g id="logo">
      <path id="_4" data-name="4" class="cls-3" d="m153.9,201.19c-3.2,0-6.51-.33-9.89-1.1-14.28-3.25-26.1-13.63-35.14-30.84-8.22-16.25-17.49-24.85-27.57-25.61-14.53-1.13-26.61,14.53-27.59,15.84,11.29,28.44,40.09,48.67,73.85,48.67,12.51,0,24.34-2.79,34.85-7.73-2.7.47-5.55.76-8.51.76Z"/>
      <path id="_3" data-name="3" class="cls-3" d="m81.65,139.04c11.93.89,22.54,10.36,31.55,28.18,8.35,15.91,19.1,25.47,31.92,28.39,15.04,3.42,29.13-3.21,34.86-6.47,10.81-9.17,18.96-21.13,23.22-34.7-6.31,3.94-17.01,9.21-29.2,9.21-2.72,0-5.51-.26-8.34-.86-14.32-3.02-26.44-13.79-36-32.01-10-16.4-22.29-25.94-36.48-28.24-19.77-3.19-37.71,8.71-42.24,12.02-1.52,5.85-2.35,11.96-2.35,18.25,0,7.45,1.15,14.64,3.26,21.44,4.59-5.28,15.9-16.26,29.8-15.2Z"/>
      <path id="_2" data-name="2" class="cls-2" d="m119.61,68.42c16.26,3.58,29.84,13.7,40.37,30.09,14.59,22.92,25.82,27.85,32.67,27.96.08,0,.16,0,.24,0,7.28,0,11.67-5.27,12.5-6.36-6.32-35.58-38.75-62.68-77.83-62.68-16.5,0-31.81,4.84-44.48,13.09,9.91-3,22.93-5.1,36.53-2.11Z"/>
      <path id="_1" data-name="1" class="cls-2" d="m206.24,126.64c-2.88,2.37-7.36,4.93-13.34,4.93-.11,0-.22,0-.33,0-11.92-.19-24.42-10.42-37.15-30.4-9.75-15.17-22.2-24.51-37.01-27.77-21.93-4.82-42.89,5.07-48.76,8.19-7.18,7.39-12.82,16.14-16.45,25.82,8.32-5.05,23.67-12.17,40.75-9.42,15.68,2.53,29.12,12.82,39.96,30.6,8.95,17.04,19.96,26.99,32.8,29.7,17.48,3.7,33.57-7.18,38.09-10.6l.22-.16c.99-4.76,1.52-9.68,1.52-14.71,0-2.07-.11-4.12-.28-6.15Z"/>
    </g>
  </g>
</svg>