<?xml version="1.0" encoding="utf-8"?>
<!-- Generator: Adobe Illustrator 25.4.1, SVG Export Plug-In . SVG Version: 6.00 Build 0)  -->
<svg version="1.1" id="Layer_1" xmlns="http://www.w3.org/2000/svg" xmlns:xlink="http://www.w3.org/1999/xlink" x="0px" y="0px"
	 viewBox="0 0 924.8 240.8" style="enable-background:new 0 0 924.8 240.8;" xml:space="preserve">
<style type="text/css">
	.st0{fill:none;}
	.st1{clip-path:url(#SVGID_00000156550317820226867590000003534561956886288803_);}
	.st2{fill:#FBE8CA;}
	.st3{fill:#9CCCE6;}
	.st4{opacity:0.2;}
	.st5{fill:#CA8E5C;}
	.st6{fill:#B2652B;}
	.st7{fill:none;stroke:#B3662A;stroke-width:6;stroke-miterlimit:10;}
</style>
<g>
	<g id="bdd4f48c-4cbe-4589-8ece-d35732429090">
		<path class="st0" d="M1313,0v159.3c1.1,3.6-2,43.4-2,47.3c0,17.2-60.1,28.3-74.3-9.6c-5,20.2-38.5,30.2-50.3,30.2
			c-23.4,0-43.8-10.4-54-25.7c-10.2,15.3-30.6,25.7-54,25.7c-21.2,0-39.9-8.5-50.8-21.5c-11.2,11-28.3,18-47.6,18
			c-23,0-43.1-10-53.4-24.9c-11.5,14.8-33.6,24.9-59.1,24.9c-22.4,0-42.3-7.8-54.6-19.8c-11.1,12-29.1,19.8-49.4,19.8
			c-17.7,0-33.7-6-44.8-15.5c-12.5,9.5-30.5,15.5-50.4,15.5c-24.8,0-46.4-9.2-58.5-23c-10.7,13.8-30,23-52,23
			c-21.7,0-40.7-8.9-51.5-22.3c-10.8,13.4-29.8,22.3-51.5,22.3c-22,0-41.4-9.2-52.1-23c-10.7,13.8-30,23-52.1,23
			c-20.8,0-39.2-8.2-50.2-20.8c-11,12.5-29.4,20.8-50.2,20.8c-19.2,0-36.3-7-47.5-17.9c-11.2,10.9-28.3,17.9-47.5,17.9
			c-19.8,0-37.4-7.4-48.6-19c-11.8,11.5-30.3,19-51.2,19c-23.6,0-44.2-9.5-55.5-23.6c-9.7,14.1-27.5,23.6-47.9,23.6
			c-18.4,0-34.7-7.7-44.8-19.5c-9.8,13.9-27.4,23.2-47.6,23.2c-20.4,0-38.3-9.5-48-23.7c-13.4,12.3-33.3,20.1-55.5,20.1
			c-21.8,0-41.3-7.5-54.7-19.3c-12.3,6.1-27.6,9.7-44.1,9.7c-39.5,0-83.9-18.1-85.3-43.8L-427.1,0L1313,0z"/>
		<g>
			<defs>
				<path id="SVGID_1_" d="M924.8,0H0v200l0,0c11.2,14.1,31.8,23.6,55.4,23.6c20.9,0,39.5-7.4,51.2-19c11.1,11.5,28.7,19,48.6,19
					c19.2,0,36.3-7,47.5-17.9c11.2,10.9,28.3,17.9,47.5,17.9c20.8,0,39.2-8.2,50.2-20.8c11,12.5,29.4,20.8,50.2,20.8
					c22,0,41.4-9.2,52.1-23c10.7,13.8,30,23,52.1,23c21.7,0,40.7-8.9,51.5-22.3c10.8,13.4,29.8,22.3,51.5,22.3c22,0,41.3-9.2,52-23
					c12,13.8,33.7,23,58.5,23c19.9,0,37.8-6,50.4-15.5c11.1,9.5,27.1,15.5,44.8,15.5c20.3,0,38.3-7.8,49.4-19.8
					c12.2,12,32.1,19.8,54.6,19.8c24.2,0,45.3-9,57.2-22.6L924.8,0z"/>
			</defs>
			<clipPath id="SVGID_00000067949184935780810150000017381640672621738135_">
				<use xlink:href="#SVGID_1_"  style="overflow:visible;"/>
			</clipPath>
			<g style="clip-path:url(#SVGID_00000067949184935780810150000017381640672621738135_);">
				<polyline class="st2" points="1188.8,-111.4 1252.2,228.6 -401.8,228.6 -316.8,-110.8 				"/>
				<path class="st3" d="M176.6-112.2L141.7,59.5H52.9c0,0,20.2-72.7,25.3-97.9c3.6-17.7,9.5-73.7,9.5-73.7"/>
				<path class="st3" d="M325.9-113.8c0,0-5.9,52.5-9,69.5c-4.7,25.7-10.1,104-10.1,104H218c0,0,14.1-56.4,17.4-75.4
					c4-23.6,10.8-95.1,10.8-95.1"/>
				<path class="st3" d="M467.1-110.8l8.5,170.6h-88.8l0.3-63.5c0.1-26.8,8.3-107,8.3-107"/>
				<rect x="52.9" y="59.3" class="st3" width="88.9" height="167.9"/>
				<path class="st3" d="M25.2-110.8L-21,60.7H-110c0,0,31.8-72.6,36.9-97.8c3.6-17.7,21.5-73.7,21.5-73.7"/>
				<rect x="-110" y="60.7" class="st3" width="88.9" height="167.9"/>
				<path class="st3" d="M-122.8-110.8l-61.3,171.5H-273c0,0,26.3-74.4,36.9-97.8c9.4-20.8,36.2-74.9,33.9-73.7"/>
				<polygon class="st3" points="-176.6,227.2 -273,228.6 -273,60.7 -184.1,60.7 				"/>
				<polyline class="st3" points="-252.6,-110.8 -341.4,60.7 -428.1,62.8 				"/>
				<path class="st3" d="M-428.1,62.8c0,0,40.6-69,54.4-90.7c12.8-20.1,44.7-60.9,57-83"/>
				<polyline class="st3" points="-428.1,62.8 -341.4,60.7 -333.9,227.2 -427.9,232.2 				"/>
				<rect x="218" y="59.3" class="st3" width="88.9" height="167.9"/>
				<rect x="386.8" y="59.3" class="st3" width="88.9" height="167.9"/>
				<path class="st3" d="M672.5-112.2l45.9,171.6h88.8c0,0-27.8-90.2-34.2-122.1c-2.4-12-21.5-49.5-21.5-49.5"/>
				<path class="st3" d="M525.3-110.8l28.1,170.6h88.8c0,0-24.6-95.7-28.1-128.4c-1.1-10.5-10.6-42.2-10.6-42.2"/>
				<rect x="718.3" y="59.3" class="st3" width="88.9" height="167.9"/>
				<path class="st3" d="M823.6-110.8l61.4,171.6h88.8c0,0-28.8-72.9-35.2-104.8c-2.4-12-30.8-66.8-30.8-66.8"/>
				<rect x="884.8" y="60.7" class="st3" width="88.9" height="167.9"/>
				<path class="st3" d="M972.8-110.8l77.5,171.6h88.8c0,0-44.5-68-54.8-98.9c-4.6-13.7-36.7-72.8-36.7-72.8"/>
				<rect x="1050.1" y="60.7" class="st3" width="88.9" height="167.9"/>
				<path class="st3" d="M1100.3-110.7l120.4,170.6h92.3c0,0-61.9-69-77.1-97.2c-5.8-10.8-56.4-74-56.4-74"/>
				<polygon class="st3" points="1231.2,227.8 1311.3,227.8 1343.7,59.9 1220.7,59.9 				"/>
				<rect x="553.3" y="59.3" class="st3" width="88.9" height="167.9"/>
				<path class="st0" d="M20.1-138.8v323.6c3.9-9.6,10.2,5.4,15.4,4.3c18.1-3.8,19.7,38.2,70.5,38.3c32.8,0,63-31.5,63-31.5
					s28.9,31.5,49.1,31.5c51.8,0,60.5-30.6,60.5-30.6s19,30.6,65.9,30.6c42.4,0,49.7-30,49.7-30s30.5,30.5,63.5,30
					c52.3-0.7,76.1-35.3,76.1-35.3s34.7,32.5,58.6,35.3c47.2,5.6,75.1-33.2,75.1-33.2s33.5,34.9,61.3,33.7
					c41.1-1.7,54.9-27.6,54.9-27.6s17.8,24.1,33.3,24v-363"/>
				<g class="st4">
					<path class="st5" d="M-426.8,233.6l1861.1,7.8l8.1-192.7c8.7-0.7-263,13.9-369.4,15.6c-128.4,2-511.2-0.3-511.2-0.3
						S272,69,172.4,69c-67.6,0-241.2-4.5-311-5.4c-75.4-0.9-288.5,1.2-288.5,1.2"/>
					<path class="st6" d="M-426.8,233.1c9.7-0.6,19.4-1.1,29.1-1.5c9.7-0.5,19.4-0.9,29.1-1.4c9.7-0.5,19.4-1.2,29.1-1.6
						s19.4-0.5,29.1-0.3s19.4,0.7,29.1,1.4l14.5,1c4.9,0.3,9.7,0.6,14.5,0.9c19.4,0.9,38.8,0.7,58.2,0.1c9.7-0.3,19.4-0.6,29.1-0.7
						s19.4-0.1,29.1,0.2c19.4,0.6,38.8,2.5,58.1,2.8s38.8-0.1,58.2-0.6s38.8-1.3,58.2-1.5c19.4-0.2,38.8-0.1,58.2,0.6
						s38.8,1.9,58.2,2.5c9.7,0.3,19.4,0.5,29.1,0.5s19.4-0.4,29.1-1.2s19.4-1.8,29.1-2c4.8-0.1,9.7-0.2,14.5-0.1
						c4.8,0,9.7,0.2,14.5,0.2c19.4,0.5,38.8,1.8,58.2,2.8c9.7,0.5,19.4,1,29.1,1.2s19.4,0.3,29.1,0.4l116.3,0.5l930.5,4l-0.4,0.4
						l8.1-192.7l0,0l0.4-0.4c0.2-0.2,0.2,1.6,0,0.9h-0.4h-0.9l-1.8,0.1l-3.6,0.2l-7.3,0.3l-14.6,0.7l-29.2,1.5l-58.4,2.8
						c-38.9,1.9-77.8,3.6-116.8,5.3c-38.9,1.6-77.9,3.2-116.8,4.2c-9.7,0.2-19.5,0.4-29.2,0.5c-9.7,0.1-19.5,0.2-29.2,0.3l-58.4,0.3
						c-77.9,0.2-155.9,0.1-233.8-0.2l-116.9-0.5l-58.4-0.3c-4.9-0.1-9.7,0.1-14.6,0.1l-14.6,0.2L508,65.3
						c-77.9,1.3-155.8,2.4-233.8,3.3c-39,0.4-77.9,0.9-116.9,0.7c-39-0.3-77.9-1.1-116.9-1.9l-116.9-2.4c-19.5-0.4-39-0.8-58.4-1
						c-19.5-0.3-39-0.3-58.4-0.3c-77.9,0.1-155.9,0.7-233.8,1.5v-1c77.9-0.7,155.8-1.3,233.8-1.5c19.5,0,39,0,58.5,0.3
						s39,0.6,58.4,1l116.9,2.4c39,0.8,77.9,1.5,116.9,1.9s77.9-0.3,116.9-0.7c77.9-0.9,155.8-2,233.8-3.3l29.2-0.5l14.6-0.2
						c4.9-0.1,9.7-0.2,14.6-0.1l58.4,0.3l116.9,0.5c77.9,0.3,155.8,0.3,233.8,0.2l58.4-0.3c9.7,0,19.5-0.2,29.2-0.3
						c9.7-0.1,19.5-0.3,29.2-0.5c38.9-1,77.9-2.5,116.8-4.2s77.8-3.4,116.8-5.3l58.4-2.8l29.2-1.5l14.6-0.7l7.3-0.4l3.7-0.2l1.8-0.1
						h0.9h0.5c0.2-0.8,0.4,1.1,0.1,0.9l0.4-0.4l-8.1,192.7v0.4h-0.4L503.8,238l-116.3-0.5c-9.7,0-19.4-0.1-29.1,0.1
						s-19.4,0.5-29.1,1c-19.4,0.9-38.8,2-58.2,2.3c-4.8,0.1-9.7,0.1-14.5,0.1s-9.7,0-14.5-0.2c-9.7-0.4-19.4-1.4-29.1-2.3
						s-19.4-1.4-29.1-1.4s-19.4,0-29.1,0.3c-19.4,0.4-38.8,1.5-58.2,2s-38.8,0.5-58.2,0.1s-38.8-1.3-58.1-2s-38.8-1.2-58.1-1.1
						s-38.8,1.9-58.2,2.3c-9.7,0.2-19.4,0.2-29.1,0s-19.4-0.6-29.1-1c-19.4-0.8-38.8-1.2-58.1-0.4c-4.9,0.2-9.7,0.5-14.5,0.7
						l-14.5,0.9c-9.7,0.6-19.4,1-29.1,1.1s-19.4-0.1-29.1-0.6s-19.4-1.3-29.1-1.9s-19.4-1.1-29.1-1.7s-19.4-1.3-29.1-1.9V233.1z"/>
				</g>
				<path id="a3e4af59-44e9-47b4-b334-7e6e762ce7e9" class="st7" d="M931.7-10.1L-36-19.3l7,209.4L0,200l0,0
					c11.2,14.1,31.8,23.6,55.5,23.6c20.9,0,39.5-7.4,51.2-19c11.1,11.5,28.7,19,48.6,19c19.2,0,36.3-7,47.5-17.9
					c11.2,10.9,28.3,17.9,47.5,17.9c20.8,0,39.2-8.2,50.2-20.8c11,12.5,29.4,20.8,50.2,20.8c22,0,41.4-9.2,52.1-23
					c10.7,13.8,30,23,52.1,23c21.7,0,40.7-8.9,51.5-22.3c10.8,13.4,29.8,22.3,51.5,22.3c22,0,41.3-9.2,52-23
					c12,13.8,33.7,23,58.5,23c19.9,0,37.8-6,50.4-15.5c11.1,9.5,27.1,15.5,44.8,15.5c20.3,0,38.3-7.8,49.4-19.8
					c12.2,12,32.1,19.8,54.6,19.8c24.2,0,45.3-9,57.2-22.6l25.9-16.1L931.7-10.1z"/>
			</g>
		</g>
	</g>
</g>
</svg>
