<?xml version="1.0" encoding="utf-8"?>
<!-- Generator: Adobe Illustrator 25.4.1, SVG Export Plug-In . SVG Version: 6.00 Build 0)  -->
<svg version="1.1" id="Layer_1" xmlns="http://www.w3.org/2000/svg" xmlns:xlink="http://www.w3.org/1999/xlink" x="0px" y="0px"
	 viewBox="0 0 1920.5 671.5" style="enable-background:new 0 0 1920.5 671.5;" xml:space="preserve">
<style type="text/css">
	.st0{fill:#5D2515;}
	.st1{fill:none;stroke:#F9F4ED;stroke-width:10;stroke-miterlimit:10;}
	.st2{fill:#FBE8CA;}
</style>
<g id="a6e9e706-552e-4730-8793-4ad3ea7ba594">
	<path class="st0" d="M1920.5,0H1.7l-1,479.3c0,0,14.6-18.1,139.2-19.2c15.1-0.1,78.6,3.2,143.7,12.8
		c-92.2-13.6-177.7,16.1-261.7,50c-5.7,2.3-11.7,4.9-15.2,9.9c-3.4,4.9-3.7,11.2-4,17.1C1.8,572.9,0.8,596,0,619
		c78.4-70,179-113,282.8-129.4c153.6-24.3,310.7,6.6,451.3,69.8c100.9,45.4,215.7,56,325.2,52.7c85.7-2.6,166-31.5,250.4-41.6
		c87.8-10.4,176.8-3.2,263.6,11.2c116.6,19.3,230.8,51.3,347.2,71.4V0z M1596.1,509.7c-116.6-12-237.4,2.1-352.6,24.3
		c-79.6,15.3-156.4,39.8-237.6,46.6c-103.8,8.6-208-8.6-303.5-50.2c115.9,27.6,236.5,22.3,353.4,4.2c109.5-17,381.1-85.2,595.6-33.6
		c30.2,7.2,82.7,28.2,135.9,51.3c-8.3-1.4-14.4-2.1-16.7-2.8C1712,532.5,1656.1,515.9,1596.1,509.7z"/>
</g>
<g id="fb8d1aa7-49b0-4bd9-b89b-f095f2e8406c">
	<path class="st1" d="M1988.9,366.2c-65.4-10.4-170.2-77.9-491.4-77.9c-393.2,0-565.2,219.9-1025.1,279.6
		c-127.7,16.6-329.1,28.8-587.6-17.7"/>
	<path class="st1" d="M-37.2,608.2c318.1,56.8,452.3,62.1,645.6,20.4c351-75.8,544.4-256.2,876.4-287.2
		c223.7-20.9,425,82.7,538.5,126.4"/>
</g>
<g id="b9ff2c0e-b2df-4520-8169-e32379740d5a">
	<path class="st0" d="M296.7,515.6l-17-3.6c-2.5-0.5-3.5-5.5-3.5-5.5c0.5-2.5,22.4,0.1,22.4,0.1c2.5,0.5,4.1,3,3.5,5.5l0,0
		C301.6,514.5,299.1,516.1,296.7,515.6z"/>
	<path class="st0" d="M335,522.5c0,0-19.6,2.7-20.2,0.2l0,0c-0.6-2.5,18-9.2,18-9.2c2.5-0.6,5,0.9,5.6,3.4l0,0
		C339,519.4,337.5,521.9,335,522.5z"/>
	<path class="st0" d="M22.8,501.3L-0.7,507c-2.5,0.6-5-0.9-5.6-3.4l0,0c-0.6-2.5,0.9-5,3.4-5.6c0,0,28.5-4.9,29.1-2.4l0,0
		C26.8,498.1,25.3,500.6,22.8,501.3C22.8,501.3,22.8,501.3,22.8,501.3z"/>
	<path class="st0" d="M688.9,579.5c-1.9-1-2.5-3.4-1.5-5.3c0.1-0.2,0.2-0.3,0.3-0.5c0,0,4.1-3.3,6.2-2l20.2,13.3
		c2.1,1.4,2.7,4.3,1.3,6.4L688.9,579.5z"/>
	<path class="st0" d="M529.7,523.7c-2.5,0.2-4.8-1.7-5-4.2l0,0c-0.2-2.5,1.6-4.8,4.2-5c0,0,0,0,0,0l24.1-2.1c2.5-0.2,4.8,1.7,5,4.2
		l0,0C558.2,519.2,529.7,523.7,529.7,523.7z"/>
	<path class="st0" d="M1166.6,628.2c-2.4-1-3.5-3.6-2.5-6c0,0,0,0,0,0l0,0c0.9-2.3,28.4,6.6,28.4,6.6c2.4,1,3.5,3.6,2.5,6l0,0
		C1194.1,637.2,1166.6,628.2,1166.6,628.2z"/>
	<path class="st0" d="M1385.1,465.7l22.5,9.1c2.4,1,3.5,3.6,2.5,6l0,0c-1,2.4-3.6,3.5-6,2.5l-22.5-9.1c-2.4-1-3.5-3.6-2.5-6l0,0
		C1380.1,465.9,1382.7,464.7,1385.1,465.7z"/>
	<path class="st0" d="M1241.3,624.2l-14.9,0.6c-2.5,0.1-4.8-4.4-4.8-4.4c-0.1-2.5,1.9-4.7,4.4-4.8l14.9-0.6
		C1243.5,614.9,1243.8,624.1,1241.3,624.2z"/>
	<path class="st0" d="M1503.8,592.1l-14.9,0.6c-2.5,0.1-2.9-9.1-0.3-9.2c0,0,19.6,1.3,19.7,3.9l0,0
		C1508.4,589.8,1506.4,592,1503.8,592.1z"/>
	<path class="st0" d="M1206.2,611l-14.9,0.6c-2.5,0.1-4.7-1.9-4.8-4.4l0,0c-0.1-2.5,24-3.5,24.1-0.9l0,0
		C1210.7,608.8,1208.7,610.9,1206.2,611z"/>
	<path class="st0" d="M879.6,624.2l-14.9,0.6c-2.5,0.1-4.8-4.4-4.8-4.4c-0.1-2.5,1.9-4.7,4.4-4.8c0,0,19.6,1.3,19.7,3.9l0,0
		C884.1,621.9,882.1,624.1,879.6,624.2z"/>
	<path class="st0" d="M1813.8,670.1c0,0-28.8,2.9-29.2,0.4l0,0c-0.4-2.5,27.6-9.5,27.6-9.5c2.5-0.4,4.9,1.3,5.3,3.8l0,0
		C1817.9,667.3,1816.3,669.7,1813.8,670.1z"/>
	<path class="st0" d="M1811.2,653c-2.5,0.4-5.3-3.8-5.3-3.8c-0.4-2.5,1.3-4.9,3.8-5.3c0,0,15.2-0.5,15.6,2l0,0
		C1825.6,648.4,1811.2,653,1811.2,653z"/>
	<path class="st0" d="M1660.1,629.1c-2.5-0.1-4.5-2.3-4.4-4.8l0,0c0.1-2.5,2.3-4.5,4.8-4.4c0,0,14.9,2.8,14.8,5.3l0,0
		C1675.2,627.7,1660.1,629.1,1660.1,629.1z"/>
	<path class="st0" d="M774.5,594.3l-10.8,5.2c-2.3,1.1-6.1-2.2-6.1-2.2c-1.1-2.3-0.1-5,2.2-6.1c0,0,15.9-5.3,17-3l0,0
		C777.7,590.4,776.7,593.2,774.5,594.3z"/>
	<path class="st0" d="M868.9,578.7l-11.7,2.9c-2.5,0.6-4.9-0.9-5.6-3.4l0,0c-0.6-2.5,0.9-5,3.4-5.6c0,0,16.6-2,17.2,0.5l0,0
		C872.8,575.6,871.3,578.1,868.9,578.7z"/>
</g>
<g id="b4da1a20-cdec-416c-8098-2ae37867caf0">
	<path class="st2" d="M1395.6,491.9l-24.6-8.3c-1.7-0.6,0.4-6.7,2.1-6.2l24.6,8.3c1.7,0.6,2.6,2.4,2,4.1l0,0
		C1399.1,491.6,1397.3,492.5,1395.6,491.9z"/>
	<path class="st2" d="M1513.1,487.1c-1,1.5-3,1.9-4.5,0.9l0,0c-1.5-1-1.9-3-0.9-4.5c0,0,17.6-23.4,19-22.4l0,0
		C1528.2,462,1513.1,487.1,1513.1,487.1z"/>
	<path class="st2" d="M1808.5,525.7c-1.8-0.1-3.2-1.6-3.1-3.4l0,0c0.1-1.8,1.6-3.2,3.4-3.1c0,0,8.1,1.8,8.1,3.6l0,0
		C1816.8,524.6,1808.5,525.7,1808.5,525.7z"/>
	<path class="st2" d="M1834,522.3c0,0-16-5.7-15.6-7.4l0,0c0.5-1.7,2.2-2.8,4-2.3c0,0,0,0,0,0l13.2,3.5c1.7,0.5,2.8,2.2,2.3,4
		c0,0,0,0,0,0l0,0C1837.5,521.7,1835.7,522.7,1834,522.3C1834,522.3,1834,522.3,1834,522.3z"/>
	<path class="st2" d="M91.7,439.5c-1.1-0.2-1.8-1.3-1.6-2.3c0,0,1.3-1.8,2.3-1.5c0,0,23.4,5.6,23.2,6.7l0,0
		C115.5,443.3,91.7,439.5,91.7,439.5z"/>
	<path class="st2" d="M240.5,448.6c0,0-11.1,2.7-11.5,1.6l0,0c-0.3-1,10.3-5.4,10.3-5.4c1-0.3,2.1,0.2,2.5,1.3l0,0
		C242.1,447.2,241.5,448.3,240.5,448.6z"/>
	<path class="st2" d="M243.6,457.1c-1.1-0.1-1.8-1.1-1.7-2.2l0.1-1.1c0.1-1.1,1.1-1.9,2.2-1.7c0,0,15.8,2.8,15.7,3.9l-0.1,1.1
		C259.7,458.1,243.6,457.1,243.6,457.1z"/>
	<path class="st2" d="M368.3,467.7l-12.2-7c-0.9-0.6-1.3-1.8-0.7-2.7c0,0,2.3-2.2,3.2-1.7l12.2,7
		C371.8,463.9,369.3,468.2,368.3,467.7z"/>
	<path class="st2" d="M372.5,451.7c0,0,10-12.6,10.9-12l0.9,0.6c0.9,0.6-7.7,14.2-7.7,14.2c-0.6,0.9-1.9,1.1-2.8,0.5l-0.9-0.6
		C372.1,453.7,371.9,452.5,372.5,451.7z"/>
	<path class="st2" d="M637.3,478.7c1.1-0.2,2.1,0.5,2.3,1.5l0.2,1.1c0.2,1.1-0.5,2.1-1.5,2.3c0,0-15.9,2.3-16.1,1.2l-0.2-1
		C621.8,482.7,637.3,478.7,637.3,478.7z"/>
	<path class="st2" d="M841.6,488.8c0,0,14.8,6.2,14.5,7.2l-0.4,1c-0.4,1-15.8-3.5-15.8-3.5c-1-0.4-1.6-1.5-1.2-2.5l0.4-1
		C839.5,489,840.6,488.5,841.6,488.8z"/>
	<path class="st2" d="M1056.8,529c0,0,15.2-5.4,15.6-4.4c0,0,0.4,3.2-0.6,3.6l-13,5.4C1057.8,534,1055.8,529.4,1056.8,529z"/>
	<path class="st2" d="M1133.2,480.3c0,0,15.2,5.4,14.8,6.4l-0.3,1c-0.3,1-16-2.7-16-2.7c-1-0.3-1.6-1.4-1.3-2.5l0.3-1
		C1131,480.6,1132.1,480,1133.2,480.3z"/>
</g>
</svg>
