<?xml version="1.0" encoding="UTF-8"?>
<svg xmlns="http://www.w3.org/2000/svg" xmlns:xlink="http://www.w3.org/1999/xlink" viewBox="0 0 1920 1080">
  <defs>
    <style>
      .cls-1 {
        fill: url(#linear-gradient);
      }

      .cls-1, .cls-2, .cls-3, .cls-4 {
        opacity: .35;
      }

      .cls-5 {
        stroke-linecap: square;
      }

      .cls-5, .cls-6 {
        opacity: .85;
        stroke: #fff;
        stroke-width: 6px;
      }

      .cls-5, .cls-6, .cls-7, .cls-8 {
        fill: none;
        stroke-miterlimit: 10;
      }

      .cls-9 {
        fill: #fff;
      }

      .cls-10 {
        fill: #ffda47;
      }

      .cls-11 {
        fill: #f18e87;
      }

      .cls-12 {
        fill: #ba5d3d;
      }

      .cls-13 {
        fill: #b5c364;
      }

      .cls-14 {
        fill: #b5683c;
      }

      .cls-15 {
        fill: #b37a59;
      }

      .cls-16 {
        fill: #bcc474;
      }

      .cls-17 {
        fill: #c9bb7c;
      }

      .cls-18 {
        fill: #cc7960;
      }

      .cls-19 {
        fill: #c8c784;
      }

      .cls-6, .cls-7, .cls-8 {
        stroke-linecap: round;
      }

      .cls-7 {
        stroke: #b36639;
      }

      .cls-7, .cls-8 {
        stroke-width: 7px;
      }

      .cls-8 {
        stroke: #9a5c38;
      }

      .cls-2 {
        fill: url(#New_swatch_9);
      }

      .cls-20 {
        fill: #fad53f;
        opacity: .16;
      }

      .cls-21 {
        fill: url(#linear-gradient-3);
      }

      .cls-3 {
        fill: url(#linear-gradient-2);
      }

      .cls-22, .cls-23 {
        opacity: .86;
      }

      .cls-22, .cls-4 {
        fill: #ffd0cc;
      }

      .cls-23 {
        fill: #ffdcd9;
      }
    </style>
    <linearGradient id="linear-gradient" x1="257.82" y1="-12.86" x2="141.45" y2="492.54" gradientUnits="userSpaceOnUse">
      <stop offset="0" stop-color="#ffd0cc"/>
      <stop offset=".57" stop-color="#fececa"/>
      <stop offset=".77" stop-color="#fbc7c3"/>
      <stop offset=".91" stop-color="#f6bcb7"/>
      <stop offset="1" stop-color="#f2b2ac"/>
    </linearGradient>
    <linearGradient id="linear-gradient-2" x1="617.85" y1="151.37" x2="610.75" y2="-26.62" gradientUnits="userSpaceOnUse">
      <stop offset="0" stop-color="#ffd0cc"/>
      <stop offset=".32" stop-color="#fecdc9"/>
      <stop offset=".53" stop-color="#fcc4c0"/>
      <stop offset=".72" stop-color="#f9b6b1"/>
      <stop offset=".88" stop-color="#f5a29c"/>
      <stop offset="1" stop-color="#f18e87"/>
    </linearGradient>
    <linearGradient id="New_swatch_9" data-name="New swatch 9" x1="1803.06" y1="369.08" x2="1737.48" y2="-11.86" gradientUnits="userSpaceOnUse">
      <stop offset="0" stop-color="#ffd0cc"/>
      <stop offset=".36" stop-color="#fecdc9"/>
      <stop offset=".56" stop-color="#fcc5c1"/>
      <stop offset=".73" stop-color="#fab8b3"/>
      <stop offset=".87" stop-color="#f6a59f"/>
      <stop offset="1" stop-color="#f18e87"/>
    </linearGradient>
    <linearGradient id="linear-gradient-3" x1="977.21" y1="1195.08" x2="897.26" y2="776.71" gradientUnits="userSpaceOnUse">
      <stop offset="0" stop-color="#f18e87"/>
      <stop offset=".57" stop-color="#f18c85"/>
      <stop offset=".77" stop-color="#f1857e"/>
      <stop offset=".92" stop-color="#f17a72"/>
      <stop offset="1" stop-color="#f27168"/>
    </linearGradient>
  </defs>
  <g id="Layer_7" data-name="Layer 7">
    <rect class="cls-10" x="3.5" y="-23.92" width="1920" height="730"/>
  </g>
  <g id="Nubes">
    <g>
      <path class="cls-9" d="m116.95-48.17c92.25,24.42,162.17,118.95,160.07,220.11,33.62-32.26,143.11-9.82,185.31,47.73,31.27,3.82,61.43,16.78,88.87,39.34,21.12,5.56,42.24,11.12,63.74,16.71.89-3.48-6.87-12.53-5.97-16.01,15.4,4.76,62.73,37.93,43.04,42.01-14.17,2.94-59.81-7.14-95.5-15.53-14.03,16.78-25.9,26.87-41.97,44.39-31.33,5.17-187.38,42.74-234.82,53.78-75.07,17.47-407.56-9.6-388.77-170.09,13.96-73.47,13.28-162.23,44.24-228.68C-7.23-26.54,51.85-65.4,116.95-48.17Z"/>
      <path class="cls-9" d="m553.07,10.9c-34.03-22.45-76.27-31.34-115.37-15.84,71.73,98.74,184.84,164.46,304.61,177.57,3.98-3.39,7.97-6.78,12.77-11.45,18.54,12.58,37.08,25.16,58.01,41.67,2.9,3.09,5.81,6.17,11.12,11.58,17.96,7.28,35.93,14.56,51.34,21.7,4.09-9.94-1.19-22.84-11.09-28.43-65.89-70.73-131.77-141.45-197.53-211.04,8.03,2.44,35.05-26.12,43.08-23.68-13.22-11.13-45.44,8.74-61.62-5.95-57.13.23-114.26.46-171.83-2.26-11.7,10.7-23.39,21.4-28.03,33.87,33.34,4.48,66.68,8.97,104.56,12.27Z"/>
      <path class="cls-9" d="m755.15,243.78c-28.36-19.62-62.64-30.03-98.18-29.24-4.69-4.95-9.39-9.91-14.08-14.86,6.63-1.02,13.25-2.04,20.41-3.68,47.36,8.07,92.85,27.54,130.66,56.06-12.96,3.89-26.88-.03-38.81-8.28Z"/>
      <path class="cls-9" d="m1576.31-19.58c4.18,49.71-22.27,100.77-65.94,126.56,1.71,6.15,3.43,12.29,4.27,18.4-32.33,23.93-70.65,39.21-108.4,43.43-19-38.02-21.61-84.34-7.01-124.37,14.6-40.03,46.18-73.14,84.8-88.9,27.39,12.55,57.86,17.94,92.28,24.88Z"/>
      <path class="cls-9" d="m1632.55-19.42c-55.33,68.34-72.15,166.41-42.55,254.57-21.57,31.9-43.13,64.92-70.51,102.01-17.42,7.66-33.66,25.11-36.17,43.32,19.74-10.92,156.58-34.91,228.27-45.7,38.24,50.79,207.9,19.03,293.89-41.21,1.34-98.78,2.68-197.57,4-308.07-127.7-1.05-255.41-2.09-376.92-4.93Z"/>
      <path class="cls-9" d="m1311.26,141.86l19.97-15.47c-44.19,19.16-84.1,48.1-116.03,84.16-.96-4.2-1.92-8.39-2.88-12.59,3.17-.74,6.33-1.47,9.5-2.21-1.22,3.24-2.43,6.48-3.65,9.72,31.45-20.9,63.65-40.81,93.09-63.61Z"/>
      <path class="cls-1" d="m-100.23,24.91C-36.15-2.92,39.32-1.53,102.39,28.64c63.07,30.17,112.77,88.65,135.28,161.92,27.17-2.7,55,15.52,67.44,38.2,82.46-5.49,166.61,24.8,227.1,83.97-3.84,9.61-7.68,19.21-16.84,19.77-328.99,87.68-441.26,78.22-615.47-43.18-20.2-82.08-19.48-169.52-.13-264.4Z"/>
      <path class="cls-3" d="m487.58-34.74c-6.28-7.22,58.36,29.78,51.88,20.5,42.52.79,76.79-1.62,113.39-5.17,48.59,53.11,105.42,109.4,151.5,163.97-4.8,7.9-12.27,24.17-16.97,23.88-7.51-.46-66.98-30.59-66.98-30.59,0,0,2.56,20.01-31.54,15.93-109.49-13.09-194.74-109.33-265.49-196.12,43.26,22.24,15.61.26,64.22,7.61Z"/>
      <path class="cls-4" d="m1555.84-17.73c-33.82,2.24-51.43,7.9-86.1,5.62-66.55,53.77-80.81,140.11-42.26,137.37-17.52,12.06-2.82,43.04,11.69,37.1,26.43-10.83,44.15-11.95,77.76-36.86-2.2-7.38-1.99-12.57-6.56-18.53,25.99-11.75,44.8-36.4,55.49-63.46,10.69-27.06,18.28-60.63,7.36-85.35,1.03,7.86-21.73,14.52-17.38,24.1Z"/>
      <path class="cls-2" d="m1707.51-6.7c-45.12,20.04-81.35,60.32-97.28,108.16-15.93,47.85-11.33,102.52,13.37,148.06-14.23-3.91-30.63,3.69-37.21,17.25-6.58,13.56-2.63,31.62,7.35,39.97-23.66,8.36-40.11,34.54-36.87,58.64,50.95-9.33,101.9-18.67,153.1-20.65,61.36,50.1,198.97,10.96,291.92-45.8,21.26-102.44.45-195.13-17.2-301.13-96.95-.56-193.9-1.12-277.19-4.51Z"/>
    </g>
    <g id="Layer_21" data-name="Layer 21">
      <path class="cls-9" d="m1542.99,496.29c6.47-2.98,1.76-21.01-.25-22.27-10.38-6.52,2.1-22.15,13.53-26.58s25.81,2.85,30.99,13.96c-36.41-7.78-9.54,14.23-10.56,21.52-1.65,11.75-20.44,6.6-33.71,13.37Z"/>
      <path class="cls-9" d="m1574.53,429.13c-32.4-78.5,95.97-32.88,75,18.62-6.57,12.53-38.2-4.03-43.06-17.59-3.64-1.11-26.41,11.36-31.94-1.03Z"/>
      <path class="cls-9" d="m1623.34,440.36c-1.57-2.38-3.21-4.82-5.59-6.39s-5.73-2.02-8.02-.32-2.46,5.86.08,7.15c3.93,2,5.2,7.86,2.44,11.31s-8.75,3.49-11.57.09c3.75-3.45,5.27-9.13,3.73-13.99s-6.06-8.63-11.11-9.28c-3.1-.4-5.59-3.49-5.32-6.6s3.25-5.73,6.37-5.59c11.74.51,22.79,8.61,29,23.62Z"/>
      <path class="cls-9" d="m1652.02,384.02c2.96,1.61,6,3.29,7.75,5.78s1.79,6.01-.91,8.1c-2.7,2.09-8.17,1.33-8.62-1.53-1.58-10.05-10.82-18.79-22.96-21.74,10.18-.68,17.52,5.47,24.74,9.39Z"/>
    </g>
  </g>
  <g id="Layer_12" data-name="Layer 12">
    <path class="cls-13" d="m1290.43,619.35c7.39-17.18-4.76-39.71-23.18-42.98-18.42-3.27-37.58,13.7-36.55,32.38-2.85-4.13-8.85-5.73-13.38-3.56s-7.04,7.84-5.61,12.66c-17.54-1.08-35.08,10.78-40.61,27.47,39.17-9.73,78.34-19.46,119.33-25.96Z"/>
    <path class="cls-13" d="m1137.34,642.19c-4.89-11.82-18.75-19.15-31.28-16.56-12.52,2.6-22.33,14.83-22.12,27.62-23.25-7.37-51.11,8.33-56.83,32.04,37.22-13.36,74.44-26.71,110.23-43.11Z"/>
    <path class="cls-13" d="m1044.5,668.13c-19.53-19.79-57.55-15.2-71.81,8.67-3.63-14.11-17.7-24.8-32.26-24.51-14.57.29-28.2,11.52-31.28,25.76,58.25,30.43,92.05,14.93,135.35-9.92Z"/>
    <path class="cls-13" d="m1751.78,613.9c-3-14.05,5.88-29.65,19.5-34.24,13.62-4.59,30.13,2.45,36.24,15.45,13.47-24.93,46.58-37.14,73.01-26.91,26.43,10.22,42.7,41.54,35.88,69.04-59.17-5.48-118.34-10.96-164.64-23.35Z"/>
    <path class="cls-13" d="m94.37,573.51c-1.21-13.56,12.93-24.5,26.53-25.08s26.34,6.07,38.31,12.55c-4.94-8.49.51-21.06,10.09-23.26,9.57-2.2,19.96,6.74,19.22,16.53,5.14-33.6,45.34-56.76,76.98-44.35,31.64,12.4,45.39,56.72,26.33,84.85-65.84-8.33-131.68-16.66-197.45-21.24Z"/>
    <path class="cls-13" d="m46.86,573.25c8.22-6.72,7.7-21.41-.97-27.53s-22.69-1.7-26.27,8.29c-1.96-12.61-12.31-23.47-24.81-26.04-12.5-2.57-26.29,3.33-33.07,14.14,18.74,27.53,57.57,39.29,88.43,26.79-1.28-.59-2.55-1.18-3.3,4.36Z"/>
  </g>
  <g id="Layer_16" data-name="Layer 16">
    <polygon class="cls-12" points="1501.47 598.57 1498.1 526.2 1565.24 523.34 1568.61 595.7 1501.47 598.57"/>
    <polygon class="cls-15" points="1567.36 585.51 1565.24 523.34 1577.25 527.88 1580.69 586.81 1567.36 585.51"/>
    <g id="Layer_18" data-name="Layer 18">
      <path class="cls-12" d="m1564.43,525.36c-10.73-5.17-21.46-10.35-33.67-15.79-11.21,6.33-22.43,12.66-32.39,18.92,22.12,3.16,45.1,2.66,66.06-3.12Z"/>
      <path class="cls-9" d="m1577.53,529.98c-11.12-13.44-36.75-30.15-48.93-22.58,12.18,9.7,26.08,16.98,30.5,19.19,4.59,1.59,14.47,2.02,18.43,3.39Z"/>
      <path class="cls-9" d="m1498.37,530.42c-.39-.5-.34-1.85-.52-3.59,11.11-7.77,22.22-13.98,33.33-21.76.47.77,3.29,1.58,3.77,2.34-.61.4-25.85,15.73-36.58,23Z"/>
    </g>
    <g id="Layer_19" data-name="Layer 19">
      <line class="cls-5" x1="1549.15" y1="581.73" x2="1513.39" y2="582.55"/>
      <line class="cls-5" x1="1511.35" y1="547.64" x2="1513.46" y2="583.83"/>
      <line class="cls-6" x1="1511.35" y1="547.64" x2="1549.15" y2="581.73"/>
      <line class="cls-6" x1="1516.4" y1="581.73" x2="1548.45" y2="545.33"/>
      <line class="cls-5" x1="1511.35" y1="547.05" x2="1548.45" y2="545.33"/>
      <line class="cls-5" x1="1548.45" y1="545.33" x2="1549.85" y2="582.55"/>
    </g>
  </g>
  <g id="Layer_23" data-name="Layer 23">
    <line class="cls-7" x1="137.15" y1="509.82" x2="80.43" y2="509.51"/>
    <line class="cls-8" x1="96.86" y1="463.89" x2="52.72" y2="586.44"/>
    <line class="cls-8" x1="123.28" y1="467.49" x2="171.61" y2="597.67"/>
    <g id="Layer_22" data-name="Layer 22">
      <path class="cls-11" d="m78.31,458.94c6.66-6.76,13.38-13.47,19.94-20.34-1.8.07-3.6.14-5.39.2-9.83.32-19.86.89-29.89,1.09,1.03,9.12,4.84,17.4,10.56,24,1.58-1.66,3.18-3.31,4.79-4.95Z"/>
      <path class="cls-11" d="m85.44,464.73c-1.7,1.81-3.36,3.69-5.02,5.6,6.76,5.1,15.03,8.34,24.02,8.94.04-1.21.08-2.42.09-3.61.11-10.36-.02-20.73-.13-31.09-6.27,6.77-12.63,13.45-18.96,20.17Z"/>
      <path class="cls-11" d="m71.3,408.66c-4.68,6.35-7.71,13.98-8.44,22.26,10.32,0,20.67-.31,30.98-.55,1.42-.03,2.84-.07,4.26-.11-9.08-6.99-18.32-13.97-26.79-21.6Z"/>
      <path class="cls-11" d="m91.49,415.33c4.21,3.51,8.45,6.99,12.68,10.48-.15-11.75-.3-23.5-.41-35.26-10.64.87-20.22,5.43-27.45,12.39,4.92,4.29,10.17,8.23,15.18,12.39Z"/>
      <path class="cls-11" d="m145.34,458.72c4.13-6.44,6.63-14,6.94-22.13-11.15.28-22.3.73-33.45,1.2,8.77,7.07,17.64,13.99,26.51,20.93Z"/>
      <path class="cls-11" d="m113.23,442.21c0,11.47,0,22.94-.17,34.4-.01.8-.02,1.61-.02,2.42,11.18-1.37,21.07-6.83,28.14-14.81-9.44-7.17-18.7-14.59-27.95-22.01Z"/>
      <path class="cls-11" d="m151.9,428.77c-1.32-9.53-5.69-18.1-12.09-24.71-7.1,8.71-14.41,17.23-21.88,25.62,11.32-.36,22.65-.72,33.97-.92Z"/>
      <path class="cls-11" d="m133.78,399.46c-6.62-4.64-14.47-7.75-23-8.74.07,11.42.17,22.83.24,34.25,7.76-8.35,15.36-16.85,22.76-25.51Z"/>
      <circle class="cls-14" cx="107.87" cy="434.01" r="6.25"/>
    </g>
  </g>
  <g id="Layer_6" data-name="Layer 6">
    <path class="cls-19" d="m767.75,777.29c449.55-202.42,830.56-241.47,1213.24-136.37,10.89,73.06-20.84,111.23-20,174.86-224.65,72.45-386.36,116.52-615.76,188.57-136.55-93.8-417.16-173.45-577.48-227.05Z"/>
  </g>
  <g id="Layer_11" data-name="Layer 11">
    <path class="cls-13" d="m1932.96,718.53c27.91-105.23,31.46-218.45,6.95-327.98-79.75,53.22-54.57,98.79-75.84,464.19,40.26-36.33,57.56-93.48,68.89-136.21Z"/>
    <path class="cls-13" d="m1751.06,765.02c14.29-33.1-16.39-390.15-42.44-392.17-29.69-2.31-52.14,366.59-31.69,413.13,34.59-24.6,56.92,3.85,74.12-20.95Z"/>
    <path class="cls-13" d="m1478.62,826.82c0-41.74-32.1-413.79-57.91-415.22-29.01-1.61-34.21,409.87-15.45,481.38,25.44-22.9,50.88-45.8,73.36-66.16Z"/>
  </g>
  <g id="Layer_5" data-name="Layer 5">
    <path class="cls-16" d="m1353.51,854.43C875.76,583.75,437.65,564.58-47.82,564.58c4.38,169.23,3.74,390.82,8.88,561.69,456.35.51,968.62-55.59,1392.46-271.84Z"/>
  </g>
  <g id="Layer_20" data-name="Layer 20">
    <path class="cls-20" d="m1215.22,783.52c-192.47-97.14-391.31-150.58-601.02-182.13,187.16,47.73,374.35,132.06,536.73,235.7,32.17-9.57,64.35-19.13,96.52-28.7-12.32-10.81-24.86-21.15-32.23-24.87Z"/>
  </g>
  <g id="Layer_10" data-name="Layer 10">
    <path class="cls-22" d="m792.3,766.38c-4.11-20.49,34.01-28.24,38.22-7.77,4.11,20.49-34.01,28.24-38.22,7.77Z"/>
    <path class="cls-23" d="m833.75,774.99c3.44-10.47,24.63-2.99,20.75,7.32-3.44,10.47-24.63,2.99-20.75-7.32Z"/>
    <path class="cls-22" d="m836.38,753.38c-.06-14.99,37.06-14.99,37,0,.06,14.99-37.06,14.99-37,0Z"/>
    <ellipse class="cls-23" cx="443.21" cy="605.52" rx="18" ry="12"/>
    <ellipse class="cls-22" cx="416.08" cy="617.52" rx="7.06" ry="7.97" transform="translate(-318.87 737.12) rotate(-65.27)"/>
    <ellipse class="cls-23" cx="44.3" cy="705.85" rx="18.72" ry="12.92" transform="translate(-253.72 64.47) rotate(-21.33)"/>
    <ellipse class="cls-22" cx="71.61" cy="722.92" rx="11.5" ry="7.25"/>
  </g>
  <g id="Layer_4" data-name="Layer 4">
    <path class="cls-21" d="m1943.88,670.58c-323.9,51.47-694.21,121.09-906.66,170.63-166.2,38.76-1240.01,69.49-1140.22,271.11,470.16,0,2048.82-9.22,2048.82-9.22,0,0,15.97-286.49-1.94-432.51Z"/>
  </g>
  <g id="Layer_13" data-name="Layer 13">
    <path class="cls-18" d="m1889.52,857.14c8.22-3.59,12.89-31.85-10.87-40.21-12.38-49.42-57.74-84.37-103.17-80.61-37.36-63.03-77.48-53.55-87.4-23.05,61.64,37.24,99.7,61.24,152.65,118.48,7.01-.59,42.44,28.16,48.79,25.39Z"/>
    <path class="cls-18" d="m1869.94,1060.67c82.48-11.8,23.02-124.55-63.78-139.63-12.92-44.68-53.38-79.82-96.83-80.84-19.38-12.04-35.98-22.18-52.59-32.31-6-24.54-28.14-40.87-50.56-39.8-92.49-79.22-129.48-33.73-143.79-14.03,17.28-.82,74.26.17,76.09,17.13,2.72,25.13,57.31,36.98,88.61,74.24,21.82,25.98,103.3,74.65,103.65,75.65,12.55,36.51,65.57,89.06,65.29,90.16-12.43,47.98,69.16,50.11,73.9,49.43Z"/>
    <path class="cls-18" d="m1478.34,1058.32c27.66,0,113.92-43.79-26.58-107.58-16.18-32.33-31.89-51.27-66.24-63.78-18.75-50.56-140.07-135.06-179.78-84.45,16.22,5.44,49.83,5.77,59.01,29.94,22.06,0,47.27,42.07,47.27,57.32,0,2.55,46.96,68.21,74.38,84.72,20.19,12.16,51.87,83.84,91.94,83.84Z"/>
    <path class="cls-18" d="m1091.12,983.34c-11.19,5.31,20.91,42.03,21.56,50.64,25.94,14.3,40.37,19.15,70.46,19.51,7.52-5.39,11.14-32.18-3.87-35.04,4.15-18.42-34.98-57.31-55.47-68.96,3.55-29.5-85.33-104.06-100.06-104.06-15.81-21.09-60.06-8.83-63.74,7.62,15.17,14.12,49.49,20.55,49.98,48.64,19.16,9.12,49.33,71.31,81.14,81.66Z"/>
    <path class="cls-18" d="m768.42,994.63c-8.5,19.85,42.33,68.11,53.65,65.05,21.78-5.87,24.07-36.93,19.22-41.11,2.22-23.15-7.95-47-29.88-57.63-8.5-62.1-31.92-85.71-58.69-89.07-8.94-15.13-58.18-12.93-65.28,7.98,38.12,22.17,59.76,61.21,61.93,84.63,9.87-1.07,19.7,22.86,19.05,30.15Z"/>
    <path class="cls-18" d="m538.66,1044.6c17.54,32.77,64.85,22.08,66.48,13.37,10.41-55.73-29.64-81.33-70.66-105.45,6.25-17.28-7.58-34.31-24.87-36.79-11.17-27.06-56.12-28.72-74.86-8.77,10.91,9.4,31.78,12.99,38.8,29.97,8.55,20.69,38.33,32.74,34.2,51.53,16.06,12.86,21.14,37.87,30.91,56.14Z"/>
    <path class="cls-18" d="m345.55,1055.5c18.96-18.96-12.88-34.69-21.82-49.22-.46-31.6-26.74-60.41-58.31-65.05-6.4-26.87-46.27-25.86-53.65.13,33.72,9.25,47.77,58.69,62.34,87.69,11.89,38.96,67.87,30.01,71.43,26.45Z"/>
    <path class="cls-18" d="m37.55,1036.94c2.55,2.42,4.99,4.97,7.34,7.62,3.57,1.37,6.76,3.45,10.25,5.67,5.32,3.38,10.75,6.5,16.49,9.12,17.6,9.07,54.27,22.72,56.72,1.21.94-8.25-11.66-11.93-19.03-15.82-3.95-32.9-35.16-58.05-67.49-56.93-15.97-13.13-46.56-7.53-58.28,12.43,1.46.62,5.89,4.57,5.62,9.24,19.24.79,37.83,11.34,48.37,27.46Z"/>
  </g>
  <g id="Layer_15" data-name="Layer 15">
    <path class="cls-17" d="m1836.42,986.41s-28.85-7.85-27.78-15.81c1.24-9.25-5.08-83.36,24.63-92.3,16.21-4.88,36.31-4.92,40.6,13.67,10.66,46.11-37.45,94.43-37.45,94.43Z"/>
    <path class="cls-17" d="m1762.08,905.22c5.62-24.87,31.87-75.41,4.12-84.58-30.73-10.16-26.56,56.47-28.27,77.33,8.73,13.39,12.51,11.88,24.15,7.25Z"/>
    <path class="cls-17" d="m1733.12,891.74c-.86-7,.91-16.65-6.26-20.79-18.27-6.52-8.93,39.75,6.26,20.79Z"/>
    <path class="cls-17" d="m1671.9,852.73c14.9-13.33,41.27-80.24,13.77-88.8-23.92-6.35-34.18,60.25-25.18,87.43,3.45-.19,7.4,1.12,11.41,1.37Z"/>
    <path class="cls-17" d="m1651.6,846.57c1.86-15.02.62-30.64-8.96-42.37-3.98-4.86-13.42-1.89-13.55,4.4-.15,6.93,14.35,50.39,22.51,37.96Z"/>
    <path class="cls-17" d="m1600.11,792.24c11.2-13.32,18.09-69.56-12.4-55.36-23.18,1.5-7.28,34.23-9.71,48.05,1.74,8.33,9.83,12.26,22.11,7.31Z"/>
    <path class="cls-17" d="m1258.73,800.13c11.94-12.87,19.3-67.21-13.22-53.49-24.72,1.45-7.76,33.07-10.36,46.43,1.85,8.05,10.48,11.85,23.58,7.06Z"/>
    <path class="cls-17" d="m1536.33,738.63c-4.18-7.82-3.73-30.57-6.57-38.61-3.94-11.15-19.77-11.33-22.47-1.45-3.95,14.49,4.02,25.17,8.18,41.71,9.47,2.8,19.3,2.12,20.86-1.65Z"/>
    <path class="cls-17" d="m1854.87,810.01c-9.57,2.46-12.06,3.58-16.77-6.03-10.41-21.25,4.59-47.16,15.74-68.07,2.73-5.11,9.19-8.1,15.04-6.94,5.85,1.15,10.57,6.34,11,12.07,1.8,24.29,2.28,61.96-25,68.98Z"/>
    <path class="cls-17" d="m1794.83,741.82c-1.69,5.05-6.8,8.67-12.01,8.52s-10.11-4.08-10.76-8.71c.32-11.67.63-23.34.95-35.01.23-8.39,11.16-13.24,18.46-9.42s10.43,13.22,9.51,21.55c-.92,8.34-3.85,16.19-6.15,23.07Z"/>
    <path class="cls-17" d="m1730.96,712.54c-8.1-1.32-11.65-.99-18.9-5.23-2.05-7.58-4.11-15.41-3-23.17,3.7-25.78,34.55-18.77,31.93-7.16-2.44,10.8-3.58,22.85-10.04,35.56Z"/>
    <path class="cls-17" d="m1143.08,1003.83c-1.34,8.27-15.9,10.37-18.02,1.94-17-25.22-11.97-112.92,33.22-102.81,35.42,17.05-13.66,76.9-15.2,100.87Z"/>
    <path class="cls-17" d="m1162.81,1010.89c5.26-6.77,10.43-34.5,1.84-36.77-8.58-2.27-23.48,15.01-22.73,23.36.75,8.36,11.66,25.28,20.89,13.4Z"/>
    <path class="cls-17" d="m1010.9,872.52c10.9,12.91,30.26-32.25,29.15-44.34-.72-4.72-3.84-9.39-8.99-11.45-26.43-8.43-26.65,49.74-20.15,55.79Z"/>
    <path class="cls-17" d="m983.57,849.37c-18.3-5.98-30.22-24.21-26.85-41.08,22.31-1.32,42.58,27.22,26.85,41.08Z"/>
    <path class="cls-17" d="m795.04,1009.79c34.79,25.38,45.75-49.7,49.02-67.19,1.47-13.19-24.1-20.26-32.17-3.52-7.71,15.98-15.62,63.19-16.85,70.71Z"/>
    <path class="cls-17" d="m797.79,994.55c-3.71,2.8-13.43,3.61-15.97-.04-.59-4.99-3.88-18.2-.2-25.24s12.73-8.63,16.63,0c3.5,7.73.49,20.61-.46,25.28Z"/>
    <path class="cls-17" d="m771.59,928.95c1.35,6.81-10.2,13.12-13.78,5.43-5.13-17.92-5.34-80.94,17.81-83.68,4.48.25,8.28,3.64,8.73,7.8,2.63,24.23-2.51,49.72-12.75,70.45Z"/>
    <path class="cls-17" d="m727.25,872.35c5.18-14.72,2.25-42.45-19.31-38.06-17.3,7.87.46,27.1,3.24,39.18,2.71,7.08,14.23,6.07,16.07-1.12Z"/>
    <path class="cls-17" d="m269.91,945.85c6.02-22.04,2.61-63.54-22.44-56.97-20.11,11.78.54,40.57,3.76,58.64,3.14,10.59,16.54,9.09,18.68-1.68Z"/>
    <path class="cls-17" d="m555.86,1031.86c-7.32-22.83-3.18-65.81,27.3-59.01,24.46,12.2-.65,42.02-4.57,60.74-3.82,10.97-20.12,9.41-22.72-1.74Z"/>
    <path class="cls-17" d="m456.28,900.87c5.05,3.03,9.92,5.57,16.75,5.57,5.26-18.79,30.97-49.2,2.7-62.78-37.04-5.74-21.75,44.45-19.45,57.22Z"/>
    <path class="cls-17" d="m1078.75,934.53c-23.72,16.2-18.95-40.95-17.5-48.62,5.51-47.19,98.81-43.66,17.5,48.62Z"/>
    <path class="cls-17" d="m306.07,1024.58c14.43,23.54,31.55-33.42,33.14-41.33,12.77-47.54-68.97-74.95-33.14,41.33Z"/>
    <path class="cls-17" d="m512.17,956.58c13.25,19.57,24.38-33.07,25.28-40.31,8.04-43.79-61.3-59.98-25.28,40.31Z"/>
    <path class="cls-17" d="m53.13,1017.72c18.01,21.89,29.03-34.21,29.75-41.96,7.61-46.75-81.5-68.32-29.75,41.96Z"/>
    <path class="cls-17" d="m1378.21,916.16c-3.08,4.7-8.85,7.46-14.42,6.92-5.57-.54-10.7-4.38-12.63-10.38-1.94-10.75-3.89-21.5-5.83-32.25-.75-4.17,2.05-8.68,6.11-9.84,4.06-1.15,8.8,1.22,10.33,5.16,5.29,13.65,10.59,27.3,16.44,40.38Z"/>
    <path class="cls-17" d="m1365.07,896.43c3.31-21.59,11.07-42.49,22.62-60.96,3.04-4.85,9.36-7.29,14.76-5.69,5.4,1.6,9.41,7.1,9.36,12.84-.25,27.75-11.7,55.3-31.12,74.9-3.85,3.88-10.86,3.74-14.51-.29-3.64-4.03-2.61-11.06-1.12-20.8Z"/>
    <path class="cls-17" d="m1472.1,998.44c-2.73,4.29-8.43,6.78-13.74,6-5.31-.78-9.9-4.79-9.99-9.23,3.16-17.99,10.81-35.29,22.19-50.15,3.08-4.02,9.09-5.86,14.15-4.33s8.74,6.31,8.66,11.24c-.27,17.63-12.14,32.15-21.26,46.48Z"/>
    <path class="cls-17" d="m1460.65,994.76c-.17,5.02-3.47,9.33-7.31,9.57-3.85.24-10.62-1.79-11.53-5.97-4.35-23.47-22.7-47.33-19.41-70.56,4.14-29.2,40.59-34.71,40.48-4.29-.09,24.11-1.42,48.01-2.23,71.25Z"/>
    <path class="cls-17" d="m1330.26,833.39c-1.72,6.17-7.62,10.61-13.5,10.16-5.88-.45-11.16-5.73-11.94-12.31.65-7.97-.09-15.98-.02-23.98.07-8,1.03-16.25,4.75-23.14,3.71-6.89,10.69-12.12,17.97-11.41,7.28.71,13.77,8.78,11.98,16.54-3.41,14.78-5.28,29.96-9.24,44.14Z"/>
  </g>
  <g id="Layer_17" data-name="Layer 17">
    <path class="cls-10" d="m86.54,959.1c-4.35-12.96-15.17-25-28.87-28.07-6.62-1.48-13.41-.34-18.69,4.08s-8.09,11.37-8.39,18.32c-.22,4.92.58,9.8,1.53,14.61s2.05,10.02,3.08,15.03c.1.49,2.49-1.03,2.35-1.7-.83-4.05-1.66-8.09-2.49-12.14s-1.65-8.04-1.99-12.13c-.57-6.84.3-14.52,4.95-19.93,4.31-5.03,11.72-5.47,17.76-4.08,6.44,1.49,12.18,5.11,16.9,9.66,5.26,5.06,9.24,11.37,11.56,18.28.08.23,2.56-1.16,2.3-1.93h0Z"/>
    <path class="cls-10" d="m240.18,911.18c-.7-5.32-.36-10.96,2.17-15.79,2.27-4.32,6.45-7.3,11.42-7.34s9.36,2.58,12.46,6.18c3.49,4.06,5.21,9.34,6.04,14.55,1.06,6.66.78,13.43,1.48,20.12.04.42,2.43-.97,2.35-1.7-1.25-11.84.71-26.39-8.35-35.75-3.54-3.66-8.61-6.02-13.76-5.27s-9.48,4.14-12.37,8.14c-3.87,5.34-4.63,12.17-3.79,18.56.06.44,2.44-.98,2.35-1.7h0Z"/>
    <path class="cls-10" d="m452.29,888.37c-1.28-8.56-2.39-17.41-.61-25.99,1.4-6.76,4.99-13.78,11.1-17.41,6.52-3.86,14.88-3,20.84,1.55,6.45,4.93,8.99,13.12,7.83,20.97-.71,4.84-2.23,9.63-3.84,14.24s-3.55,9.18-5.74,13.6c-.29.58.58.16.76.06.55-.32,1.19-.84,1.48-1.43,4.11-8.28,7.58-17.21,9.36-26.3.84-4.29.91-8.63-.44-12.83-1.25-3.89-3.59-7.44-6.79-9.99-6.15-4.89-14.6-5.68-21.53-2.03-6.46,3.4-11.48,9.5-13.98,16.32-3.63,9.9-2.31,20.76-.79,30.94.07.45,2.46-.99,2.35-1.7h0Z"/>
    <path class="cls-10" d="m501.96,893.12c3.04-7.04,7.25-16.2,16.51-14.83,8.45,1.25,13.03,9.38,16.68,16.2.19.35,2.64-1.3,2.3-1.93-3.35-6.25-7.13-13.02-14.18-15.59s-13.26,1.28-17.47,6.47c-2.68,3.29-4.4,7.18-6.07,11.05-.25.58.56.18.76.06.52-.3,1.23-.85,1.48-1.43h0Z"/>
    <path class="cls-10" d="m731.88,852.13c-.91-4.49-2.72-8.74-5.43-12.44-2.47-3.37-5.98-6.67-10.32-7.14-4.05-.44-7.81,2.1-10.34,5.05-2.76,3.21-4.1,7.35-4.35,11.53-.31,5.13.77,10.24,1.89,15.22.03.15,2.49-1.09,2.3-1.93-1.66-7.38-3.47-15.97.26-23.03,1.84-3.48,5.09-5.51,9.09-4.66,3.78.8,6.82,3.73,9.04,6.73,2.72,3.67,4.59,7.91,5.5,12.38.1.49,2.49-1.03,2.35-1.7h0Z"/>
    <path class="cls-10" d="m761.22,863.99c1.35-3.66,2.73-7.54,5.3-10.55,2.23-2.62,5.94-3.86,9.32-3.16,7.49,1.55,6.59,11.01,8.58,16.6.09.25,2.57-1.17,2.3-1.93-1.84-5.19-1.01-13.11-6.77-15.99s-12.38,1.44-15.84,5.95c-2.38,3.11-3.78,6.81-5.13,10.45-.22.58.53.19.76.06.5-.29,1.27-.85,1.48-1.43h0Z"/>
    <path class="cls-10" d="m989.84,827.84c-5.43-9.67-13.48-18.2-23.84-22.55-2.53-1.06-5.34-2.1-8.13-1.71-2.47.34-4.7,2.03-6.07,4.07-3.45,5.12-1.29,11.84,1.04,16.93,2.93,6.42,6.95,12.29,11.8,17.41.42.44,2.66-1.55,2.3-1.93-3.82-4.02-7.11-8.5-9.77-13.36s-5.46-10.56-4.67-16.2c.18-1.3.55-2.68,1.29-3.79.83-1.24,2.6-1.27,3.95-1.16,2.56.19,5.08,1.23,7.38,2.3,4.51,2.1,8.6,5.03,12.17,8.47,4.08,3.93,7.48,8.52,10.26,13.46.2.36,2.64-1.31,2.3-1.93h0Z"/>
    <path class="cls-10" d="m1010.03,829.9c2.09-6.31,6.16-12.53,13.21-13.56,2.97-.43,6.18.02,8.78,1.59,2.98,1.8,4.59,4.89,5.7,8.09,1.56,4.48,2.35,9.18,2.46,13.92.01.47.99-.22,1.11-.31.34-.24,1.25-.88,1.24-1.4-.11-4.66-.88-9.3-2.37-13.72-1.28-3.83-3.23-7.4-7.05-9.15-6.78-3.1-14.23.13-19.05,5.18-2.99,3.13-5.03,6.96-6.38,11.05-.15.44,1.06-.27,1.11-.31.49-.34,1.05-.81,1.24-1.4h0Z"/>
    <path class="cls-10" d="m1234.97,781.15c-2.79-7.23-5.87-15.12-4.44-23,.56-3.08,1.8-6.17,3.84-8.58,2.27-2.68,5.32-3.28,8.62-3.9,3.75-.71,7.23-2.8,11.09-2.94,3.27-.11,6.42,1.14,8.99,3.11,5.92,4.55,7.9,11.99,8.02,19.15.15,8.98-1.62,18.12-4.33,26.65-.14.44,1.06-.27,1.11-.31.48-.34,1.05-.81,1.24-1.4,2.65-8.34,4.37-17.22,4.34-25.99-.03-7.61-2.02-15.71-8.52-20.37-2.74-1.96-6.1-3.15-9.5-2.82-1.94.19-3.79.8-5.62,1.45-2.06.73-4.07,1.31-6.22,1.69-3.57.64-6.58,2.02-9.25,4.5-2.41,2.24-4.22,5.07-5.3,8.18-3.08,8.89.41,18.18,3.63,26.5.1.27,2.58-1.19,2.3-1.93h0Z"/>
    <path class="cls-10" d="m1507.6,715.97c-1.32-5.33-1.86-10.92-1.37-16.41.22-2.47.7-5.11,2.13-7.2,1.09-1.59,2.86-2.3,4.71-2.62,9.46-1.66,15.74,6.99,18.29,14.92,1.89,5.86,2.5,12.04,4.3,17.92.06.21,2.54-1.14,2.3-1.93-3.13-10.23-2.95-23.69-12.61-30.52-3.45-2.44-8.08-3.3-12.13-1.96-4.52,1.49-7.78,5.3-8.85,9.89-1.48,6.37-.62,13.56.94,19.83.04.17,2.5-1.1,2.3-1.93h0Z"/>
    <path class="cls-10" d="m1742.6,688.71c.44-9.01-.27-21.08-9.97-25.21-8.39-3.57-17.78,1.93-22.54,8.82-3.04,4.4-4.61,9.61-5.32,14.86-.06.47,1.03-.25,1.11-.31.41-.29,1.16-.84,1.24-1.4,1.09-8.03,4.43-17.35,12.82-20.17,3.66-1.23,7.84-1.25,11.32.55s5.89,5.07,7.32,8.63c2.01,5.04,1.94,10.59,1.68,15.92-.02.47,1.01-.23,1.11-.31.37-.26,1.21-.86,1.24-1.4h0Z"/>
    <path class="cls-10" d="m1056.32,707.98c-2.87-.99-5.75-1.97-8.63-2.91-.17-.05-.57.2-.68.26-.32.19-.64.45-.91.71-.15.15-.93.9-.49,1.04,2.89.95,5.76,1.92,8.63,2.91.16.06.57-.2.68-.26.32-.19.64-.45.91-.71.15-.15.92-.89.49-1.04h0Z"/>
    <path class="cls-10" d="m1068.21,712.22c-2.08-.76-4.16-1.51-6.24-2.25-.16-.06-.58.2-.68.26-.32.19-.64.45-.91.71-.15.15-.92.89-.49,1.04,2.08.74,4.16,1.5,6.24,2.25.16.06.58-.2.68-.26.32-.19.64-.45.91-.71.16-.15.92-.89.49-1.04h0Z"/>
    <path class="cls-10" d="m1087.44,719.45c-4.74-1.83-9.48-3.63-14.24-5.4-.64-.24-2.55,1.85-2.08,2.02,4.76,1.76,9.51,3.56,14.24,5.4.63.24,2.55-1.84,2.08-2.02h0Z"/>
    <path class="cls-10" d="m1214.06,777.68c-15.29-8.28-30.79-16.18-46.46-23.7-15.82-7.59-31.83-14.8-48.01-21.6-8.95-3.76-17.94-7.41-26.99-10.92-.63-.24-2.55,1.84-2.08,2.02,16.29,6.34,32.42,13.08,48.38,20.21s31.55,14.56,47.06,22.41c8.66,4.39,17.26,8.89,25.8,13.51.71.38,2.52-1.81,2.3-1.93h0Z"/>
  </g>
</svg>