<svg id="a1c1ef14-b20a-4024-8343-14fa1c751494" data-name="e128130b-0a6b-49a3-8de3-11c4599b8cab" xmlns="http://www.w3.org/2000/svg" viewBox="0 0 1920.42 652.09"><g id="a86d59eb-abee-4c77-9137-ba4b7de1c6dd" data-name="af81a7c2-b5cb-493b-82a5-8a4ec39df600"><path d="M1919.64,0H.87L.69,170s14.62-18.08,139.23-19.19c15.05-.13,78.56,3.18,143.72,12.77C191.47,150,106,179.65,21.92,213.58c-5.71,2.3-11.74,4.86-15.23,9.92-3.38,4.89-3.73,11.19-4,17.13-.92,23-1.9,46.06-2.65,69.06,78.38-70,179-113,282.75-129.44C436.3,156,593.46,186.89,734,250.08c100.92,45.37,215.67,56,325.21,52.68,85.69-2.59,166-31.54,250.38-41.57,87.75-10.43,176.75-3.21,263.61,11.18,116.6,19.32,230.8,51.32,347.22,71.38ZM1596.09,200.42c-116.6-12-237.41,2.12-352.58,24.34-79.56,15.35-156.42,39.75-237.63,46.61A629.27,629.27,0,0,1,702.4,221.2c115.9,27.58,236.45,22.31,353.36,4.15,109.48-17,381.06-85.17,595.6-33.63C1681.55,199,1734,220,1787.29,243.07c-8.35-1.39-14.4-2.12-16.7-2.79C1712,223.17,1656.09,206.58,1596.09,200.42Z" transform="translate(-0.04)" fill="#5d2515"/></g><rect x="0.83" width="1919.59" height="652.09" fill="#5d2515" opacity="0"/></svg>