<svg xmlns="http://www.w3.org/2000/svg" viewBox="0 0 1920.42 653.05"><g id="e3bf1426-d170-4a42-a416-b785818e9fa2" data-name="Layer 6"><path d="M1920,114H1.23l-1,479.27s14.62-18.08,139.23-19.19c15.05-.13,78.56,3.18,143.72,12.77-92.17-13.57-177.67,16.07-261.72,50-5.71,2.3-11.74,4.86-15.23,9.92-3.38,4.89-3.73,11.19-4,17.13-.92,23-1.9,46.07-2.69,69.11,78.38-70,179-113,282.75-129.44C435.84,579.25,593,610.19,733.6,673.38c100.92,45.37,215.67,56,325.21,52.68,85.69-2.59,166-31.54,250.38-41.57,87.75-10.43,176.75-3.21,263.61,11.18C1689.38,715,1803.55,747,1920,767.05ZM1595.63,623.72c-116.6-12-237.41,2.12-352.58,24.34-79.56,15.35-156.42,39.75-237.63,46.61A629.37,629.37,0,0,1,701.94,644.5c115.9,27.58,236.45,22.31,353.36,4.15,109.48-17,381.06-85.17,595.6-33.63,30.19,7.25,82.68,28.23,135.93,51.35-8.35-1.39-14.4-2.12-16.7-2.79C1711.51,646.47,1655.63,629.88,1595.63,623.72Z" transform="translate(0.42 -113.99)" fill="#5d2515"/></g></svg>