<?xml version="1.0" encoding="utf-8"?>
<!-- Generator: Adobe Illustrator 25.4.1, SVG Export Plug-In . SVG Version: 6.00 Build 0)  -->
<svg version="1.1" id="f6298495-7180-4add-87a4-91df705e3903"
	 xmlns="http://www.w3.org/2000/svg" xmlns:xlink="http://www.w3.org/1999/xlink" x="0px" y="0px" viewBox="0 0 1902.6 652.1"
	 style="enable-background:new 0 0 1902.6 652.1;" xml:space="preserve">
<style type="text/css">
	.st0{fill:none;}
	.st1{fill:#5D2515;}
</style>
<g>
	<path class="st0" d="M1564.4,272.4c-86.8-14.4-175.8-21.6-263.6-11.2c-84.4,10.1-164.7,39-250.4,41.6
		c-109.5,3.3-224.3-7.3-325.2-52.7C584.7,186.9,427.5,156,274,180.3C174,196.1,77.1,236.6,0,302.1v350h1902.6V342.2
		C1789.3,322.1,1678,291.2,1564.4,272.4z"/>
	<path class="st0" d="M13,213.6c84-33.9,169.5-63.6,261.7-50c-65.1-9.6-128.6-12.9-143.7-12.8c-83.5,0.7-117.6,9.1-131,14.5v55.6
		C3.5,217.5,8.4,215.5,13,213.6z"/>
	<path class="st0" d="M997,271.3c81.2-6.8,158-31.3,237.6-46.6c115.2-22.2,236-36.3,352.6-24.3c60,6.2,115.9,22.8,174.5,39.8
		c2.3,0.7,8.4,1.4,16.7,2.8c-53.2-23.1-105.7-44.1-135.9-51.3c-214.5-51.6-486.1,16.6-595.6,33.6c-116.9,18.1-237.5,23.4-353.4-4.2
		C789,262.7,893.2,279.9,997,271.3z"/>
	<path class="st1" d="M725.2,250.1c100.9,45.4,215.7,56,325.2,52.7c85.7-2.6,166-31.5,250.4-41.6c87.8-10.4,176.8-3.2,263.6,11.2
		c113.6,18.8,224.9,49.7,338.2,69.8V0H0v165.3c13.4-5.4,47.5-13.8,131-14.5c15.1-0.1,78.6,3.2,143.7,12.8
		C182.5,150,97,179.7,13,213.6c-4.6,1.9-9.5,3.9-13,7.3v81.1c77.1-65.5,174-106,274-121.8C427.5,156,584.7,186.9,725.2,250.1z
		 M1046.9,225.3c109.5-17,381.1-85.2,595.6-33.6c30.2,7.2,82.7,28.2,135.9,51.3c-8.3-1.4-14.4-2.1-16.7-2.8
		c-58.6-17-114.5-33.6-174.5-39.8c-116.6-12-237.4,2.1-352.6,24.3C1155,240,1078.2,264.5,997,271.3c-103.8,8.6-208-8.6-303.5-50.2
		C809.4,248.7,930,243.4,1046.9,225.3z"/>
</g>
</svg>
