<svg id="e128130b-0a6b-49a3-8de3-11c4599b8cab" data-name="Layer 1" xmlns="http://www.w3.org/2000/svg" viewBox="0 0 1920.46 343.75"><g id="af81a7c2-b5cb-493b-82a5-8a4ec39df600" data-name="e3bf1426-d170-4a42-a416-b785818e9fa2"><path d="M1919.6,309.31H.83l-.18,170s14.62-18.08,139.23-19.19c15.05-.13,78.56,3.18,143.72,12.77-92.17-13.57-177.67,16.07-261.72,50-5.71,2.3-11.74,4.86-15.23,9.92-3.38,4.89-3.73,11.19-4,17.13C1.73,572.91.75,596,0,619c78.38-70,179-113,282.75-129.44C436.26,465.26,593.42,496.2,734,559.39c100.92,45.37,215.67,56,325.21,52.68,85.69-2.59,166-31.54,250.38-41.57,87.75-10.43,176.75-3.21,263.61,11.18C1689.8,601,1804,633,1920.42,653.06ZM1596.05,509.73c-116.6-12-237.41,2.12-352.58,24.34-79.56,15.35-156.42,39.75-237.63,46.61a629.27,629.27,0,0,1-303.48-50.17c115.9,27.58,236.45,22.31,353.36,4.15,109.48-17,381.06-85.17,595.6-33.63,30.19,7.25,82.68,28.23,135.93,51.35-8.35-1.39-14.4-2.12-16.7-2.79C1711.93,532.48,1656.05,515.89,1596.05,509.73Z" transform="translate(0.04 -309.31)" fill="#5d2515"/></g></svg>